<svg width="377" height="61" viewBox="0 0 377 61" fill="none" xmlns="http://www.w3.org/2000/svg">
<rect width="377" height="44" rx="4" fill="white"/>
<path d="M25.1953 20.582H31.6055V30.7422H35.3906V32.8047H12.5977V30.7422H16.418V20.6758C15.5742 21.0898 14.7578 21.457 13.9688 21.7773L12.5742 19.9141C15.8633 18.8047 18.5391 17.1562 20.6016 14.9688H13.3477V12.9062H22.6523V10.4805H25.1953V12.9062H34.6523V14.9688H27.5273C27.5742 15.0078 27.6289 15.0547 27.6914 15.1094C29.5977 16.7344 32.1914 18.1602 35.4727 19.3867L34.0312 21.3438C30.3359 19.8047 27.3906 17.8047 25.1953 15.3438V20.582ZM22.6523 20.582V15.3789C21.1133 17.4961 19.0898 19.2305 16.582 20.582H22.6523ZM18.9844 22.3047V23.9922H29.0625V22.3047H18.9844ZM18.9844 25.668V27.3555H29.0625V25.668H18.9844ZM18.9844 29.0312V30.7422H29.0625V29.0312H18.9844ZM51.6656 29.875C52.9859 30.0938 54.4273 30.2031 55.9898 30.2031H62.0719C61.6812 30.9844 61.3922 31.8086 61.2047 32.6758H55.9664C52.7945 32.6758 50.2906 32.2969 48.4547 31.5391C46.6734 30.8047 45.2047 29.5938 44.0484 27.9062C43.1266 30.1016 41.9937 31.9219 40.65 33.3672L38.8336 31.1875C41.0367 28.8047 42.4117 25.7188 42.9586 21.9297L45.6187 22.3398C45.3687 23.5742 45.1266 24.6016 44.8922 25.4219C45.8375 27.1016 47.232 28.3438 49.0758 29.1484V20.0781H42.5719V18.5195H40.0289V13.0938H49.0055V10.4805H51.6187V13.0938H60.7945V18.5195H58.2516V20.0781H51.6656V23.6641H59.693V25.8438H51.6656V29.875ZM42.5953 15.2969V17.8516H58.2047V15.2969H42.5953ZM75.382 13.5742V10.4805H78.0422V13.5742H86.6906V29.1953H84.0773V27.4961H78.0422V33.2852H75.382V27.4961H69.5461V29.3711H66.9094V13.5742H75.382ZM69.5461 15.8008V19.3398H75.4289V15.8008H69.5461ZM69.5461 21.543V25.2695H75.4289V21.543H69.5461ZM84.0773 25.2695V21.543H77.9953V25.2695H84.0773ZM84.0773 19.3398V15.8008H77.9953V19.3398H84.0773ZM94.1062 11.4648H96.8719V25.4336C96.8719 28.3789 98.4187 29.8516 101.512 29.8516C103.552 29.8516 105.223 28.9102 106.528 27.0273C107.372 25.8164 108.13 23.9414 108.802 21.4023L111.18 22.8438C110.384 25.6641 109.427 27.7734 108.309 29.1719C106.552 31.3516 104.266 32.4414 101.454 32.4414C98.5164 32.4414 96.4461 31.5352 95.243 29.7227C94.4852 28.5898 94.1062 27.1289 94.1062 25.3398V11.4648ZM131.522 11.8047V13.3164C131.522 16.0195 132.155 18.6523 133.42 21.2148C134.467 23.3242 135.881 25.1562 137.662 26.7109L136.01 29.043C134.565 27.7617 133.256 26.082 132.084 24.0039C131.194 22.4336 130.549 20.9727 130.151 19.6211C129.791 21.2227 129.327 22.5508 128.756 23.6055C127.577 25.8008 126.108 27.5898 124.35 28.9727L122.592 26.8047C126.248 24.2422 128.334 20.0039 128.85 14.0898H124.01V11.8047H131.522ZM121.338 27.6719C122.018 28.4609 122.702 29.0078 123.389 29.3125C124.655 29.8906 126.354 30.1797 128.487 30.1797H138.108C137.772 30.8906 137.51 31.7227 137.323 32.6758H128.51C125.807 32.6758 123.705 32.25 122.205 31.3984C121.565 31.0391 120.893 30.4336 120.19 29.582C118.885 31.1367 117.662 32.3672 116.522 33.2734L115.034 30.7539C116.354 29.9492 117.6 29.0195 118.772 27.9648V22.5859H115.221V20.2773H121.338V27.6719ZM120.049 17.125C118.987 15.6562 117.651 14.1445 116.041 12.5898L117.987 11.0078C119.401 12.1484 120.791 13.5742 122.159 15.2852L120.049 17.125ZM144.469 12.1562H153.633L155.273 13.5508C154.5 16.2617 153.859 18.3008 153.352 19.668C155.297 19.9961 157.09 20.5273 158.73 21.2617C158.824 20.2539 158.871 19.2656 158.871 18.2969C158.871 17.7812 158.855 17.1758 158.824 16.4805L161.391 16.75C161.383 18.9844 161.293 20.8633 161.121 22.3867C162.09 22.8867 163.105 23.4766 164.168 24.1562L163.16 26.6523C162.41 26.1055 161.598 25.5625 160.723 25.0234C160.121 27.3438 159.16 29.1484 157.84 30.4375C156.902 31.3594 155.621 32.1719 153.996 32.875L152.531 30.9062C154.445 30.0859 155.859 29.0391 156.773 27.7656C157.492 26.75 158.023 25.4219 158.367 23.7812C156.453 22.8203 154.516 22.1719 152.555 21.8359C151.281 25.3203 150.004 27.9609 148.723 29.7578C147.746 31.1172 146.648 31.7969 145.43 31.7969C144.25 31.7969 143.336 31.2344 142.688 30.1094C142.195 29.25 141.949 28.2266 141.949 27.0391C141.949 25.5703 142.328 24.2578 143.086 23.1016C143.984 21.7266 145.367 20.7227 147.234 20.0898C148.312 19.7305 149.52 19.5352 150.855 19.5039C151.574 17.6289 152.125 15.9492 152.508 14.4648H144.469V12.1562ZM150.012 21.7422C149.004 21.7969 148.141 21.9883 147.422 22.3164C146.297 22.8164 145.469 23.582 144.938 24.6133C144.562 25.3398 144.375 26.1133 144.375 26.9336C144.375 27.5898 144.504 28.1602 144.762 28.6445C144.957 29.0273 145.191 29.2188 145.465 29.2188C146.559 29.2188 148.074 26.7266 150.012 21.7422ZM182.67 11.3477H185.236V15.5898H190.017V17.9219H185.236V25.1172C187.087 25.9688 188.92 27.1641 190.732 28.7031L189.42 31.0234C187.888 29.6875 186.486 28.625 185.212 27.8359C185.072 29.75 184.392 31.0312 183.173 31.6797C182.494 32.0391 181.564 32.2188 180.384 32.2188C179.103 32.2188 177.99 31.9883 177.045 31.5273C175.615 30.832 174.9 29.6758 174.9 28.0586C174.9 26.7852 175.443 25.7734 176.529 25.0234C177.521 24.3359 178.795 23.9922 180.349 23.9922C181.06 23.9922 181.834 24.082 182.67 24.2617V17.9219H175.134V15.5898H182.67V11.3477ZM182.67 26.5352C181.755 26.2461 180.943 26.1016 180.232 26.1016C179.552 26.1016 178.974 26.207 178.498 26.418C177.748 26.7383 177.373 27.2617 177.373 27.9883C177.373 28.582 177.646 29.0469 178.193 29.3828C178.724 29.7109 179.435 29.875 180.326 29.875C181.888 29.875 182.67 28.9961 182.67 27.2383V26.5352ZM169.943 32.1719C169.67 29.5938 169.533 26.8828 169.533 24.0391C169.533 19.6016 169.83 15.3711 170.423 11.3477L173.002 11.7227C172.416 15.1914 172.123 18.9414 172.123 22.9727C172.123 25.9336 172.271 28.8672 172.568 31.7734L169.943 32.1719ZM202.331 14.0312C202.566 14.4141 202.78 14.8125 202.976 15.2266L200.667 15.9062C200.409 15.2031 200.132 14.5781 199.835 14.0312H197.831C197.191 14.8516 196.573 15.5234 195.98 16.0469H204.581V22.7383H198.054V33.2852H195.581V16.0469H195.64L194.023 14.7461C195.507 13.5195 196.636 12.0234 197.409 10.2578L199.823 10.6445C199.573 11.207 199.343 11.6797 199.132 12.0625H205.085V14.0312H202.331ZM198.054 17.6992V18.6836H202.249V17.6992H198.054ZM198.054 20.125V21.1562H202.249V20.125H198.054ZM212.128 14.0312C212.152 14.0625 212.187 14.1094 212.234 14.1719C212.429 14.4375 212.632 14.75 212.843 15.1094L210.652 15.9062C210.269 15.125 209.921 14.5 209.609 14.0312H208.003C207.534 14.7656 207.011 15.4375 206.433 16.0469L204.652 14.7227C205.691 13.6992 206.589 12.2266 207.347 10.3047L209.738 10.7383C209.558 11.1523 209.355 11.5938 209.128 12.0625H216.827V14.0312H212.128ZM210.78 23.8516V30.6719C211.437 30.7812 212.062 30.8359 212.655 30.8359C212.968 30.8359 213.167 30.7812 213.253 30.6719C213.316 30.5781 213.347 30.418 213.347 30.1914V22.7383H206.644V16.0469H215.843V30.9062C215.843 31.6719 215.702 32.2188 215.421 32.5469C215.093 32.9297 214.484 33.1211 213.593 33.1211C212.866 33.1211 211.937 33.0703 210.804 32.9688L210.488 30.9062H202.753V31.9141H200.456V23.8516H210.78ZM208.472 25.457H202.753V26.582H208.472V25.457ZM208.472 28H202.753V29.2773H208.472V28ZM213.347 21.1562V20.125H208.999V21.1562H213.347ZM213.347 18.6836V17.6992H208.999V18.6836H213.347ZM238.141 14.8281H241.387V24.6953H233.302V26.4648H243.497V28.6445H233.302V33.2852H230.688V28.6445H220.68V26.4648H230.688V24.6953H222.766V14.8281H224.981C224.958 14.7656 224.923 14.6836 224.876 14.582C224.391 13.4492 223.751 12.3633 222.954 11.3242L225.309 10.3867C226.184 11.543 226.911 12.7422 227.489 13.9844L225.274 14.8281H230.981L230.923 14.6641C230.477 13.2812 229.887 12.082 229.153 11.0664L231.532 10.1758C232.298 11.3711 232.942 12.6172 233.466 13.9141L231.18 14.8281H235.458C236.481 13.3828 237.352 11.8945 238.071 10.3633L240.673 11.3008C239.915 12.5039 239.071 13.6797 238.141 14.8281ZM238.845 16.8203H233.255V18.8125H238.845V16.8203ZM230.759 16.8203H225.309V18.8125H230.759V16.8203ZM238.845 20.6406H233.255V22.7734H238.845V20.6406ZM230.759 20.6406H225.309V22.7734H230.759V20.6406ZM252.12 20.1484H253.748C255.123 20.1484 256.229 19.9023 257.065 19.4102C258.088 18.8086 258.6 17.9844 258.6 16.9375C258.6 16.0703 258.225 15.3828 257.475 14.875C256.811 14.4297 255.983 14.207 254.991 14.207C253.194 14.207 251.467 14.8945 249.811 16.2695L248.112 14.1719C250.12 12.5625 252.483 11.7578 255.202 11.7578C257.022 11.7578 258.518 12.1328 259.69 12.8828C261.104 13.7969 261.811 15.0898 261.811 16.7617C261.811 18.043 261.323 19.1406 260.346 20.0547C259.588 20.7578 258.588 21.1992 257.346 21.3789V21.4727C258.955 21.7383 260.186 22.2695 261.038 23.0664C261.92 23.8945 262.362 25 262.362 26.3828C262.362 28.3984 261.545 29.9062 259.913 30.9062C258.686 31.6562 257.077 32.0312 255.084 32.0312C251.944 32.0312 249.397 31.0703 247.444 29.1484L249.213 27.0391C249.838 27.7031 250.643 28.25 251.627 28.6797C252.823 29.2031 253.983 29.4648 255.108 29.4648C256.373 29.4648 257.362 29.1992 258.073 28.668C258.76 28.1602 259.104 27.3828 259.104 26.3359C259.104 24.8984 258.413 23.8789 257.03 23.2773C256.1 22.8711 254.983 22.668 253.678 22.668H252.12V20.1484ZM269.941 12.8828H284.074L285.633 14.2539C284.312 17.3789 282.738 20.2188 280.91 22.7734C283.504 24.8047 285.977 27.0938 288.328 29.6406L286.383 31.8438C284.078 29.2266 281.734 26.8594 279.352 24.7422C276.789 27.7656 273.547 30.1562 269.625 31.9141L268.219 29.4883C271.133 28.3008 273.559 26.8203 275.496 25.0469C277.309 23.3906 278.969 21.3477 280.477 18.918C281.281 17.6133 281.906 16.4023 282.352 15.2852H269.941V12.8828ZM293.259 18.8125H314.259V21.2148H305.576C305.482 23.2695 305.24 24.9141 304.849 26.1484C304.255 28.0234 303.255 29.5195 301.849 30.6367C300.99 31.3086 299.814 31.9531 298.322 32.5703L296.646 30.4727C299.209 29.4414 300.92 28.1094 301.779 26.4766C302.404 25.3125 302.755 23.5586 302.834 21.2148H293.259V18.8125ZM295.826 12.1328H311.423V14.5352H295.826V12.1328ZM321.464 23.9688C320.902 21.5625 320.14 19.3398 319.179 17.3008L321.405 16.2109C322.398 18.2422 323.206 20.5234 323.831 23.0547L321.464 23.9688ZM326.902 22.9141C326.464 21 325.745 18.7852 324.745 16.2695L327.054 15.3086C327.952 17.2852 328.702 19.5234 329.304 22.0234L326.902 22.9141ZM323.257 30.2031C325.866 29.5078 327.859 28.5703 329.234 27.3906C330.609 26.2109 331.655 24.5078 332.374 22.2812C332.937 20.5156 333.347 18.2461 333.605 15.4727L336.101 16.2109C335.632 19.875 334.98 22.6836 334.144 24.6367C333.128 27.0273 331.605 28.8711 329.573 30.168C328.284 30.9961 326.636 31.7305 324.628 32.3711L323.257 30.2031ZM341.97 14.1484H357.016L359.923 16.7852C359.61 20.2148 358.934 22.9141 357.895 24.8828C356.677 27.1953 354.79 28.9961 352.235 30.2852C350.641 31.0898 348.516 31.8086 345.86 32.4414L344.513 30.0625C347.122 29.5859 349.188 28.9688 350.712 28.2109C353.196 26.9844 354.954 25.1172 355.985 22.6094C356.626 21.0469 356.993 19.043 357.087 16.5977H341.97V14.1484ZM361.083 10C361.606 10 362.106 10.1445 362.583 10.4336C363.052 10.707 363.415 11.0898 363.673 11.582C363.907 12.0195 364.024 12.4766 364.024 12.9531C364.024 13.7188 363.751 14.3945 363.204 14.9805C362.626 15.5977 361.911 15.9062 361.059 15.9062C360.638 15.9062 360.231 15.8125 359.841 15.625C359.356 15.3984 358.962 15.0703 358.657 14.6406C358.298 14.125 358.118 13.5586 358.118 12.9414C358.118 12.4648 358.239 12.0039 358.481 11.5586C358.723 11.1133 359.048 10.7539 359.454 10.4805C359.946 10.1602 360.489 10 361.083 10ZM361.071 11.4414C360.782 11.4414 360.509 11.5234 360.251 11.6875C359.79 11.9766 359.559 12.4023 359.559 12.9648C359.559 13.3633 359.696 13.707 359.97 13.9961C360.266 14.3086 360.634 14.4648 361.071 14.4648C361.321 14.4648 361.552 14.4102 361.763 14.3008C362.309 14.0195 362.583 13.5742 362.583 12.9648C362.583 12.5352 362.43 12.1719 362.126 11.875C361.845 11.5859 361.493 11.4414 361.071 11.4414Z" fill="#123758"/>
<path d="M188.5 44H200L188.5 61L177 44H188.5Z" fill="white"/>
</svg>
