<svg width="240" height="160" viewBox="0 0 240 160" fill="none" xmlns="http://www.w3.org/2000/svg">
<path d="M92.4238 40.5H94.4238V38.5V26C94.4238 22.6863 97.1101 20 100.424 20H143.924C147.238 20 149.924 22.6863 149.924 26V38.5V40.5H151.924H193.424C195.081 40.5 196.424 41.8431 196.424 43.5V137C196.424 138.657 195.081 140 193.424 140H46C44.3431 140 43 138.657 43 137V43.5C43 41.8431 44.3431 40.5 46 40.5H92.4238Z" fill="#123758" stroke="white" stroke-width="4"/>
<circle cx="122.424" cy="87.5" r="35" stroke="white" stroke-width="4"/>
<circle cx="122.424" cy="87.5" r="28" fill="white"/>
<ellipse cx="135.954" cy="75.9762" rx="9.88896" ry="6.37998" transform="rotate(44.3766 135.954 75.9762)" fill="#123758"/>
</svg>
