<svg width="240" height="160" viewBox="0 0 240 160" fill="none" xmlns="http://www.w3.org/2000/svg">
<rect x="71.5" y="38.5" width="124" height="54" fill="#123758" stroke="white" stroke-width="3"/>
<path d="M133.499 48.5415C130.145 48.5415 126.867 49.5361 124.078 51.3995C121.289 53.2629 119.115 55.9114 117.832 59.0102C116.548 62.1089 116.213 65.5186 116.867 68.8082C117.521 72.0978 119.136 75.1195 121.508 77.4912C123.88 79.8629 126.901 81.478 130.191 82.1323C133.481 82.7867 136.89 82.4508 139.989 81.1673C143.088 79.8838 145.736 77.7102 147.6 74.9214C149.463 72.1326 150.458 68.8539 150.458 65.4998C150.458 61.0022 148.671 56.6888 145.491 53.5085C142.31 50.3282 137.997 48.5415 133.499 48.5415ZM133.499 79.3748C130.755 79.3748 128.073 78.5611 125.791 77.0365C123.509 75.5119 121.731 73.3449 120.681 70.8096C119.63 68.2742 119.356 65.4844 119.891 62.793C120.426 60.1015 121.748 57.6292 123.688 55.6887C125.629 53.7483 128.101 52.4268 130.792 51.8914C133.484 51.3561 136.274 51.6308 138.809 52.681C141.344 53.7312 143.511 55.5096 145.036 57.7913C146.561 60.073 147.374 62.7556 147.374 65.4998C147.374 69.1797 145.913 72.7089 143.31 75.3109C140.708 77.913 137.179 79.3748 133.499 79.3748ZM137.862 56.9436L133.499 63.4957L129.136 56.9436C129.024 56.7741 128.88 56.6285 128.712 56.515C128.543 56.4015 128.354 56.3224 128.155 56.2823C127.956 56.2422 127.75 56.2418 127.551 56.2812C127.352 56.3206 127.162 56.399 126.994 56.5119C126.656 56.738 126.421 57.0884 126.34 57.4868C126.259 57.8853 126.339 58.2995 126.562 58.6394L129.815 63.5265H128.874C128.465 63.5265 128.073 63.6889 127.784 63.978C127.495 64.2672 127.333 64.6593 127.333 65.0682C127.333 65.477 127.495 65.8692 127.784 66.1583C128.073 66.4474 128.465 66.6098 128.874 66.6098H131.958L132.035 66.7332V68.1515H128.874C128.465 68.1515 128.073 68.3139 127.784 68.603C127.495 68.8922 127.333 69.2843 127.333 69.6932C127.333 70.102 127.495 70.4942 127.784 70.7833C128.073 71.0724 128.465 71.2348 128.874 71.2348H131.958V74.7498C131.958 75.1587 132.12 75.5508 132.409 75.84C132.698 76.1291 133.09 76.2915 133.499 76.2915C133.908 76.2915 134.3 76.1291 134.589 75.84C134.879 75.5508 135.041 75.1587 135.041 74.7498V71.2348H138.124C138.533 71.2348 138.925 71.0724 139.214 70.7833C139.504 70.4942 139.666 70.102 139.666 69.6932C139.666 69.2843 139.504 68.8922 139.214 68.603C138.925 68.3139 138.533 68.1515 138.124 68.1515H135.041V66.7332L135.118 66.6098H138.124C138.533 66.6098 138.925 66.4474 139.214 66.1583C139.504 65.8692 139.666 65.477 139.666 65.0682C139.666 64.6593 139.504 64.2672 139.214 63.978C138.925 63.6889 138.533 63.5265 138.124 63.5265H137.184L140.437 58.6394C140.66 58.2995 140.74 57.8853 140.659 57.4868C140.578 57.0884 140.343 56.738 140.005 56.5119C139.836 56.399 139.647 56.3206 139.448 56.2812C139.248 56.2418 139.043 56.2422 138.844 56.2823C138.645 56.3224 138.456 56.4015 138.287 56.515C138.119 56.6285 137.974 56.7741 137.862 56.9436Z" fill="white"/>
<rect x="44.5" y="67.5" width="124" height="54" fill="#123758" stroke="white" stroke-width="3"/>
<path d="M106.499 77.5415C103.145 77.5415 99.8666 78.5361 97.0778 80.3995C94.289 82.2629 92.1154 84.9114 90.8319 88.0102C89.5484 91.1089 89.2125 94.5186 89.8669 97.8082C90.5212 101.098 92.1363 104.12 94.508 106.491C96.8797 108.863 99.9014 110.478 103.191 111.132C106.481 111.787 109.89 111.451 112.989 110.167C116.088 108.884 118.736 106.71 120.6 103.921C122.463 101.133 123.458 97.8539 123.458 94.4998C123.458 90.0022 121.671 85.6888 118.491 82.5085C115.31 79.3282 110.997 77.5415 106.499 77.5415ZM106.499 108.375C103.755 108.375 101.073 107.561 98.7908 106.036C96.5091 104.512 94.7307 102.345 93.6805 99.8096C92.6304 97.2742 92.3556 94.4844 92.891 91.793C93.4263 89.1015 94.7478 86.6292 96.6882 84.6887C98.6287 82.7483 101.101 81.4268 103.792 80.8914C106.484 80.3561 109.274 80.6308 111.809 81.681C114.344 82.7312 116.511 84.5096 118.036 86.7913C119.561 89.073 120.374 91.7556 120.374 94.4998C120.374 98.1797 118.913 101.709 116.31 104.311C113.708 106.913 110.179 108.375 106.499 108.375ZM110.862 85.9436L106.499 92.4957L102.136 85.9436C102.024 85.7741 101.88 85.6285 101.712 85.515C101.543 85.4015 101.354 85.3224 101.155 85.2823C100.956 85.2422 100.75 85.2418 100.551 85.2812C100.352 85.3206 100.162 85.399 99.9935 85.5119C99.6556 85.738 99.4206 86.0884 99.3397 86.4868C99.2589 86.8853 99.3387 87.2995 99.5619 87.6394L102.815 92.5265H101.874C101.465 92.5265 101.073 92.6889 100.784 92.978C100.495 93.2672 100.333 93.6593 100.333 94.0682C100.333 94.477 100.495 94.8692 100.784 95.1583C101.073 95.4474 101.465 95.6098 101.874 95.6098H104.958L105.035 95.7332V97.1515H101.874C101.465 97.1515 101.073 97.3139 100.784 97.603C100.495 97.8922 100.333 98.2843 100.333 98.6932C100.333 99.102 100.495 99.4942 100.784 99.7833C101.073 100.072 101.465 100.235 101.874 100.235H104.958V103.75C104.958 104.159 105.12 104.551 105.409 104.84C105.698 105.129 106.09 105.292 106.499 105.292C106.908 105.292 107.3 105.129 107.589 104.84C107.879 104.551 108.041 104.159 108.041 103.75V100.235H111.124C111.533 100.235 111.925 100.072 112.214 99.7833C112.504 99.4942 112.666 99.102 112.666 98.6932C112.666 98.2843 112.504 97.8922 112.214 97.603C111.925 97.3139 111.533 97.1515 111.124 97.1515H108.041V95.7332L108.118 95.6098H111.124C111.533 95.6098 111.925 95.4474 112.214 95.1583C112.504 94.8692 112.666 94.477 112.666 94.0682C112.666 93.6593 112.504 93.2672 112.214 92.978C111.925 92.6889 111.533 92.5265 111.124 92.5265H110.184L113.437 87.6394C113.66 87.2995 113.74 86.8853 113.659 86.4868C113.578 86.0884 113.343 85.738 113.005 85.5119C112.836 85.399 112.647 85.3206 112.448 85.2812C112.248 85.2418 112.043 85.2422 111.844 85.2823C111.645 85.3224 111.456 85.4015 111.287 85.515C111.119 85.6285 110.974 85.7741 110.862 85.9436Z" fill="white"/>
</svg>
