<svg width="457" height="228" viewBox="0 0 457 228" fill="none" xmlns="http://www.w3.org/2000/svg">
<path d="M22.9335 57.8232C23.5387 51.6813 28.704 47 34.8756 47H103V184H10.5L22.9335 57.8232Z" fill="#456B8E"/>
<path d="M0 118.545C0 114.466 2.07295 110.665 5.50319 108.456L36.6693 88.3872C46.2678 82.2063 58.2598 91.6563 54.4947 102.434L28.8096 175.958C27.127 180.774 22.5829 184 17.481 184H12C5.37258 184 0 178.627 0 172V118.545Z" fill="#456B8E"/>
<rect x="71" y="162" width="51" height="27" fill="#123758"/>
<circle cx="73.5" cy="194.5" r="32.5" fill="#123758"/>
<circle cx="73.5" cy="194.5" r="20.5" fill="#456B8E"/>
<circle cx="368.5" cy="195.5" r="32.5" fill="#123758"/>
<circle cx="368.5" cy="195.5" r="20.5" fill="#456B8E"/>
<path d="M127.083 15.7068H144.787V18.8481H127.083V15.7068ZM146.959 37.971C143.842 38.4439 140.531 38.6804 137.028 38.6804C133.428 38.6804 130.538 38.3426 128.357 37.667C127.508 37.4065 126.721 36.9915 125.997 36.4221C124.887 35.5342 124.333 34.3038 124.333 32.7307C124.333 30.7523 125.095 29.02 126.62 27.5338L129.139 29.1985C128.212 30.2891 127.749 31.3169 127.749 32.2819C127.749 33.3628 128.4 34.1301 129.703 34.5836C130.398 34.8346 131.503 35.0372 133.018 35.1916C134.273 35.3267 135.571 35.3943 136.912 35.3943C140.3 35.3943 143.499 35.1482 146.51 34.656L146.959 37.971ZM152.659 38.1158C156.385 29.4881 160.394 21.1498 164.689 13.1011L167.512 14.2302C165.572 17.7914 163.28 22.1294 160.636 27.2443C162.46 25.2659 164.144 24.2767 165.688 24.2767C168.12 24.2767 169.336 26.1103 169.336 29.7776C169.336 30.0478 169.326 30.3807 169.307 30.7764C169.268 31.616 169.249 32.2771 169.249 32.7597C169.249 33.8888 169.317 34.6898 169.452 35.1627C169.751 36.1857 170.499 36.6972 171.695 36.6972C172.854 36.6972 173.794 36.1326 174.518 35.0034C175.599 33.3242 176.487 30.2408 177.182 25.7532L180.019 27.418C179.469 30.9598 178.769 33.662 177.92 35.5246C176.608 38.4198 174.485 39.8674 171.551 39.8674C169.524 39.8674 168.072 39.2401 167.193 37.9855C166.499 36.9915 166.151 35.3316 166.151 33.0057C166.151 32.8031 166.161 32.4943 166.18 32.0793C166.219 31.2686 166.238 30.6944 166.238 30.3566C166.238 29.295 166.141 28.5278 165.948 28.0549C165.726 27.5338 165.345 27.2732 164.805 27.2732C163.888 27.2732 162.855 27.833 161.707 28.9524C160.723 29.9175 159.753 31.3313 158.797 33.1939C158.102 34.545 157.046 36.8371 155.627 40.0701L152.659 38.1158ZM201.745 23.1186H205.031V31.0659C207.289 32.06 209.601 33.3725 211.965 35.0034L210.3 37.7105C208.64 36.4945 206.884 35.3653 205.031 34.3231C204.925 36.0313 204.37 37.3438 203.366 38.2606C202.247 39.2739 200.679 39.7806 198.662 39.7806C196.712 39.7806 195.105 39.3366 193.841 38.4488C192.606 37.5705 191.988 36.3449 191.988 34.7718C191.988 33.1216 192.765 31.7994 194.319 30.8054C195.525 30.0333 197.069 29.6473 198.951 29.6473C199.829 29.6473 200.761 29.7534 201.745 29.9658V23.1186ZM201.745 32.9334C200.597 32.5377 199.511 32.3398 198.488 32.3398C197.484 32.3398 196.678 32.5184 196.07 32.8755C195.289 33.3387 194.898 33.9563 194.898 34.7284C194.898 35.6742 195.457 36.3642 196.577 36.7985C197.137 37.0108 197.807 37.117 198.589 37.117C199.844 37.117 200.746 36.5862 201.296 35.5246C201.595 34.9552 201.745 34.2893 201.745 33.5269V32.9334ZM186.212 17.5742H191.742C192.234 15.9046 192.63 14.4329 192.929 13.159L196.099 13.5499C195.713 14.9685 195.318 16.31 194.912 17.5742H200.196V20.4839H193.971C192.244 25.4347 190.217 29.6232 187.891 33.0492L185.199 31.5147C187.399 28.2528 189.257 24.5758 190.772 20.4839H186.212V17.5742ZM210.387 24.6241C208.245 22.2403 205.784 20.0689 203.004 18.1098L204.915 16.0253C207.675 17.8107 210.194 19.8904 212.472 22.2645L210.387 24.6241ZM230.419 20.455C230.352 22.0666 230.255 23.4853 230.13 24.7109H241.797C241.653 31.4085 241.276 35.7562 240.668 37.7539C240.359 38.7576 239.785 39.4524 238.946 39.8385C238.289 40.1376 237.329 40.2872 236.065 40.2872C234.733 40.2872 233.223 40.1859 231.534 39.9832L230.969 36.7261C233.237 37.0446 234.834 37.2038 235.761 37.2038C236.543 37.2038 237.04 36.9818 237.252 36.5379C237.763 35.457 238.12 32.475 238.323 27.5917H229.71C229.391 29.3288 228.943 30.8343 228.364 32.1082C226.752 35.6307 224.059 38.4246 220.286 40.4899L217.999 37.9421C221.782 35.9733 224.281 33.3918 225.497 30.1974C226.308 28.0646 226.834 24.8171 227.075 20.455H217.492V17.4874H229.319V12.6523H232.663V17.4874H244.881V20.455H230.419ZM267.982 13.7236H271.152V18.9639H277.058V21.8447H271.152V30.733C273.439 31.7849 275.702 33.2615 277.941 35.1627L276.32 38.029C274.428 36.3787 272.696 35.0662 271.123 34.0915C270.949 36.4559 270.11 38.0386 268.604 38.8396C267.765 39.2835 266.616 39.5055 265.159 39.5055C263.576 39.5055 262.201 39.2208 261.033 38.6514C259.267 37.7925 258.384 36.3642 258.384 34.3665C258.384 32.7934 259.055 31.5437 260.396 30.6172C261.622 29.7679 263.195 29.3433 265.116 29.3433C265.994 29.3433 266.949 29.4543 267.982 29.6762V21.8447H258.674V18.9639H267.982V13.7236ZM267.982 32.4846C266.853 32.1275 265.849 31.949 264.971 31.949C264.131 31.949 263.417 32.0793 262.828 32.3398C261.902 32.7355 261.439 33.3821 261.439 34.2796C261.439 35.0131 261.776 35.5873 262.452 36.0023C263.108 36.4076 263.986 36.6103 265.087 36.6103C267.017 36.6103 267.982 35.5246 267.982 33.3532V32.4846ZM252.261 39.4476C251.923 36.2629 251.754 32.9141 251.754 29.4012C251.754 23.9196 252.121 18.6937 252.854 13.7236L256.039 14.1868C255.315 18.4717 254.953 23.1041 254.953 28.0839C254.953 31.7415 255.137 35.3653 255.503 38.9554L252.261 39.4476Z" fill="#BDF4C3"/>
<path d="M151.959 92.0032V101.867C151.959 103.216 152.51 104.033 153.612 104.318C154.563 104.565 156.948 104.689 160.767 104.689C166.849 104.689 170.222 104.204 170.887 103.235C171.344 102.57 171.648 99.9281 171.8 95.31L178.1 97.1914C177.891 101.144 177.606 103.833 177.244 105.259C176.693 107.387 175.496 108.784 173.653 109.449C171.657 110.171 167.144 110.533 160.112 110.533C153.859 110.533 150.087 110.314 148.795 109.877C146.59 109.117 145.488 107.397 145.488 104.717V92.4878L124.45 94.0842L123.937 88.6679L145.488 86.986V80.2014C139.767 81.1326 134.921 81.8072 130.949 82.2253L128.726 77.0941C142.713 75.7448 154.876 73.3122 165.215 69.7964L169.89 74.1864C163.656 76.2199 157.679 77.8068 151.959 78.9471V86.4728L179.097 84.3348L179.496 89.8937L151.959 92.0032ZM154.753 62.3276H177.644V74.5285H171.229V67.5728H131.748V74.5285H125.391V62.3276H148.339V56.0846H154.753V62.3276ZM197.621 69.7964V63.6104H188.328V58.3081H217.633V63.6104H208.739V69.7964H216.578V110.96H211.333V108.224H195.369V111.559H189.953V69.7964H197.621ZM201.755 69.7964H204.548V63.6104H201.755V69.7964ZM198.049 74.6995H195.369V87.4136C196.965 84.4869 197.859 80.2489 198.049 74.6995ZM201.698 74.6995C201.679 81.6172 200.491 87.1855 198.134 91.4045L195.369 88.8959V93.7421H211.333V88.1833H207.998C206.667 88.1833 205.755 87.9267 205.261 87.4136C204.786 86.9195 204.548 86.0738 204.548 84.8765V74.6995H201.698ZM208.226 74.6995V82.71C208.226 83.2421 208.302 83.5652 208.454 83.6792C208.587 83.7742 208.9 83.8217 209.394 83.8217H211.333V74.6995H208.226ZM195.369 98.3032V103.149H211.333V98.3032H195.369ZM226.612 83.6507V102.608C226.612 103.634 226.917 104.242 227.525 104.432C228.418 104.717 229.872 104.86 231.886 104.86C233.692 104.86 234.984 104.679 235.763 104.318C236.39 104.033 236.799 103.33 236.989 102.209C237.179 101.011 237.341 98.7308 237.474 95.367L237.531 94.1982L243.66 95.7946C243.507 100.698 243.232 104.109 242.833 106.029C242.282 108.632 240.695 110.114 238.072 110.476C236.324 110.704 233.625 110.818 229.976 110.818C226.137 110.818 223.6 110.428 222.365 109.649C221.187 108.908 220.598 107.321 220.598 104.888V78.0919H235.25V64.152H219.913V58.5362H241.208V83.6507H226.612ZM290.205 101.268C295.869 102.522 301.665 104.451 307.595 107.055L303.347 111.901C296.467 108.841 290.12 106.466 284.305 104.774L287.469 101.268H271.106L274.783 104.66C268.949 107.853 262.782 110.362 256.282 112.186L252.32 106.684C258.116 105.582 263.865 103.776 269.567 101.268H258.848V74.1294H301.067V101.268H290.205ZM265.205 78.3199V81.8262H294.709V78.3199H265.205ZM265.205 85.7317V89.181H294.709V85.7317H265.205ZM265.205 93.1434V96.8208H294.709V93.1434H265.205ZM305.086 58.0801V71.6208H254.828V58.0801H305.086ZM260.957 62.6412V67.2878H269.823V62.6412H260.957ZM298.957 67.2878V62.6412H290.034V67.2878H298.957ZM275.439 62.6412V67.2878H284.305V62.6412H275.439ZM346.102 61.7575H368.166L371.045 64.6937C370.266 70.471 369.268 75.4122 368.052 79.5172C366.721 84.0973 364.84 88.5538 362.407 92.8869C365.467 97.581 368.926 101.41 372.784 104.375L369.049 110.846C365.116 107.273 361.723 103.168 358.873 98.5312C356.573 101.762 354.502 104.318 352.658 106.2C350.758 108.157 348.686 109.848 346.444 111.274L342.424 105.772C347.365 102.959 351.717 98.5597 355.48 92.5733C355.404 92.4213 355.328 92.2787 355.252 92.1457C353.048 87.7367 351.271 82.4724 349.921 76.3529C349.161 72.9131 348.648 69.9769 348.382 67.5443H345.047V63.981H342.31V111.559H336.466V99.9566L334.613 100.413C328.893 101.895 323.42 103.102 318.193 104.033L316.312 97.9611C318.897 97.619 320.683 97.3719 321.671 97.2199V63.981H317.481V58.4222H346.102V61.7575ZM336.466 63.981H327.344V70.7941H336.466V63.981ZM336.466 75.6403H327.344V82.5389H336.466V75.6403ZM336.466 87.271H327.344V96.3362C328.332 96.1652 329.073 96.0416 329.568 95.9656C331.088 95.7186 333.388 95.31 336.466 94.7398V87.271ZM353.912 67.5443C354.692 74.7281 356.326 81.0376 358.816 86.4728C361.476 80.8285 363.367 74.519 364.488 67.5443H353.912ZM381.929 68.6846H394.529C395.099 65.7579 395.736 62.1185 396.439 57.7665L396.581 56.9398L402.824 57.8805C402.178 61.9095 401.513 65.5109 400.829 68.6846H404.278C408.839 68.6846 412.108 69.7109 414.085 71.7633C415.852 73.6068 416.736 76.4765 416.736 80.3724C416.736 86.929 416.042 93.0579 414.655 98.7593C413.856 101.99 412.887 104.375 411.747 105.914C410.303 107.834 408.298 108.794 405.732 108.794C402.653 108.794 399.289 107.805 395.641 105.829L396.353 99.814C399.964 101.543 402.767 102.408 404.763 102.408C405.808 102.408 406.616 101.848 407.186 100.726C407.794 99.51 408.374 97.752 408.925 95.4525C410.008 90.7964 410.55 85.9027 410.55 80.7715C410.55 78.0728 410.008 76.3244 408.925 75.5262C407.994 74.8611 406.331 74.5285 403.936 74.5285H399.546C396.524 87.9837 392.191 99.4624 386.547 108.965L380.817 105.829C386.651 96.0416 390.813 85.6081 393.303 74.5285H381.929V68.6846ZM429.279 96.8208C427.131 88.9149 423.739 81.1516 419.102 73.5308L424.661 71.0222C429.45 78.662 433.032 86.3493 435.408 94.0842L429.279 96.8208ZM425.06 69.5113C423.881 66.4326 421.981 63.0118 419.358 59.2489L423.777 57.5955C426.076 60.8452 428.005 64.2185 429.564 67.7154L425.06 69.5113ZM432.728 67.0597C431.246 63.3919 429.355 59.9425 427.055 56.7118L431.246 55.3149C433.431 57.9185 435.341 61.1683 436.975 65.0643L432.728 67.0597Z" fill="#BDF4C3"/>
<path d="M128.872 135.86H130.761V126.979H135.125V135.86H138.86V140.181H135.125V147.65C136.761 147.1 138.209 146.579 139.468 146.087L139.707 149.388H154.95V144.719H138.057V140.724H149.131V135.729H140.141V131.777H149.131V126.979H153.756V131.777H163.05V135.729H153.756V140.724H165.482V144.719H159.532V149.388H164.461V153.47H159.532V165.217C159.532 166.824 159.098 167.917 158.229 168.496C157.549 168.959 156.369 169.191 154.69 169.191C152.721 169.191 150.998 169.104 149.522 168.93L148.632 164.696C150.673 164.899 152.287 165 153.474 165C154.14 165 154.567 164.855 154.755 164.566C154.885 164.363 154.95 164.03 154.95 163.567V153.47H138.904V150.3C137.528 150.908 136.269 151.429 135.125 151.863V169.234H130.674V153.47C128.372 154.251 126.1 154.946 123.856 155.554L122.705 151.081C125.745 150.372 128.401 149.684 130.674 149.018V140.181H128.22C127.772 142.627 127.164 145.016 126.396 147.346L122.575 144.98C123.979 140.941 124.912 136.084 125.376 130.409L129.328 130.844C129.168 132.899 129.016 134.571 128.872 135.86ZM146.308 163.719C144.875 160.737 143.362 158.167 141.77 156.01L145.787 153.795C147.626 156.126 149.182 158.631 150.456 161.309L146.308 163.719ZM175.922 167.367C175.372 162.445 175.097 157.552 175.097 152.688C175.097 144.35 175.712 136.431 176.943 128.933L181.72 129.432C180.547 135.918 179.961 143.235 179.961 151.385C179.961 156.857 180.265 161.974 180.873 166.737L175.922 167.367ZM188.95 132.972H209.818V137.597H188.95V132.972ZM211.294 164.696C208.399 165.145 204.961 165.369 200.98 165.369C190.977 165.369 185.976 162.43 185.976 156.553C185.976 154.223 186.598 152.189 187.843 150.452L191.947 152.276C191.165 153.376 190.774 154.613 190.774 155.989C190.774 157.682 191.621 158.848 193.315 159.485C195.197 160.208 197.766 160.57 201.024 160.57C204.541 160.57 207.798 160.339 210.795 159.875L211.294 164.696ZM233.786 128.086H238.585V134.492H248.508V138.9H238.585V146.022C241.538 145.428 244.31 145.132 246.901 145.132C249.738 145.132 252.17 145.696 254.197 146.825C256.122 147.896 257.534 149.388 258.431 151.298C259.054 152.616 259.365 154.034 259.365 155.554C259.365 159.723 257.715 162.778 254.414 164.718C252.272 165.977 249.174 166.846 245.121 167.323L243.34 163.133C246.785 162.814 249.434 162.17 251.287 161.2C253.415 160.071 254.479 158.175 254.479 155.511C254.479 153.209 253.647 151.487 251.982 150.343C250.708 149.474 248.971 149.04 246.771 149.04C244.426 149.04 241.697 149.395 238.585 150.104V161.569C238.585 163.133 238.194 164.399 237.412 165.369C236.399 166.643 234.915 167.28 232.961 167.28C231.18 167.28 229.327 166.773 227.402 165.76C226.403 165.224 225.491 164.522 224.666 163.654C223.102 161.989 222.321 160.158 222.321 158.16C222.321 156.264 223.023 154.577 224.427 153.101C226.526 150.9 229.646 148.997 233.786 147.39V138.9H224.492V134.492H233.786V128.086ZM233.786 151.668C231.933 152.435 230.391 153.354 229.161 154.425C227.713 155.685 226.989 156.908 226.989 158.095C226.989 159.224 227.496 160.23 228.509 161.113C229.552 162.04 230.71 162.503 231.984 162.503C233.185 162.503 233.786 161.75 233.786 160.245V151.668ZM259.322 143.612C256.673 139.529 253.719 135.896 250.462 132.711L253.85 129.997C257.252 133.08 260.248 136.627 262.839 140.637L259.322 143.612ZM291.997 127.869H296.883V133.862H309.694V138.053H296.883V147.346C297.389 149.127 297.643 150.712 297.643 152.102C297.643 157.255 296.506 161.041 294.234 163.458C291.758 166.107 288.031 167.939 283.051 168.952L280.575 165.261C284.441 164.522 287.307 163.48 289.174 162.134C290.926 160.86 292.106 159.13 292.714 156.944C291.165 158.638 289.319 159.485 287.177 159.485C284.774 159.485 282.827 158.804 281.335 157.443C279.584 155.837 278.708 153.506 278.708 150.452C278.708 148.845 279.092 147.296 279.859 145.805C280.366 144.849 280.988 144.053 281.726 143.416C283.435 141.969 285.483 141.245 287.871 141.245C289.391 141.245 290.767 141.607 291.997 142.33V138.053H270.565V133.862H291.997V127.869ZM292.171 150.408V149.605C292.171 148.678 291.954 147.86 291.519 147.151C290.709 145.819 289.536 145.153 288.002 145.153C287.22 145.153 286.489 145.37 285.809 145.805C284.216 146.804 283.42 148.338 283.42 150.408C283.42 151.711 283.71 152.811 284.289 153.709C285.099 154.954 286.294 155.576 287.871 155.576C289.305 155.576 290.441 154.932 291.281 153.643C291.874 152.732 292.171 151.653 292.171 150.408ZM339.612 127.869H344.498V133.862H357.309V138.053H344.498V147.346C345.004 149.127 345.258 150.712 345.258 152.102C345.258 157.255 344.121 161.041 341.848 163.458C339.373 166.107 335.645 167.939 330.666 168.952L328.19 165.261C332.055 164.522 334.922 163.48 336.789 162.134C338.541 160.86 339.72 159.13 340.328 156.944C338.78 158.638 336.934 159.485 334.791 159.485C332.388 159.485 330.441 158.804 328.95 157.443C327.199 155.837 326.323 153.506 326.323 150.452C326.323 148.845 326.706 147.296 327.474 145.805C327.98 144.849 328.603 144.053 329.341 143.416C331.049 141.969 333.098 141.245 335.486 141.245C337.006 141.245 338.381 141.607 339.612 142.33V138.053H318.18V133.862H339.612V127.869ZM339.786 150.408V149.605C339.786 148.678 339.568 147.86 339.134 147.151C338.324 145.819 337.151 145.153 335.617 145.153C334.835 145.153 334.104 145.37 333.423 145.805C331.831 146.804 331.035 148.338 331.035 150.408C331.035 151.711 331.324 152.811 331.903 153.709C332.714 154.954 333.908 155.576 335.486 155.576C336.919 155.576 338.056 154.932 338.895 153.643C339.489 152.732 339.786 151.653 339.786 150.408ZM374.481 130.17C374.929 132.212 375.595 134.738 376.478 137.749C379.952 135.852 383.796 134.854 388.008 134.752C388.385 132.639 388.696 130.474 388.942 128.26L393.741 129.193C393.422 131.481 393.097 133.5 392.764 135.252C395.949 136.004 398.496 137.293 400.407 139.117C403.433 142.026 404.945 145.783 404.945 150.386C404.945 155.96 403.15 160.129 399.56 162.894C396.897 164.949 393.625 166.288 389.746 166.911L387.466 162.872C391.287 162.148 394.269 160.925 396.412 159.202C398.757 157.32 399.929 154.288 399.929 150.104C399.929 147.05 399.039 144.502 397.259 142.461C395.985 140.999 394.219 139.927 391.96 139.247C390.875 143.764 389.767 147.317 388.638 149.909C387.104 153.455 385.034 156.64 382.428 159.463C378.91 163.27 375.639 165.174 372.613 165.174C370.239 165.174 368.458 164.016 367.271 161.699C366.432 160.035 366.012 158.015 366.012 155.641C366.012 149.851 368.241 144.82 372.7 140.55C371.889 138.017 371.079 135.078 370.268 131.734L374.481 130.17ZM374.22 144.936C371.672 148.15 370.398 151.559 370.398 155.163C370.398 156.799 370.63 158.124 371.093 159.137C371.542 160.136 372.201 160.635 373.069 160.635C374.575 160.635 376.616 159.202 379.192 156.336C377.397 153.079 375.74 149.279 374.22 144.936ZM387.205 138.726C383.76 138.914 380.618 139.92 377.781 141.744C379.156 145.826 380.626 149.351 382.189 152.319C384.462 148.656 386.134 144.125 387.205 138.726ZM431.389 128.759H438.055L436.991 156.857H432.453L431.389 128.759ZM431.389 160.766H438.055V167.454H431.389V160.766Z" fill="#BDF4C3"/>
</svg>
