<svg
    width="80"
    height="80"
    viewBox="0 0 80 80"
    fill="none"
    xmlns="http://www.w3.org/2000/svg"
>
    <g clip-path="url(#clip0_306_884)">
        <path
            d="M-0.457748 20.3751C-0.0704041 19.9845 0.390434 19.6746 0.898178 19.463C1.40593 19.2515 1.95053 19.1426 2.50058 19.1426C3.05063 19.1426 3.59524 19.2515 4.10299 19.463C4.61073 19.6746 5.07156 19.9845 5.45892 20.3751L31.6672 46.6251L49.5422 28.7084C49.9296 28.3179 50.3904 28.0079 50.8982 27.7964C51.4059 27.5848 51.9505 27.4759 52.5006 27.4759C53.0506 27.4759 53.5952 27.5848 54.103 27.7964C54.6107 28.0079 55.0716 28.3179 55.4589 28.7084L80.4589 53.7084C80.8494 54.0957 81.1594 54.5566 81.371 55.0643C81.5825 55.5721 81.6914 56.1167 81.6914 56.6667C81.6914 57.2168 81.5825 57.7614 81.371 58.2691C81.1594 58.7769 80.8494 59.2377 80.4589 59.6251C80.0716 60.0156 79.6107 60.3256 79.103 60.5371C78.5952 60.7487 78.0506 60.8576 77.5006 60.8576C76.9505 60.8576 76.4059 60.7487 75.8982 60.5371C75.3904 60.3256 74.9296 60.0156 74.5422 59.6251L52.5006 37.5417L34.6256 55.4584C34.2382 55.8489 33.7774 56.1589 33.2697 56.3704C32.7619 56.582 32.2173 56.6909 31.6672 56.6909C31.1172 56.6909 30.5726 56.582 30.0648 56.3704C29.5571 56.1589 29.0963 55.8489 28.7089 55.4584L-0.457748 26.2917C-0.848282 25.9044 -1.15826 25.4436 -1.3698 24.9358C-1.58134 24.4281 -1.69025 23.8835 -1.69025 23.3334C-1.69025 22.7834 -1.58134 22.2387 -1.3698 21.731C-1.15826 21.2233 -0.848282 20.7624 -0.457748 20.3751Z"
            fill="#0EBC20"
        />
    </g>
    <defs>
        <clipPath id="clip0_306_884">
            <rect width="80" height="80" fill="white" />
        </clipPath>
    </defs>
</svg>