<svg
    width="80"
    height="80"
    viewBox="0 0 80 80"
    fill="none"
    xmlns="http://www.w3.org/2000/svg"
>
    <g clip-path="url(#clip0_306_865)">
        <g clip-path="url(#clip1_306_865)">
            <path
                d="M59.6903 49.8633L59.6904 24.1966L70.397 34.9033C70.7379 35.2469 71.1434 35.5197 71.5902 35.7059C72.0371 35.892 72.5163 35.9878 73.0003 35.9878C73.4844 35.9878 73.9636 35.892 74.4105 35.7059C74.8573 35.5197 75.2628 35.2469 75.6037 34.9033C76.2866 34.2163 76.6699 33.2869 76.6699 32.3183C76.6699 31.3496 76.2866 30.4202 75.6037 29.7333L58.627 12.9032C58.2816 12.5563 57.8702 12.282 57.417 12.0966C56.5243 11.7298 55.523 11.7298 54.6304 12.0966C54.1847 12.2959 53.7757 12.5686 53.4204 12.9032L36.3337 29.8799C35.6428 30.5569 35.2475 31.4794 35.2337 32.4466C35.2294 33.1749 35.4422 33.8879 35.8448 34.4948C36.2474 35.1017 36.8216 35.575 37.4943 35.8543C38.1669 36.1336 38.9074 36.2062 39.6215 36.0629C40.3356 35.9197 40.9908 35.567 41.5037 35.0499L52.357 24.3433L52.357 50.0099C52.357 52.9273 51.1981 55.7252 49.1352 57.7881C47.0723 59.851 44.2744 61.0099 41.357 61.0099L7.00035 61.0099C6.02789 61.0099 5.09526 61.3962 4.40762 62.0839C3.71999 62.7715 3.33368 63.7041 3.33368 64.6766C3.33368 65.649 3.71999 66.5817 4.40762 67.2693C5.09526 67.9569 6.02789 68.3433 7.00035 68.3433L41.357 68.3433C43.777 68.3433 46.173 67.8643 48.4069 66.9338C50.6408 66.0033 52.6684 64.6398 54.3728 62.9218C56.0771 61.2038 57.4245 59.1654 58.3371 56.9242C59.2498 54.6829 59.7097 52.2831 59.6903 49.8633Z"
                fill="#0EBC20"
            />
        </g>
    </g>
    <defs>
        <clipPath id="clip0_306_865">
            <rect width="80" height="80" fill="white" />
        </clipPath>
        <clipPath id="clip1_306_865">
            <rect
                width="88"
                height="88"
                fill="white"
                transform="translate(-4 -4)"
            />
        </clipPath>
    </defs>
</svg>