<svg
    width="80"
    height="80"
    viewBox="0 0 80 80"
    fill="none"
    xmlns="http://www.w3.org/2000/svg"
>
    <path
        d="M42.366 54.3001L41.866 53.9001C41.6802 53.7739 41.4784 53.673 41.266 53.6001L40.666 53.3334C40.1254 53.2204 39.5652 53.2435 39.0358 53.4006C38.5063 53.5577 38.0242 53.8439 37.6327 54.2334C37.3382 54.5574 37.1015 54.9295 36.9327 55.3334C36.6804 55.9408 36.6135 56.6091 36.7402 57.2545C36.867 57.8998 37.1818 58.4932 37.645 58.96C38.1082 59.4268 38.6992 59.7461 39.3435 59.8778C39.9879 60.0095 40.6568 59.9477 41.266 59.7001C41.6643 59.5068 42.0344 59.2601 42.366 58.9668C42.8285 58.498 43.1419 57.9028 43.2664 57.2561C43.391 56.6095 43.3213 55.9405 43.066 55.3334C42.8998 54.948 42.6623 54.5974 42.366 54.3001ZM53.3327 6.66675H26.666C24.0139 6.66675 21.4703 7.72032 19.5949 9.59568C17.7196 11.471 16.666 14.0146 16.666 16.6667V63.3334C16.666 65.9856 17.7196 68.5291 19.5949 70.4045C21.4703 72.2799 24.0139 73.3334 26.666 73.3334H53.3327C55.9848 73.3334 58.5284 72.2799 60.4038 70.4045C62.2791 68.5291 63.3327 65.9856 63.3327 63.3334V16.6667C63.3327 14.0146 62.2791 11.471 60.4038 9.59568C58.5284 7.72032 55.9848 6.66675 53.3327 6.66675ZM56.666 63.3334C56.666 64.2175 56.3148 65.0653 55.6897 65.6904C55.0646 66.3156 54.2167 66.6668 53.3327 66.6668H26.666C25.782 66.6668 24.9341 66.3156 24.309 65.6904C23.6839 65.0653 23.3327 64.2175 23.3327 63.3334V16.6667C23.3327 15.7827 23.6839 14.9348 24.309 14.3097C24.9341 13.6846 25.782 13.3334 26.666 13.3334H53.3327C54.2167 13.3334 55.0646 13.6846 55.6897 14.3097C56.3148 14.9348 56.666 15.7827 56.666 16.6667V63.3334Z"
        fill="#0EBC20"
    />
</svg>