<svg
    width="80"
    height="80"
    viewBox="0 0 80 80"
    fill="none"
    xmlns="http://www.w3.org/2000/svg"
>
    <g clip-path="url(#clip0_306_893)">
        <path
            d="M64.9146 27.2867L68.4408 23.7992C69.1705 23.0696 69.5804 22.0799 69.5804 21.048C69.5804 20.0161 69.1705 19.0264 68.4408 18.2967C67.7111 17.5671 66.7215 17.1571 65.6896 17.1571C64.6576 17.1571 63.668 17.5671 62.9383 18.2967L59.4508 21.823C54.0202 17.6219 47.3486 15.3426 40.4827 15.3426C33.6168 15.3426 26.9452 17.6219 21.5146 21.823L17.9883 18.258C17.2535 17.5283 16.2589 17.1204 15.2234 17.1241C14.1878 17.1277 13.1961 17.5425 12.4664 18.2774C11.7368 19.0122 11.3289 20.0068 11.3325 21.0423C11.3361 22.0779 11.751 23.0696 12.4858 23.7992L16.0508 27.3255C11.8 32.741 9.49349 39.4284 9.50205 46.313C9.4894 51.2552 10.6586 56.1289 12.9121 60.5275C15.1657 64.9261 18.4383 68.7222 22.4569 71.599C26.4756 74.4759 31.1239 76.3503 36.0141 77.0658C40.9043 77.7813 45.8947 77.3172 50.5691 75.7122C55.2435 74.1072 59.4665 71.4078 62.8857 67.8392C66.3049 64.2706 68.8214 59.9362 70.2252 55.1975C71.629 50.4588 71.8794 45.4531 70.9556 40.5979C70.0318 35.7427 67.9605 31.1788 64.9146 27.2867ZM40.5021 69.563C35.9036 69.563 31.4085 68.1994 27.585 65.6446C23.7616 63.0899 20.7816 59.4588 19.0219 55.2104C17.2621 50.962 16.8017 46.2872 17.6988 41.7771C18.5959 37.2671 20.8103 33.1243 24.0618 29.8728C27.3134 26.6212 31.4561 24.4068 35.9662 23.5097C40.4763 22.6126 45.1511 23.073 49.3994 24.8328C53.6478 26.5925 57.279 29.5725 59.8337 33.396C62.3885 37.2194 63.7521 41.7146 63.7521 46.313C63.7521 52.4793 61.3025 58.393 56.9423 62.7532C52.5821 67.1134 46.6683 69.563 40.5021 69.563ZM32.7521 11.438H48.2521C49.2798 11.438 50.2654 11.0297 50.9921 10.303C51.7188 9.57632 52.1271 8.5907 52.1271 7.56299C52.1271 6.53527 51.7188 5.54965 50.9921 4.82295C50.2654 4.09625 49.2798 3.68799 48.2521 3.68799H32.7521C31.7243 3.68799 30.7387 4.09625 30.012 4.82295C29.2853 5.54965 28.8771 6.53527 28.8771 7.56299C28.8771 8.5907 29.2853 9.57632 30.012 10.303C30.7387 11.0297 31.7243 11.438 32.7521 11.438ZM44.3771 34.688C44.3771 33.6603 43.9688 32.6747 43.2421 31.9479C42.5154 31.2212 41.5298 30.813 40.5021 30.813C39.4743 30.813 38.4887 31.2212 37.762 31.9479C37.0353 32.6747 36.6271 33.6603 36.6271 34.688V42.0117C35.7496 42.7965 35.1312 43.8292 34.8535 44.9732C34.5759 46.1172 34.6521 47.3185 35.0722 48.4181C35.4922 49.5178 36.2363 50.4641 37.2059 51.1316C38.1754 51.7992 39.3249 52.1566 40.5021 52.1566C41.6792 52.1566 42.8287 51.7992 43.7983 51.1316C44.7678 50.4641 45.5119 49.5178 45.9319 48.4181C46.352 47.3185 46.4282 46.1172 46.1506 44.9732C45.8729 43.8292 45.2545 42.7965 44.3771 42.0117V34.688Z"
            fill="#0EBC20"
        />
    </g>
    <defs>
        <clipPath id="clip0_306_893">
            <rect width="80" height="80" fill="white" />
        </clipPath>
    </defs>
</svg>