<svg
    width="80"
    height="80"
    viewBox="0 0 80 80"
    fill="none"
    xmlns="http://www.w3.org/2000/svg"
>
    <path
        d="M72.5996 39.6001L65.933 31.2668C65.6225 30.8739 65.2276 30.556 64.7775 30.3367C64.3274 30.1175 63.8337 30.0024 63.333 30.0001H43.333V10.0001C43.333 9.11603 42.9818 8.26818 42.3567 7.64306C41.7315 7.01794 40.8837 6.66675 39.9996 6.66675C39.1156 6.66675 38.2677 7.01794 37.6426 7.64306C37.0175 8.26818 36.6663 9.11603 36.6663 10.0001V13.3334H16.6663C16.1656 13.3357 15.6719 13.4508 15.2218 13.6701C14.7717 13.8894 14.3767 14.2072 14.0663 14.6001L7.39964 22.9334C6.9346 23.5219 6.68164 24.25 6.68164 25.0001C6.68164 25.7501 6.9346 26.4783 7.39964 27.0667L14.0663 35.4001C14.3767 35.7929 14.7717 36.1108 15.2218 36.3301C15.6719 36.5494 16.1656 36.6644 16.6663 36.6667H36.6663V66.6668H29.9996C29.1156 66.6668 28.2677 67.0179 27.6426 67.6431C27.0175 68.2682 26.6663 69.116 26.6663 70.0001C26.6663 70.8841 27.0175 71.732 27.6426 72.3571C28.2677 72.9822 29.1156 73.3334 29.9996 73.3334H49.9996C50.8837 73.3334 51.7315 72.9822 52.3567 72.3571C52.9818 71.732 53.333 70.8841 53.333 70.0001C53.333 69.116 52.9818 68.2682 52.3567 67.6431C51.7315 67.0179 50.8837 66.6668 49.9996 66.6668H43.333V53.3334H63.333C63.8337 53.3311 64.3274 53.216 64.7775 52.9967C65.2276 52.7775 65.6225 52.4596 65.933 52.0667L72.5996 43.7334C73.0647 43.1449 73.3176 42.4168 73.3176 41.6667C73.3176 40.9167 73.0647 40.1886 72.5996 39.6001ZM36.6663 30.0001H18.2663L14.2663 25.0001L18.2663 20.0001H36.6663V30.0001ZM61.733 46.6667H43.333V36.6667H61.733L65.733 41.6667L61.733 46.6667Z"
        fill="#0EBC20"
    />
</svg>