<svg
    width="80"
    height="80"
    viewBox="0 0 80 80"
    fill="none"
    xmlns="http://www.w3.org/2000/svg"
>
    <g clip-path="url(#clip0_306_902)">
        <path
            d="M39.9994 -0.333496C32.0222 -0.333496 24.2242 2.03201 17.5914 6.4639C10.9586 10.8958 5.78896 17.195 2.73623 24.5649C-0.316508 31.9349 -1.11524 40.0446 0.441027 47.8685C1.9973 55.6924 5.83868 62.8791 11.4794 68.5198C17.1201 74.1605 24.3068 78.0019 32.1307 79.5582C39.9546 81.1144 48.0643 80.3157 55.4343 77.263C62.8042 74.2102 69.1034 69.0406 73.5353 62.4078C77.9672 55.7751 80.3327 47.977 80.3327 39.9998C80.3327 29.3028 76.0833 19.0438 68.5193 11.4799C60.9554 3.9159 50.6964 -0.333496 39.9994 -0.333496ZM39.9994 72.9998C33.4726 72.9998 27.0924 71.0644 21.6655 67.4383C16.2387 63.8122 12.009 58.6583 9.51134 52.6284C7.01365 46.5984 6.36014 39.9632 7.63345 33.5619C8.90676 27.1605 12.0497 21.2804 16.6648 16.6653C21.28 12.0502 27.16 8.90723 33.5614 7.63392C39.9628 6.36061 46.598 7.01412 52.6279 9.51181C58.6579 12.0095 63.8118 16.2392 67.4379 21.666C71.064 27.0928 72.9994 33.4731 72.9994 39.9998C72.9994 48.752 69.5226 57.1457 63.3339 63.3344C57.1452 69.5231 48.7515 72.9998 39.9994 72.9998ZM50.376 19.6498L39.9994 35.2332L29.6227 19.6498C29.3563 19.2468 29.0129 18.9003 28.6122 18.6304C28.2115 18.3605 27.7614 18.1724 27.2878 18.077C26.8142 17.9816 26.3264 17.9808 25.8524 18.0745C25.3785 18.1682 24.9277 18.3547 24.526 18.6232C23.7223 19.1608 23.1634 19.9941 22.9711 20.9418C22.7788 21.8895 22.9687 22.8748 23.4994 23.6832L31.236 35.3065H28.9994C28.0269 35.3065 27.0943 35.6928 26.4066 36.3804C25.719 37.0681 25.3327 38.0007 25.3327 38.9732C25.3327 39.9456 25.719 40.8783 26.4066 41.5659C27.0943 42.2535 28.0269 42.6398 28.9994 42.6398H36.3327L36.516 42.9332V46.3065H28.9994C28.0269 46.3065 27.0943 46.6928 26.4066 47.3804C25.719 48.0681 25.3327 49.0007 25.3327 49.9732C25.3327 50.9456 25.719 51.8783 26.4066 52.5659C27.0943 53.2535 28.0269 53.6398 28.9994 53.6398H36.3327V61.9998C36.3327 62.9723 36.719 63.9049 37.4066 64.5926C38.0943 65.2802 39.0269 65.6665 39.9994 65.6665C40.9718 65.6665 41.9045 65.2802 42.5921 64.5926C43.2797 63.9049 43.666 62.9723 43.666 61.9998V53.6398H50.9994C51.9718 53.6398 52.9045 53.2535 53.5921 52.5659C54.2797 51.8783 54.666 50.9456 54.666 49.9732C54.666 49.0007 54.2797 48.0681 53.5921 47.3804C52.9045 46.6928 51.9718 46.3065 50.9994 46.3065H43.666V42.9332L43.8494 42.6398H50.9994C51.9718 42.6398 52.9045 42.2535 53.5921 41.5659C54.2797 40.8783 54.666 39.9456 54.666 38.9732C54.666 38.0007 54.2797 37.0681 53.5921 36.3804C52.9045 35.6928 51.9718 35.3065 50.9994 35.3065H48.7627L56.4994 23.6832C57.03 22.8748 57.2199 21.8895 57.0276 20.9418C56.8353 19.9941 56.2765 19.1608 55.4727 18.6232C55.071 18.3547 54.6203 18.1682 54.1463 18.0745C53.6724 17.9808 53.1846 17.9816 52.7109 18.077C52.2373 18.1724 51.7872 18.3605 51.3865 18.6304C50.9858 18.9003 50.6424 19.2468 50.376 19.6498Z"
            fill="#0EBC20"
        />
    </g>
    <defs>
        <clipPath id="clip0_306_902">
            <rect width="80" height="80" fill="white" />
        </clipPath>
    </defs>
</svg>