<svg width="589" height="231" viewBox="0 0 589 231" fill="none" xmlns="http://www.w3.org/2000/svg">
<rect x="44.5" width="544" height="231" rx="12" fill="white"/>
<path d="M92.3051 43.4307V51.8418C92.3051 52.498 92.1381 52.9551 91.8041 53.2129C91.5111 53.4473 90.9691 53.5645 90.1781 53.5645C89.1234 53.5645 88.2357 53.5234 87.515 53.4414L87.1547 51.71C88.2738 51.8213 89.1732 51.877 89.8529 51.877C90.1225 51.877 90.2836 51.8271 90.3363 51.7275C90.3773 51.6572 90.3979 51.5312 90.3979 51.3496V43.4307H82.2416V41.8311H94.2826V43.4307H92.3051ZM81.8461 38.1396V36.6104H83.7357V38.1396H87.5326V36.6104H89.4574V38.1396H93.8871V39.7568H89.4574V41.1455H87.5326V39.7568H83.7357V41.1455H82.4789C82.0805 42.165 81.6469 43.0762 81.1781 43.8789V53.7139H79.2885V46.6738C78.8256 47.2539 78.31 47.8193 77.7416 48.3701L76.8803 46.6035C78.5502 44.957 79.8158 42.9268 80.6772 40.5127L81.8461 40.9258V39.7568H77.557V38.1396H81.8461ZM88.7631 45.0303V49.9873H84.2982V51.209H82.602V45.0303H88.7631ZM84.2982 46.3838V48.5635H87.0932V46.3838H84.2982ZM110.256 41.251L110.194 41.6113C109.813 43.8906 109.222 45.8916 108.419 47.6143C107.575 49.4072 106.28 51.1387 104.534 52.8086L103.189 51.5869C105.035 49.8057 106.412 47.8604 107.32 45.751C107.912 44.3857 108.357 42.8857 108.656 41.251H107.61C107.218 42.7158 106.746 44.0195 106.195 45.1621C105.463 46.6738 104.479 48.0186 103.242 49.1963L101.985 47.9131C103.392 46.6182 104.443 45.1768 105.141 43.5889C105.475 42.833 105.75 42.0537 105.967 41.251H105.053C104.66 42.2178 104.092 43.1787 103.348 44.1338L102.231 42.7539C102.478 42.4258 102.697 42.0947 102.891 41.7607H100.922V44.9336C101.438 44.7578 102.144 44.4971 103.04 44.1514L103.189 45.6631C102.492 45.9971 101.736 46.334 100.922 46.6738V53.7139H99.1201V47.3682C98.5166 47.6025 97.6289 47.8984 96.457 48.2559L95.8945 46.4541C96.8965 46.1904 97.8897 45.9062 98.874 45.6016L99.1201 45.5225V41.7607H98.127C97.9395 42.7803 97.6934 43.7529 97.3887 44.6787L95.8418 43.7207C96.4102 42.0684 96.7881 40.0996 96.9756 37.8145L98.5752 37.999C98.5166 38.7842 98.4522 39.4609 98.3818 40.0293H99.1553V36.6104H100.922V40.0293H102.952V41.6553C103.696 40.3193 104.268 38.6201 104.666 36.5576L106.556 36.8828C106.368 37.8262 106.113 38.7256 105.791 39.5811H112.813C112.743 46.0674 112.512 50.1133 112.119 51.7188C111.932 52.4688 111.627 52.9727 111.205 53.2305C110.824 53.459 110.259 53.5732 109.509 53.5732C109.21 53.5732 108.688 53.5381 107.944 53.4678L107.505 53.4238L107.215 51.5518C107.965 51.6982 108.604 51.7715 109.131 51.7715C109.623 51.7715 109.942 51.666 110.089 51.4551C110.294 51.1621 110.452 50.5527 110.563 49.627C110.733 48.1914 110.874 45.6367 110.985 41.9629L111.003 41.251H110.256ZM115.348 40.4951H119.233C119.409 39.5928 119.605 38.4707 119.822 37.1289L119.866 36.874L121.791 37.1641C121.591 38.4062 121.386 39.5166 121.175 40.4951H122.239C123.645 40.4951 124.653 40.8115 125.262 41.4443C125.807 42.0127 126.08 42.8975 126.08 44.0986C126.08 46.1201 125.866 48.0098 125.438 49.7676C125.192 50.7637 124.893 51.499 124.542 51.9736C124.096 52.5654 123.478 52.8613 122.687 52.8613C121.738 52.8613 120.701 52.5566 119.576 51.9473L119.796 50.0928C120.909 50.626 121.773 50.8926 122.388 50.8926C122.711 50.8926 122.96 50.7197 123.135 50.374C123.323 49.999 123.502 49.457 123.671 48.748C124.005 47.3125 124.172 45.8037 124.172 44.2217C124.172 43.3896 124.005 42.8506 123.671 42.6045C123.384 42.3994 122.872 42.2969 122.133 42.2969H120.78C119.848 46.4453 118.512 49.9844 116.772 52.9141L115.005 51.9473C116.804 48.9297 118.088 45.7129 118.855 42.2969H115.348V40.4951ZM129.947 49.1699C129.285 46.7324 128.239 44.3389 126.809 41.9893L128.523 41.2158C130 43.5713 131.104 45.9414 131.837 48.3262L129.947 49.1699ZM128.646 40.75C128.283 39.8008 127.697 38.7461 126.888 37.5859L128.251 37.0762C128.96 38.0781 129.554 39.1182 130.035 40.1963L128.646 40.75ZM131.01 39.9941C130.553 38.8633 129.97 37.7998 129.261 36.8037L130.553 36.373C131.227 37.1758 131.816 38.1777 132.32 39.3789L131.01 39.9941ZM134.556 39.7393H138.66C138.824 39.0127 139.009 38.0723 139.214 36.918L141.2 37.1641C141.025 38.0723 140.837 38.9307 140.638 39.7393H146.491V41.4883H140.225C139.053 46.1699 137.758 50.0518 136.34 53.1338L134.398 52.4482C135.939 49.0322 137.222 45.3789 138.247 41.4883H134.556V39.7393ZM150.113 52.668C149.163 52.791 148.097 52.8525 146.913 52.8525C144.997 52.8525 143.55 52.6885 142.571 52.3604C142.196 52.2314 141.877 52.0498 141.613 51.8154C141.098 51.3467 140.84 50.749 140.84 50.0225C140.84 49.2783 141.08 48.6221 141.561 48.0537L143.125 48.9766C142.944 49.2051 142.853 49.457 142.853 49.7324C142.853 50.207 143.07 50.5146 143.503 50.6553C144.165 50.8662 145.109 50.9717 146.333 50.9717C147.523 50.9717 148.709 50.8838 149.893 50.708L150.113 52.668ZM141.868 43.958C144.165 43.6943 146.679 43.5537 149.409 43.5361L149.497 45.3203C146.82 45.332 144.362 45.458 142.123 45.6982L141.868 43.958ZM165.268 53.2744C162.62 51.2119 159.151 48.9092 154.862 46.3662C154.071 45.9033 153.676 45.417 153.676 44.9072C153.676 44.5439 153.848 44.2012 154.194 43.8789C154.341 43.7383 154.71 43.5039 155.302 43.1758C157.464 41.9746 159.796 40.542 162.298 38.8779C163.241 38.2568 164.099 37.6562 164.873 37.0762L166.024 38.5879C163.007 40.7266 159.91 42.6777 156.734 44.4414C156.424 44.6172 156.268 44.7637 156.268 44.8809C156.268 44.9746 156.353 45.0801 156.523 45.1973C156.57 45.2324 156.843 45.3965 157.341 45.6895C161.36 48.0625 164.387 50.0049 166.42 51.5166L165.268 53.2744ZM169.948 40.082H177.005C176.624 39.0801 176.276 38.084 175.959 37.0938L177.884 36.9707C178.189 38.0137 178.555 39.0508 178.983 40.082H185.478V41.8838H179.809C180.565 43.4482 181.511 45.0801 182.648 46.7793L180.802 47.6582C179.548 45.7598 178.52 43.835 177.717 41.8838H169.948V40.082ZM182.727 53.0459C181.561 53.1104 180.53 53.1426 179.633 53.1426C177.196 53.1426 175.4 52.9521 174.246 52.5713C172.16 51.8916 171.117 50.6084 171.117 48.7217C171.117 47.5615 171.477 46.627 172.198 45.918L173.85 46.8145C173.37 47.2891 173.129 47.9102 173.129 48.6777C173.129 49.6562 173.657 50.3418 174.711 50.7344C175.643 51.0801 177.202 51.2529 179.387 51.2529C180.313 51.2529 181.356 51.209 182.516 51.1211L182.727 53.0459ZM187.986 52.0703C190.248 46.832 192.683 41.7695 195.29 36.8828L197.004 37.5684C195.826 39.7305 194.435 42.3643 192.829 45.4697C193.937 44.2686 194.959 43.668 195.896 43.668C197.373 43.668 198.111 44.7812 198.111 47.0078C198.111 47.1719 198.105 47.374 198.094 47.6143C198.07 48.124 198.059 48.5254 198.059 48.8184C198.059 49.5039 198.1 49.9902 198.182 50.2773C198.363 50.8984 198.817 51.209 199.544 51.209C200.247 51.209 200.818 50.8662 201.258 50.1807C201.914 49.1611 202.453 47.2891 202.875 44.5645L204.598 45.5752C204.264 47.7256 203.839 49.3662 203.323 50.4971C202.526 52.2549 201.237 53.1338 199.456 53.1338C198.226 53.1338 197.344 52.7529 196.811 51.9912C196.389 51.3877 196.178 50.3799 196.178 48.9678C196.178 48.8447 196.184 48.6572 196.195 48.4053C196.219 47.9131 196.23 47.5645 196.23 47.3594C196.23 46.7148 196.172 46.249 196.055 45.9619C195.92 45.6455 195.688 45.4873 195.36 45.4873C194.804 45.4873 194.177 45.8271 193.479 46.5068C192.882 47.0928 192.293 47.9512 191.713 49.082C191.291 49.9023 190.649 51.2939 189.788 53.2568L187.986 52.0703ZM208.055 39.1152H212.45C212.573 38.1016 212.667 37.375 212.731 36.9355L214.682 37.1377L214.656 37.2783L214.594 37.7354L214.515 38.3242L214.436 38.9131L214.41 39.1152H221.678V40.8467H214.208C214.19 41.0459 214.152 41.4707 214.093 42.1211L214.049 42.6836L214.032 42.8594C214.735 42.7422 215.453 42.6836 216.185 42.6836C218.213 42.6836 219.821 43.1582 221.01 44.1074C221.321 44.3594 221.605 44.6758 221.863 45.0566C222.379 45.8184 222.636 46.6943 222.636 47.6846C222.636 49.4482 221.91 50.793 220.457 51.7188C219.507 52.3223 218.192 52.7764 216.51 53.0811L215.667 51.5342C217.208 51.2822 218.385 50.8809 219.2 50.3301C220.172 49.668 220.659 48.7539 220.659 47.5879C220.659 46.832 220.448 46.167 220.026 45.5928C219.78 45.2529 219.449 44.9775 219.033 44.7666C217.574 47.3096 215.661 49.3779 213.294 50.9717C212.532 51.4873 211.893 51.8301 211.378 52C210.868 52.1641 210.37 52.2461 209.883 52.2461C208.987 52.2461 208.313 51.9473 207.862 51.3496C207.487 50.8574 207.299 50.1836 207.299 49.3281C207.299 47.8105 207.874 46.4717 209.022 45.3115C209.872 44.4502 210.894 43.7881 212.089 43.3252L212.107 43.0879C212.177 42.0801 212.236 41.333 212.283 40.8467H208.055V39.1152ZM212.01 45.1094C211.19 45.5488 210.534 46.0967 210.042 46.7529C209.415 47.5908 209.101 48.4258 209.101 49.2578C209.101 50.1836 209.435 50.6465 210.103 50.6465C210.689 50.6465 211.41 50.3301 212.265 49.6973C212.089 48.5195 212.002 47.2715 212.002 45.9531C212.002 45.7715 212.005 45.4902 212.01 45.1094ZM213.9 44.4414C213.888 44.8223 213.882 45.168 213.882 45.4785C213.882 46.4746 213.926 47.4121 214.014 48.291C215.432 46.9727 216.516 45.625 217.266 44.248C216.891 44.2012 216.516 44.1777 216.141 44.1777C215.362 44.1777 214.615 44.2656 213.9 44.4414ZM232.106 44.6699C231.52 45.7656 230.919 46.5889 230.304 47.1396C229.777 47.6143 229.293 47.8516 228.854 47.8516C228.291 47.8516 227.837 47.4707 227.491 46.709C227.134 45.9121 226.955 44.6641 226.955 42.9648C226.955 41.2539 227.154 39.3994 227.553 37.4014L229.478 37.6914C229.091 39.6719 228.898 41.3477 228.898 42.7188C228.898 44.5645 229.029 45.4873 229.293 45.4873C229.393 45.4873 229.563 45.3467 229.803 45.0654C230.178 44.6436 230.573 44.0225 230.989 43.2021L232.106 44.6699ZM230.77 51.5518C232.569 51.0479 233.925 50.2949 234.839 49.293C235.958 48.0684 236.518 46.2168 236.518 43.7383C236.518 41.8574 236.336 39.7451 235.973 37.4014L237.986 37.208C238.372 39.5752 238.566 41.7812 238.566 43.8262C238.566 47.1426 237.713 49.5303 236.008 50.9893C234.971 51.8799 233.573 52.6182 231.816 53.2041L230.77 51.5518ZM252.412 38.3594H259.32V39.9766H245.767V44.0811C245.767 46.2783 245.615 48.127 245.31 49.627C245.029 51.0391 244.534 52.4014 243.825 53.7139L242.278 52.3779C243.298 50.2686 243.807 47.5029 243.807 44.0811V38.3594H250.434V36.6104H252.412V38.3594ZM252.93 42.5166H258.582V44.0986H252.93V46.5508H258.011V53.7139H256.068V52.668H248.721V53.7139H246.796V46.5508H251.023V40.3545H252.93V42.5166ZM248.721 48.1152V51.0859H256.068V48.1152H248.721ZM274.089 40.4248H277.684V50.04H270.196V40.4248H272.446C272.528 40.126 272.654 39.6045 272.824 38.8604H269.73V37.2959H278.422V38.8604H274.634C274.482 39.3936 274.318 39.8711 274.142 40.293L274.089 40.4248ZM275.9 41.8135H271.91V43.2021H275.9V41.8135ZM271.91 44.5205V45.8652H275.9V44.5205H271.91ZM271.91 47.1836V48.6338H275.9V47.1836H271.91ZM268.746 40.627V45.9883H261.899V40.627H268.746ZM263.648 42.1211V44.5117H267.014V42.1211H263.648ZM265.713 50.2598C266.147 49.0645 266.519 47.749 266.829 46.3135L268.579 46.7617C268.286 47.8223 267.94 48.8418 267.541 49.8203L268.438 49.6006C268.795 49.5127 269.118 49.4307 269.405 49.3545L269.493 50.8662C267.254 51.6221 264.682 52.3252 261.776 52.9756L261.196 51.2266C262.584 50.957 263.762 50.708 264.729 50.4795L265.713 50.2598ZM261.319 37.2959H269.15V38.8779H261.319V37.2959ZM263.015 50.418C262.769 49.2695 262.432 48.1416 262.004 47.0342L263.665 46.4717C264.046 47.3975 264.386 48.5195 264.685 49.8379L263.015 50.418ZM277.183 53.7666C276.333 52.7061 275.413 51.8184 274.423 51.1035L275.759 50.0928C276.79 50.7725 277.737 51.5752 278.598 52.501L277.183 53.7666ZM268.376 52.6328C269.589 52.0293 270.659 51.1943 271.584 50.1279L273.043 50.9717C271.983 52.2373 270.834 53.21 269.598 53.8896L268.376 52.6328ZM281.783 52.958C281.561 50.9658 281.449 48.9854 281.449 47.0166C281.449 43.6416 281.698 40.4365 282.196 37.4014L284.13 37.6035C283.655 40.2285 283.418 43.1904 283.418 46.4893C283.418 48.7041 283.541 50.7754 283.787 52.7031L281.783 52.958ZM287.057 39.0361H295.503V40.9082H287.057V39.0361ZM296.101 51.877C294.929 52.0586 293.537 52.1494 291.926 52.1494C287.877 52.1494 285.853 50.96 285.853 48.5811C285.853 47.6377 286.104 46.8145 286.608 46.1113L288.27 46.8496C287.953 47.2949 287.795 47.7959 287.795 48.3525C287.795 49.0381 288.138 49.5098 288.823 49.7676C289.585 50.0605 290.625 50.207 291.943 50.207C293.367 50.207 294.686 50.1133 295.898 49.9258L296.101 51.877ZM313.419 43.791V45.6982H315.633V47.3682H313.419V52.0352C313.419 52.5566 313.316 52.9463 313.111 53.2041C312.841 53.5439 312.32 53.7139 311.546 53.7139C310.726 53.7139 309.959 53.6641 309.244 53.5645L308.839 51.7803C309.724 51.915 310.433 51.9824 310.966 51.9824C311.218 51.9824 311.38 51.9297 311.45 51.8242C311.503 51.7422 311.529 51.6133 311.529 51.4375V47.3682H304.542V45.6982H311.529V43.791H304.506L304.656 45.3555C304.005 45.6777 303.472 45.9238 303.056 46.0938V52.0352C303.056 52.627 302.921 53.0459 302.652 53.292C302.412 53.5205 301.996 53.6348 301.404 53.6348C300.754 53.6348 300.138 53.5762 299.558 53.459L299.215 51.5869C299.848 51.6924 300.349 51.7451 300.718 51.7451C300.906 51.7451 301.032 51.7188 301.096 51.666C301.167 51.6016 301.202 51.4785 301.202 51.2969V46.832C300.534 47.0723 299.866 47.292 299.198 47.4912L298.714 45.7158C299.728 45.4346 300.557 45.1826 301.202 44.96V41.6025H298.987V39.8535H301.202V36.6104H303.056V39.8535H304.691V41.6025H303.056V44.2832C303.449 44.1309 303.868 43.9521 304.313 43.7471V42.1738H308.919V40.1523H305.087V38.5527H308.919V36.6104H310.826V38.5527H314.965V40.1523H310.826V42.1738H316.099V43.791H313.419ZM307.53 51.6045C307.014 50.5146 306.361 49.457 305.57 48.4316L307.17 47.5176C308.007 48.5078 308.705 49.5332 309.261 50.5938L307.53 51.6045ZM318.546 42.5342L319.17 42.4375C323.02 41.8516 325.528 41.5586 326.694 41.5586C328.352 41.5586 329.62 41.9834 330.499 42.833C331.372 43.6885 331.809 44.8896 331.809 46.4365C331.809 47.5322 331.489 48.5254 330.851 49.416C330.066 50.5117 328.721 51.3174 326.817 51.833C325.668 52.1436 324.279 52.3662 322.651 52.501L322.053 50.7432C324.801 50.5205 326.714 50.1309 327.792 49.5742C328.419 49.252 328.923 48.8242 329.304 48.291C329.726 47.6992 329.937 47.0283 329.937 46.2783C329.937 45.2529 329.67 44.4912 329.137 43.9932C328.867 43.7354 328.583 43.5537 328.284 43.4482C327.915 43.3193 327.405 43.2549 326.755 43.2549C325.472 43.2549 322.867 43.6006 318.942 44.292L318.546 42.5342ZM335.53 38.7461C340.921 38.6641 346.015 38.5264 350.814 38.333L350.92 40.082C348.805 40.1875 347.158 40.5098 345.98 41.0488C344.855 41.5645 343.953 42.2793 343.273 43.1934C342.5 44.2305 342.113 45.3848 342.113 46.6562C342.113 47.9219 342.553 48.8711 343.431 49.5039C344.439 50.2246 345.986 50.7197 348.072 50.9893L347.659 52.9668C344.94 52.6035 343.027 51.9004 341.92 50.8574C340.73 49.7441 340.136 48.3613 340.136 46.709C340.136 45.209 340.675 43.8086 341.753 42.5078C342.538 41.5527 343.613 40.7852 344.978 40.2051C342.558 40.2871 339.438 40.4248 335.618 40.6182L335.53 38.7461ZM358.394 44.2656V53.7139H356.452V46.3047C355.836 46.8848 355.195 47.4355 354.527 47.957L353.498 46.2607C355.526 44.8545 357.374 42.8916 359.044 40.3721L360.556 41.3652C359.894 42.4023 359.173 43.3691 358.394 44.2656ZM367.772 44.1689V51.9473C367.772 52.5742 367.593 53.0137 367.236 53.2656C366.943 53.4648 366.465 53.5645 365.803 53.5645C364.719 53.5645 363.676 53.5293 362.674 53.459L362.331 51.5693C363.369 51.6689 364.286 51.7188 365.082 51.7188C365.416 51.7188 365.619 51.6543 365.689 51.5254C365.747 51.4258 365.777 51.2852 365.777 51.1035V44.1689H360.301V42.3672H370.848V44.1689H367.772ZM353.621 40.8379C355.467 39.8066 357.035 38.4209 358.324 36.6807L359.871 37.709C358.277 39.7188 356.542 41.2832 354.667 42.4023L353.621 40.8379ZM361.488 37.5859H369.644V39.3525H361.488V37.5859ZM385.072 53.2744C382.424 51.2119 378.955 48.9092 374.666 46.3662C373.875 45.9033 373.479 45.417 373.479 44.9072C373.479 44.5439 373.652 44.2012 373.998 43.8789C374.145 43.7383 374.514 43.5039 375.105 43.1758C377.268 41.9746 379.6 40.542 382.102 38.8779C383.045 38.2568 383.903 37.6562 384.677 37.0762L385.828 38.5879C382.811 40.7266 379.714 42.6777 376.538 44.4414C376.228 44.6172 376.072 44.7637 376.072 44.8809C376.072 44.9746 376.157 45.0801 376.327 45.1973C376.374 45.2324 376.646 45.3965 377.145 45.6895C381.164 48.0625 384.19 50.0049 386.224 51.5166L385.072 53.2744ZM398.576 51.042C402.015 50.1748 403.735 48.2031 403.735 45.127C403.735 43.7852 403.389 42.6309 402.698 41.6641C401.924 40.5742 400.747 39.874 399.165 39.5635C398.819 42.2822 398.347 44.5088 397.75 46.2432C397.339 47.4561 396.83 48.6016 396.22 49.6797C395.341 51.2148 394.342 51.9824 393.223 51.9824C392.391 51.9824 391.65 51.6074 391 50.8574C390.584 50.3828 390.247 49.7998 389.989 49.1084C389.649 48.2119 389.479 47.248 389.479 46.2168C389.479 44.5469 389.939 43.0088 390.859 41.6025C391.791 40.167 393.001 39.124 394.489 38.4736C395.573 37.999 396.762 37.7617 398.057 37.7617C400.079 37.7617 401.796 38.3037 403.208 39.3877C404.942 40.7178 405.809 42.6016 405.809 45.0391C405.809 49.123 403.744 51.7129 399.613 52.8086L398.576 51.042ZM397.257 39.4932C396.22 39.6104 395.353 39.8887 394.656 40.3281C394.211 40.6152 393.768 40.9961 393.329 41.4707C392.11 42.8184 391.501 44.3799 391.501 46.1553C391.501 47.4502 391.758 48.4639 392.274 49.1963C392.59 49.6475 392.904 49.873 393.214 49.873C393.636 49.873 394.111 49.4072 394.638 48.4756C395.927 46.208 396.8 43.2139 397.257 39.4932ZM408.414 40.4951H412.299C412.475 39.5928 412.671 38.4707 412.888 37.1289L412.932 36.874L414.857 37.1641C414.657 38.4062 414.452 39.5166 414.241 40.4951H415.305C416.711 40.4951 417.719 40.8115 418.328 41.4443C418.873 42.0127 419.146 42.8975 419.146 44.0986C419.146 46.1201 418.932 48.0098 418.504 49.7676C418.258 50.7637 417.959 51.499 417.608 51.9736C417.162 52.5654 416.544 52.8613 415.753 52.8613C414.804 52.8613 413.767 52.5566 412.642 51.9473L412.862 50.0928C413.975 50.626 414.839 50.8926 415.454 50.8926C415.777 50.8926 416.026 50.7197 416.201 50.374C416.389 49.999 416.568 49.457 416.738 48.748C417.072 47.3125 417.238 45.8037 417.238 44.2217C417.238 43.3896 417.072 42.8506 416.738 42.6045C416.45 42.3994 415.938 42.2969 415.199 42.2969H413.846C412.914 46.4453 411.578 49.9844 409.838 52.9141L408.072 51.9473C409.87 48.9297 411.154 45.7129 411.921 42.2969H408.414V40.4951ZM423.013 49.1699C422.351 46.7324 421.305 44.3389 419.875 41.9893L421.589 41.2158C423.066 43.5713 424.17 45.9414 424.903 48.3262L423.013 49.1699ZM421.712 40.75C421.349 39.8008 420.763 38.7461 419.954 37.5859L421.317 37.0762C422.026 38.0781 422.62 39.1182 423.101 40.1963L421.712 40.75ZM424.076 39.9941C423.619 38.8633 423.036 37.7998 422.327 36.8037L423.619 36.373C424.293 37.1758 424.882 38.1777 425.386 39.3789L424.076 39.9941ZM442.01 52.4307C440.275 52.6123 438.482 52.7031 436.631 52.7031C433.9 52.7031 431.987 52.5303 430.891 52.1846C430.095 51.9326 429.465 51.5576 429.002 51.0596C428.469 50.4795 428.202 49.7734 428.202 48.9414C428.202 47.8457 428.577 46.8613 429.327 45.9883C429.966 45.2441 430.994 44.5059 432.412 43.7734C431.603 41.957 430.871 39.8887 430.215 37.5684L432.175 37.0586C432.784 39.2852 433.429 41.2539 434.108 42.9648C436.364 41.9277 438.758 41.0635 441.289 40.3721L441.878 42.1562C439.1 42.8594 436.341 43.8584 433.598 45.1533C432.749 45.5576 432.145 45.8887 431.788 46.1465C430.739 46.9141 430.215 47.7666 430.215 48.7041C430.215 49.5186 430.701 50.0869 431.674 50.4092C432.482 50.6729 433.93 50.8047 436.015 50.8047C437.943 50.8047 439.874 50.6934 441.807 50.4707L442.01 52.4307ZM446.68 52.958C446.457 50.9658 446.346 48.9854 446.346 47.0166C446.346 43.6416 446.595 40.4365 447.093 37.4014L449.027 37.6035C448.552 40.2285 448.315 43.1904 448.315 46.4893C448.315 48.7041 448.438 50.7754 448.684 52.7031L446.68 52.958ZM451.954 39.0361H460.4V40.9082H451.954V39.0361ZM460.997 51.877C459.826 52.0586 458.434 52.1494 456.823 52.1494C452.774 52.1494 450.749 50.96 450.749 48.5811C450.749 47.6377 451.001 46.8145 451.505 46.1113L453.166 46.8496C452.85 47.2949 452.692 47.7959 452.692 48.3525C452.692 49.0381 453.035 49.5098 453.72 49.7676C454.482 50.0605 455.522 50.207 456.84 50.207C458.264 50.207 459.582 50.1133 460.795 49.9258L460.997 51.877ZM464.578 40.4951H468.463C468.639 39.5928 468.835 38.4707 469.052 37.1289L469.096 36.874L471.021 37.1641C470.821 38.4062 470.616 39.5166 470.405 40.4951H471.794C473.194 40.4951 474.199 40.8115 474.809 41.4443C475.354 42.0127 475.626 42.8975 475.626 44.0986C475.626 46.1143 475.412 48.0039 474.984 49.7676C474.738 50.7637 474.439 51.499 474.088 51.9736C473.643 52.5654 473.024 52.8613 472.233 52.8613C471.29 52.8613 470.256 52.5566 469.131 51.9473L469.351 50.0928C470.464 50.626 471.325 50.8926 471.935 50.8926C472.263 50.8926 472.512 50.7197 472.682 50.374C472.869 49.9932 473.048 49.4512 473.218 48.748C473.552 47.3184 473.719 45.8096 473.719 44.2217C473.719 43.3896 473.552 42.8506 473.218 42.6045C472.931 42.3994 472.421 42.2969 471.688 42.2969H470.01C469.078 46.4453 467.742 49.9844 466.002 52.9141L464.235 51.9473C466.034 48.9297 467.317 45.7129 468.085 42.2969H464.578V40.4951ZM478.992 47.5527C478.107 44.4766 476.921 41.7695 475.433 39.4316L477.12 38.5703C478.796 41.2539 480.044 43.9785 480.864 46.7441L478.992 47.5527ZM495.238 53.2744C492.589 51.2119 489.121 48.9092 484.832 46.3662C484.041 45.9033 483.645 45.417 483.645 44.9072C483.645 44.5439 483.818 44.2012 484.164 43.8789C484.31 43.7383 484.679 43.5039 485.271 43.1758C487.433 41.9746 489.765 40.542 492.267 38.8779C493.211 38.2568 494.069 37.6562 494.842 37.0762L495.994 38.5879C492.976 40.7266 489.879 42.6777 486.704 44.4414C486.393 44.6172 486.238 44.7637 486.238 44.8809C486.238 44.9746 486.323 45.0801 486.493 45.1973C486.54 45.2324 486.812 45.3965 487.31 45.6895C491.33 48.0625 494.356 50.0049 496.389 51.5166L495.238 53.2744ZM509.075 42.9297C509.48 44.3008 510.247 45.7598 511.378 47.3066C512.755 49.1934 514.448 50.6875 516.458 51.7891L515.201 53.5996C513.074 52.3457 511.299 50.6846 509.875 48.6162C509.108 47.4912 508.492 46.3457 508.03 45.1797C507.567 46.75 506.849 48.1768 505.876 49.46C504.447 51.3584 502.68 52.7588 500.576 53.6611L499.337 52.0527C501.54 51.1328 503.319 49.7148 504.672 47.7988C505.809 46.1816 506.483 44.5586 506.694 42.9297H499.68V41.0225H506.773V36.7861H508.803V41.0225H516.045V42.9297H509.075ZM522.86 48.4932C521.77 49.2314 520.71 49.791 519.679 50.1719L518.474 48.8184C521.281 47.8691 523.314 46.5596 524.574 44.8896L526.358 45.3291C526.106 45.6572 525.854 45.9502 525.602 46.208H531.667L532.783 47.1484C531.892 48.2207 530.63 49.3193 528.995 50.4443C530.835 51.0654 532.938 51.5371 535.305 51.8594L534.312 53.6963C531.523 53.1631 529.136 52.4336 527.149 51.5078C524.923 52.5977 522.347 53.3506 519.424 53.7666L518.545 52.0967C520.859 51.915 523.144 51.3936 525.4 50.5322L525.304 50.4707C524.378 49.8555 523.563 49.1963 522.86 48.4932ZM524.302 47.667C525.081 48.3877 526.071 49.0557 527.272 49.6709C528.526 48.9502 529.408 48.2822 529.918 47.667H524.302ZM527.65 38.2275H534.945V39.7568H529.847V43.6943C529.847 44.2686 529.692 44.6611 529.382 44.8721C529.124 45.0479 528.693 45.1357 528.09 45.1357C527.521 45.1357 526.906 45.0889 526.244 44.9951L526.015 43.4658C526.654 43.5713 527.19 43.624 527.624 43.624C527.794 43.624 527.893 43.5859 527.923 43.5098C527.946 43.457 527.958 43.3691 527.958 43.2461V39.7568H525.69C525.69 41.0342 525.547 42.0361 525.26 42.7627C524.756 44.0459 523.795 44.9629 522.377 45.5137L521.05 44.292C522.145 43.8643 522.887 43.3135 523.273 42.6396C523.496 42.2529 523.651 41.79 523.739 41.251C523.792 40.9346 523.83 40.4365 523.853 39.7568H518.527V38.2275H525.725V36.6104H527.65V38.2275ZM533.592 44.7666C532.724 43.46 531.722 42.2412 530.586 41.1104L532.027 40.1348C533.14 41.0957 534.154 42.2441 535.068 43.5801L533.592 44.7666ZM518.132 43.501C519.333 42.5811 520.221 41.5146 520.795 40.3018L522.43 40.9082C521.615 42.5898 520.572 43.8936 519.301 44.8193L518.132 43.501ZM537.911 49.4951H540.864V52.4482H537.911V49.4951ZM544.752 49.4951H547.705V52.4482H544.752V49.4951ZM551.593 49.4951H554.546V52.4482H551.593V49.4951Z" fill="black"/>
<path d="M85.8057 82.6846V85.7256C85.8057 86.1416 85.9756 86.3936 86.3154 86.4814C86.6084 86.5576 87.3438 86.5957 88.5215 86.5957C90.3965 86.5957 91.4365 86.4463 91.6416 86.1475C91.7822 85.9424 91.876 85.1279 91.9229 83.7041L93.8652 84.2842C93.8008 85.5029 93.7129 86.332 93.6016 86.7715C93.4316 87.4277 93.0625 87.8584 92.4941 88.0635C91.8789 88.2861 90.4873 88.3975 88.3193 88.3975C86.3916 88.3975 85.2285 88.3301 84.8301 88.1953C84.1504 87.9609 83.8105 87.4307 83.8105 86.6045V82.834L77.3242 83.3262L77.166 81.6562L83.8105 81.1377V79.0459C82.0469 79.333 80.5527 79.541 79.3281 79.6699L78.6426 78.0879C82.9551 77.6719 86.7051 76.9219 89.8926 75.8379L91.334 77.1914C89.4121 77.8184 87.5693 78.3076 85.8057 78.6592V80.9795L94.1729 80.3203L94.2959 82.0342L85.8057 82.6846ZM86.667 73.5352H93.7246V77.2969H91.7471V75.1523H79.5742V77.2969H77.6143V73.5352H84.6895V71.6104H86.667V73.5352ZM98.984 75.8379V73.9307H96.1187V72.2959H105.154V73.9307H102.412V75.8379H104.829V88.5293H103.212V87.6855H98.2896V88.7139H96.6197V75.8379H98.984ZM100.258 75.8379H101.12V73.9307H100.258V75.8379ZM99.1158 77.3496H98.2896V81.2695C98.7818 80.3672 99.0572 79.0605 99.1158 77.3496ZM100.241 77.3496C100.235 79.4824 99.8687 81.1992 99.1422 82.5L98.2896 81.7266V83.2207H103.212V81.5068H102.183C101.773 81.5068 101.492 81.4277 101.339 81.2695C101.193 81.1172 101.12 80.8564 101.12 80.4873V77.3496H100.241ZM102.254 77.3496V79.8193C102.254 79.9834 102.277 80.083 102.324 80.1182C102.365 80.1475 102.462 80.1621 102.614 80.1621H103.212V77.3496H102.254ZM98.2896 84.627V86.1211H103.212V84.627H98.2896ZM107.922 80.1094V85.9541C107.922 86.2705 108.016 86.458 108.204 86.5166C108.479 86.6045 108.927 86.6484 109.548 86.6484C110.105 86.6484 110.504 86.5928 110.744 86.4814C110.937 86.3936 111.063 86.1768 111.122 85.8311C111.18 85.4619 111.23 84.7588 111.271 83.7217L111.289 83.3613L113.178 83.8535C113.131 85.3652 113.046 86.417 112.923 87.0088C112.754 87.8115 112.264 88.2686 111.456 88.3799C110.917 88.4502 110.085 88.4854 108.96 88.4854C107.776 88.4854 106.994 88.3652 106.613 88.125C106.25 87.8965 106.068 87.4072 106.068 86.6572V78.3955H110.586V74.0977H105.857V72.3662H112.422V80.1094H107.922ZM126.629 85.541C128.375 85.9277 130.162 86.5225 131.99 87.3252L130.681 88.8193C128.56 87.876 126.603 87.1436 124.81 86.6221L125.785 85.541H120.74L121.874 86.5869C120.075 87.5713 118.174 88.3447 116.17 88.9072L114.948 87.2109C116.736 86.8711 118.508 86.3145 120.266 85.541H116.961V77.1738H129.978V85.541H126.629ZM118.921 78.4658V79.5469H128.018V78.4658H118.921ZM118.921 80.751V81.8145H128.018V80.751H118.921ZM118.921 83.0361V84.1699H128.018V83.0361H118.921ZM131.217 72.2256V76.4004H115.722V72.2256H131.217ZM117.612 73.6318V75.0645H120.345V73.6318H117.612ZM129.327 75.0645V73.6318H126.576V75.0645H129.327ZM122.076 73.6318V75.0645H124.81V73.6318H122.076ZM142.963 73.3594H149.765L150.653 74.2646C150.413 76.0459 150.105 77.5693 149.73 78.835C149.32 80.2471 148.74 81.6211 147.99 82.957C148.933 84.4043 150 85.585 151.189 86.499L150.038 88.4941C148.825 87.3926 147.779 86.127 146.9 84.6973C146.191 85.6934 145.553 86.4814 144.984 87.0615C144.398 87.665 143.76 88.1865 143.068 88.626L141.829 86.9297C143.352 86.0625 144.694 84.7061 145.854 82.8604C145.831 82.8135 145.807 82.7695 145.784 82.7285C145.104 81.3691 144.556 79.7461 144.14 77.8594C143.906 76.7988 143.748 75.8936 143.666 75.1436H142.638V74.0449H141.794V88.7139H139.992V85.1367L139.421 85.2773C137.657 85.7344 135.97 86.1064 134.358 86.3936L133.778 84.5215C134.575 84.416 135.126 84.3398 135.43 84.293V74.0449H134.138V72.3311H142.963V73.3594ZM139.992 74.0449H137.179V76.1455H139.992V74.0449ZM139.992 77.6396H137.179V79.7666H139.992V77.6396ZM139.992 81.2256H137.179V84.0205C137.484 83.9678 137.713 83.9297 137.865 83.9062C138.334 83.8301 139.043 83.7041 139.992 83.5283V81.2256ZM145.371 75.1436C145.611 77.3584 146.115 79.3037 146.883 80.9795C147.703 79.2393 148.286 77.2939 148.632 75.1436H145.371ZM162.17 86.042C165.61 85.1748 167.329 83.2031 167.329 80.127C167.329 78.7852 166.984 77.6309 166.292 76.6641C165.519 75.5742 164.341 74.874 162.759 74.5635C162.413 77.2822 161.942 79.5088 161.344 81.2432C160.934 82.4561 160.424 83.6016 159.815 84.6797C158.936 86.2148 157.937 86.9824 156.818 86.9824C155.986 86.9824 155.245 86.6074 154.594 85.8574C154.178 85.3828 153.841 84.7998 153.583 84.1084C153.244 83.2119 153.074 82.248 153.074 81.2168C153.074 79.5469 153.534 78.0088 154.454 76.6025C155.385 75.167 156.595 74.124 158.083 73.4736C159.167 72.999 160.357 72.7617 161.652 72.7617C163.673 72.7617 165.39 73.3037 166.802 74.3877C168.537 75.7178 169.404 77.6016 169.404 80.0391C169.404 84.123 167.338 86.7129 163.207 87.8086L162.17 86.042ZM160.852 74.4932C159.815 74.6104 158.948 74.8887 158.25 75.3281C157.805 75.6152 157.363 75.9961 156.923 76.4707C155.704 77.8184 155.095 79.3799 155.095 81.1553C155.095 82.4502 155.353 83.4639 155.869 84.1963C156.185 84.6475 156.498 84.873 156.809 84.873C157.231 84.873 157.705 84.4072 158.233 83.4756C159.522 81.208 160.395 78.2139 160.852 74.4932ZM181.589 75.3545V73.9658H176.676V72.3838H188.497V73.9658H183.312V75.3545H187.847V82.4473H183.276C183.212 83.5195 183.024 84.4365 182.714 85.1982C184.7 86.0771 186.807 86.7188 189.033 87.123L188.119 88.8193C185.752 88.2393 183.646 87.501 181.8 86.6045C180.81 87.6533 179.143 88.3975 176.799 88.8369L175.867 87.2549C177.924 87.0264 179.377 86.5254 180.227 85.752C179.26 85.1602 178.381 84.4951 177.59 83.7568L178.812 82.7549C179.491 83.376 180.259 83.9238 181.114 84.3984C181.366 83.8242 181.521 83.1738 181.58 82.4473H177.159V75.3545H181.589ZM181.589 76.7959H178.926V78.2021H181.589V76.7959ZM183.312 76.7959V78.2021H186.062V76.7959H183.312ZM181.589 79.5557H178.926V80.9883H181.589V79.5557ZM183.312 79.5557V80.9883H186.062V79.5557H183.312ZM175.375 75.9697V88.7139H173.538V79.7227C173.11 80.4316 172.636 81.1377 172.114 81.8408L171.288 79.8545C172.114 78.6943 172.823 77.3613 173.415 75.8555C173.819 74.8418 174.312 73.3564 174.892 71.3994L176.746 71.8652C176.307 73.377 175.85 74.7451 175.375 75.9697ZM194.31 81.3838C194.298 81.4131 194.281 81.4512 194.257 81.498C193.601 83.0449 192.731 84.4658 191.647 85.7607L190.478 83.959C192.107 82.3184 193.291 80.4697 194.029 78.4131H190.759V76.7432H194.31V74.4229C193.56 74.5752 192.713 74.707 191.77 74.8184L190.962 73.2715C193.557 72.9492 195.91 72.4219 198.019 71.6895L199.065 73.1836C198.251 73.4648 197.296 73.7432 196.2 74.0186V76.7432H199.531V78.4131H196.2V79.7314C197.331 80.376 198.447 81.2285 199.548 82.2891L198.45 83.9414C197.846 83.2441 197.096 82.4854 196.2 81.665V88.7139H194.31V81.3838ZM200.559 73.623H202.396V84.0293H200.559V73.623ZM204.681 71.9707H206.553V86.5869C206.553 87.2197 206.427 87.6797 206.175 87.9668C205.882 88.3066 205.308 88.4766 204.453 88.4766C203.416 88.4766 202.422 88.4238 201.473 88.3184L201.122 86.332C202.088 86.502 203.099 86.5869 204.154 86.5869C204.412 86.5869 204.57 86.4961 204.629 86.3145C204.664 86.2148 204.681 86.0771 204.681 85.9014V71.9707ZM210.046 75.082H217.104C216.723 74.0801 216.374 73.084 216.058 72.0938L217.983 71.9707C218.287 73.0137 218.654 74.0508 219.081 75.082H225.576V76.8838H219.907C220.663 78.4482 221.61 80.0801 222.746 81.7793L220.901 82.6582C219.647 80.7598 218.618 78.835 217.816 76.8838H210.046V75.082ZM222.825 88.0459C221.659 88.1104 220.628 88.1426 219.732 88.1426C217.294 88.1426 215.498 87.9521 214.344 87.5713C212.258 86.8916 211.215 85.6084 211.215 83.7217C211.215 82.5615 211.575 81.627 212.296 80.918L213.948 81.8145C213.468 82.2891 213.228 82.9102 213.228 83.6777C213.228 84.6562 213.755 85.3418 214.81 85.7344C215.741 86.0801 217.3 86.2529 219.486 86.2529C220.411 86.2529 221.454 86.209 222.614 86.1211L222.825 88.0459ZM229.86 74.0801H234.597C235.119 73.248 235.514 72.5771 235.784 72.0674L237.744 72.3486C237.568 72.665 237.258 73.1807 236.812 73.8955L236.698 74.0801H242.894V75.8115H235.529C234.762 76.8662 234.029 77.7803 233.332 78.5537C234.439 77.8916 235.45 77.5605 236.364 77.5605C237.782 77.5605 238.711 78.2725 239.15 79.6963C240.65 79.1982 242.179 78.7061 243.738 78.2197L244.494 79.9248L244.186 80.0127L243.316 80.2412C241.676 80.6865 240.363 81.0674 239.379 81.3838C239.449 82.1455 239.499 83.1299 239.528 84.3369L237.603 84.4424C237.597 83.7451 237.586 82.9893 237.568 82.1748V81.999C234.873 82.9189 233.525 83.8447 233.525 84.7764C233.525 85.2568 233.871 85.585 234.562 85.7607C235.23 85.9307 236.426 86.0156 238.148 86.0156C239.736 86.0156 241.403 85.9248 243.149 85.7432L243.36 87.6152C241.667 87.7441 239.912 87.8086 238.096 87.8086C235.857 87.8086 234.266 87.6387 233.323 87.2988C232.157 86.877 231.574 86.1182 231.574 85.0225C231.574 84.0967 231.987 83.2793 232.813 82.5703C233.669 81.8379 235.175 81.082 237.331 80.3027C237.214 79.8516 237.058 79.5352 236.865 79.3535C236.648 79.1484 236.361 79.0459 236.004 79.0459C235.424 79.0459 234.694 79.2656 233.815 79.7051C232.731 80.2441 231.568 81.0557 230.326 82.1396L229.157 80.8037C230.979 79.1104 232.406 77.4463 233.437 75.8115H229.86V74.0801ZM251.371 74.3086V77.877H253.111V79.6787H251.371V83.2119C251.845 83.0127 252.358 82.7754 252.909 82.5L253.128 84.249C251.494 85.1455 249.616 85.9717 247.495 86.7275L246.958 84.75C247.925 84.4688 248.784 84.1904 249.534 83.915V79.6787H247.477V77.877H249.534V74.3086H247.266V72.4893H253.313V74.3086H251.371ZM263.587 72.2607V81.2783H259.597V82.9482H263.746V84.5479H259.597V86.4023H264.378V88.1162H252.557V86.4023H257.795V84.5479H253.577V82.9482H257.795V81.2783H253.867V72.2607H263.587ZM255.563 73.8428V75.9521H257.795V73.8428H255.563ZM255.563 77.5166V79.6963H257.795V77.5166H255.563ZM261.856 79.6963V77.5166H259.597V79.6963H261.856ZM261.856 75.9521V73.8428H259.597V75.9521H261.856ZM272.318 75.7324H274.445V87.123C274.445 87.5977 274.354 87.9492 274.173 88.1777C273.962 88.4473 273.525 88.582 272.863 88.582C272.178 88.582 271.478 88.5352 270.763 88.4414L270.455 86.8242C271.17 86.918 271.8 86.9648 272.345 86.9648C272.597 86.9648 272.749 86.9238 272.802 86.8418C272.843 86.7773 272.863 86.6572 272.863 86.4814V83.7393H268.97C268.847 85.7842 268.313 87.46 267.37 88.7666L265.981 87.5801C266.544 86.6836 266.922 85.8428 267.115 85.0576C267.297 84.3369 267.388 83.4844 267.388 82.5V77.1035C267.253 77.25 267.042 77.458 266.755 77.7275L265.823 76.1982C267.241 74.9209 268.261 73.4033 268.882 71.6455L270.121 72.3486H272.986L273.725 73.1221C273.314 74.0361 272.846 74.9062 272.318 75.7324ZM271.571 77.1914V79.0283H272.863V77.1914H271.571ZM270.218 77.1914H268.97V79.0283H270.218V77.1914ZM270.561 75.7324C271.012 75.0234 271.366 74.3994 271.624 73.8604H269.708C269.333 74.5459 268.938 75.1699 268.521 75.7324H270.561ZM268.97 82.2979H270.218V80.3906H268.97V82.2979ZM271.571 82.2979H272.863V80.3906H271.571V82.2979ZM278.945 73.9482C278.869 74.6689 278.731 75.293 278.532 75.8203C278.075 77.0098 277.188 77.9941 275.869 78.7734L274.753 77.6045C275.567 77.1592 276.159 76.6348 276.528 76.0312C276.856 75.5039 277.082 74.8096 277.205 73.9482H274.911V72.4189H282.689C282.678 75.0498 282.561 76.7139 282.338 77.4111C282.203 77.833 281.978 78.1201 281.661 78.2725C281.438 78.3779 281.113 78.4307 280.686 78.4307C280.146 78.4307 279.531 78.3955 278.84 78.3252L278.567 76.7783C279.177 76.8955 279.687 76.9541 280.097 76.9541C280.366 76.9541 280.533 76.8984 280.598 76.7871C280.732 76.5352 280.832 75.5889 280.896 73.9482H278.945ZM278.365 80.4521V78.9932H280.149V80.4521H282.672V81.9814H280.149V83.7129H283.226V85.3301H280.149V88.6963H278.365V85.3301H274.929V83.7129H278.365V81.9814H276.862C276.851 82.0107 276.833 82.0605 276.81 82.1309C276.651 82.5879 276.426 83.0742 276.133 83.5898L274.744 82.6494C275.301 81.5947 275.685 80.3936 275.896 79.0459L277.434 79.2656C277.375 79.7402 277.316 80.1357 277.258 80.4521H278.365ZM286.762 72.3486H288.837V82.8252C288.837 85.0342 289.997 86.1387 292.317 86.1387C293.846 86.1387 295.1 85.4326 296.079 84.0205C296.712 83.1123 297.28 81.7061 297.784 79.8018L299.568 80.8828C298.97 82.998 298.253 84.5801 297.415 85.6289C296.096 87.2637 294.382 88.0811 292.273 88.0811C290.07 88.0811 288.517 87.4014 287.615 86.042C287.046 85.1924 286.762 84.0967 286.762 82.7549V72.3486ZM302.173 73.7461C307.564 73.6641 312.658 73.5264 317.457 73.333L317.563 75.082C315.447 75.1875 313.801 75.5098 312.623 76.0488C311.498 76.5645 310.596 77.2793 309.916 78.1934C309.143 79.2305 308.756 80.3848 308.756 81.6562C308.756 82.9219 309.196 83.8711 310.074 84.5039C311.082 85.2246 312.629 85.7197 314.715 85.9893L314.302 87.9668C311.583 87.6035 309.67 86.9004 308.563 85.8574C307.373 84.7441 306.779 83.3613 306.779 81.709C306.779 80.209 307.318 78.8086 308.396 77.5078C309.181 76.5527 310.256 75.7852 311.621 75.2051C309.201 75.2871 306.081 75.4248 302.261 75.6182L302.173 73.7461ZM328.939 83.0889C327.855 86.2764 326.639 87.8701 325.292 87.8701C324.331 87.8701 323.508 87.1963 322.822 85.8486C322.295 84.8057 321.931 83.6572 321.732 82.4033C321.492 80.8799 321.372 78.9229 321.372 76.5322C321.372 75.4951 321.41 74.3818 321.486 73.1924L323.552 73.3506C323.475 74.54 323.437 75.6709 323.437 76.7432C323.437 80.5049 323.789 83.127 324.492 84.6094C324.779 85.2188 325.049 85.5234 325.301 85.5234C325.465 85.5234 325.67 85.3359 325.916 84.9609C326.42 84.1992 326.906 83.1504 327.375 81.8145L328.939 83.0889ZM334.503 85.1807C334.204 82.708 333.838 80.71 333.404 79.1865C332.877 77.3408 332.264 75.6504 331.567 74.1152L333.439 73.6582C334.406 75.5742 335.124 77.4199 335.593 79.1953C335.979 80.6367 336.299 82.4707 336.551 84.6973L334.503 85.1807ZM341.74 72.5859H351.601L352.541 74.0449C349.495 75.9082 346.855 77.6016 344.622 79.125C346.064 78.5215 347.511 78.2197 348.964 78.2197C350.271 78.2197 351.361 78.4277 352.234 78.8438C353.042 79.2305 353.672 79.7578 354.123 80.4258C354.592 81.1348 354.827 81.9492 354.827 82.8691C354.827 84.1582 354.387 85.2363 353.508 86.1035C352.905 86.707 352.131 87.1641 351.188 87.4746C349.952 87.8789 348.598 88.0811 347.127 88.0811C345.434 88.0811 344.186 87.7676 343.383 87.1406C342.756 86.6484 342.443 85.9834 342.443 85.1455C342.443 84.5127 342.671 83.9502 343.128 83.458C343.82 82.7139 344.754 82.3418 345.932 82.3418C347.18 82.3418 348.179 82.7607 348.929 83.5986C349.474 84.208 349.867 85.0254 350.107 86.0508C351.912 85.4766 352.814 84.416 352.814 82.8691C352.814 81.6973 352.325 80.833 351.346 80.2764C350.69 79.9014 349.858 79.7139 348.85 79.7139C347.344 79.7139 345.985 79.9219 344.772 80.3379C343.875 80.6426 342.671 81.3779 341.16 82.5439L339.92 81.0498C341.549 79.6436 343.404 78.2168 345.484 76.7695C346.919 75.7734 348.185 74.9561 349.281 74.3174H341.74V72.5859ZM348.402 86.3936C347.986 84.7354 347.168 83.9062 345.95 83.9062C345.276 83.9062 344.789 84.1201 344.491 84.5479C344.35 84.7412 344.28 84.9492 344.28 85.1719C344.28 85.6348 344.608 85.9834 345.264 86.2178C345.739 86.3818 346.374 86.4639 347.171 86.4639C347.511 86.4639 347.921 86.4404 348.402 86.3936ZM364.964 72.3311H367.662L367.231 83.7041H365.395L364.964 72.3311ZM364.964 85.2861H367.662V87.9932H364.964V85.2861Z" fill="black"/>
<path d="M81.4002 110.794V123.749H79.5633V106.61H81.4002V110.328L82.3318 109.458C82.8533 110.729 83.2693 111.939 83.5799 113.088L82.2615 114.116C81.951 112.628 81.6639 111.521 81.4002 110.794ZM89.8201 110.442H94.4168V112.209H86.6385V120.146C86.6385 120.585 86.8465 120.86 87.2625 120.972C87.7254 121.095 88.5486 121.156 89.7322 121.156C90.8631 121.156 92.1521 121.077 93.5994 120.919V122.809C92.2576 122.932 90.9393 122.993 89.6443 122.993C87.9393 122.993 86.7908 122.932 86.199 122.809C85.5135 122.662 85.074 122.346 84.8807 121.859C84.7811 121.596 84.7312 121.253 84.7312 120.831V112.209H83.3602V110.442H87.8426V106.918H89.8201V110.442ZM76.9529 115.628C77.2107 114.444 77.4012 112.868 77.5242 110.899L77.5682 110.196L79.0975 110.354C79.074 112.71 78.8689 114.737 78.4822 116.437L76.9529 115.628ZM97.9623 107.349H100.037V117.825C100.037 120.034 101.197 121.139 103.517 121.139C105.046 121.139 106.3 120.433 107.279 119.021C107.912 118.112 108.48 116.706 108.984 114.802L110.768 115.883C110.17 117.998 109.453 119.58 108.615 120.629C107.296 122.264 105.582 123.081 103.473 123.081C101.27 123.081 99.7172 122.401 98.8148 121.042C98.2465 120.192 97.9623 119.097 97.9623 117.755V107.349ZM125.291 123.274C122.643 121.212 119.174 118.909 114.885 116.366C114.094 115.903 113.698 115.417 113.698 114.907C113.698 114.544 113.871 114.201 114.217 113.879C114.363 113.738 114.732 113.504 115.324 113.176C117.486 111.975 119.818 110.542 122.32 108.878C123.264 108.257 124.122 107.656 124.896 107.076L126.047 108.588C123.029 110.727 119.933 112.678 116.757 114.441C116.446 114.617 116.291 114.764 116.291 114.881C116.291 114.975 116.376 115.08 116.546 115.197C116.593 115.232 116.865 115.396 117.363 115.689C121.383 118.062 124.409 120.005 126.442 121.517L125.291 123.274ZM139.348 108.359H146.256V109.977H132.704V114.081C132.704 116.278 132.551 118.127 132.247 119.627C131.965 121.039 131.47 122.401 130.761 123.714L129.214 122.378C130.234 120.269 130.744 117.503 130.744 114.081V108.359H137.371V106.61H139.348V108.359ZM139.867 112.517H145.518V114.099H139.867V116.551H144.947V123.714H143.004V122.668H135.657V123.714H133.732V116.551H137.96V110.354H139.867V112.517ZM135.657 118.115V121.086H143.004V118.115H135.657ZM161.026 110.425H164.62V120.04H157.132V110.425H159.382C159.464 110.126 159.59 109.604 159.76 108.86H156.666V107.296H165.359V108.86H161.571C161.418 109.394 161.254 109.871 161.078 110.293L161.026 110.425ZM162.836 111.813H158.846V113.202H162.836V111.813ZM158.846 114.521V115.865H162.836V114.521H158.846ZM158.846 117.184V118.634H162.836V117.184H158.846ZM155.682 110.627V115.988H148.835V110.627H155.682ZM150.584 112.121V114.512H153.95V112.121H150.584ZM152.65 120.26C153.083 119.064 153.455 117.749 153.766 116.313L155.515 116.762C155.222 117.822 154.876 118.842 154.478 119.82L155.374 119.601C155.732 119.513 156.054 119.431 156.341 119.354L156.429 120.866C154.191 121.622 151.618 122.325 148.712 122.976L148.132 121.227C149.521 120.957 150.698 120.708 151.665 120.479L152.65 120.26ZM148.255 107.296H156.086V108.878H148.255V107.296ZM149.951 120.418C149.705 119.27 149.368 118.142 148.941 117.034L150.602 116.472C150.983 117.397 151.322 118.52 151.621 119.838L149.951 120.418ZM164.119 123.767C163.27 122.706 162.35 121.818 161.36 121.104L162.696 120.093C163.727 120.772 164.673 121.575 165.534 122.501L164.119 123.767ZM155.313 122.633C156.526 122.029 157.595 121.194 158.521 120.128L159.98 120.972C158.919 122.237 157.771 123.21 156.534 123.89L155.313 122.633ZM168.72 122.958C168.497 120.966 168.386 118.985 168.386 117.017C168.386 113.642 168.635 110.437 169.133 107.401L171.066 107.604C170.592 110.229 170.354 113.19 170.354 116.489C170.354 118.704 170.477 120.775 170.723 122.703L168.72 122.958ZM173.993 109.036H182.439V110.908H173.993V109.036ZM183.037 121.877C181.865 122.059 180.473 122.149 178.862 122.149C174.813 122.149 172.789 120.96 172.789 118.581C172.789 117.638 173.041 116.814 173.545 116.111L175.206 116.85C174.889 117.295 174.731 117.796 174.731 118.353C174.731 119.038 175.074 119.51 175.76 119.768C176.521 120.061 177.561 120.207 178.88 120.207C180.304 120.207 181.622 120.113 182.835 119.926L183.037 121.877ZM190.599 114.266V123.714H188.657V116.305C188.041 116.885 187.4 117.436 186.732 117.957L185.704 116.261C187.731 114.854 189.579 112.892 191.249 110.372L192.761 111.365C192.099 112.402 191.378 113.369 190.599 114.266ZM199.977 114.169V121.947C199.977 122.574 199.798 123.014 199.441 123.266C199.148 123.465 198.67 123.564 198.008 123.564C196.924 123.564 195.881 123.529 194.879 123.459L194.537 121.569C195.574 121.669 196.491 121.719 197.287 121.719C197.621 121.719 197.824 121.654 197.894 121.525C197.953 121.426 197.982 121.285 197.982 121.104V114.169H192.506V112.367H203.053V114.169H199.977ZM185.827 110.838C187.672 109.807 189.24 108.421 190.529 106.681L192.076 107.709C190.482 109.719 188.747 111.283 186.872 112.402L185.827 110.838ZM193.693 107.586H201.849V109.353H193.693V107.586ZM217.277 123.274C214.629 121.212 211.16 118.909 206.871 116.366C206.08 115.903 205.685 115.417 205.685 114.907C205.685 114.544 205.857 114.201 206.203 113.879C206.35 113.738 206.719 113.504 207.311 113.176C209.473 111.975 211.805 110.542 214.307 108.878C215.25 108.257 216.108 107.656 216.882 107.076L218.033 108.588C215.016 110.727 211.919 112.678 208.743 114.441C208.433 114.617 208.277 114.764 208.277 114.881C208.277 114.975 208.362 115.08 208.532 115.197C208.579 115.232 208.852 115.396 209.35 115.689C213.369 118.062 216.396 120.005 218.429 121.517L217.277 123.274ZM226.167 107.639V120.233H223.196V121.64H221.614V107.639H226.167ZM223.196 109.291V113.018H224.69V109.291H223.196ZM223.196 114.6V118.546H224.69V114.6H223.196ZM232.02 107.313V113.483H228.575V115.47H231.589V117.104H228.575V119.161H232.161V120.813H228.575V123.714H226.94V107.313H232.02ZM230.491 108.913H228.575V111.919H230.491V108.913ZM237.654 107.313V113.483H232.723V111.901H235.984V108.948H232.706V107.313H237.654ZM235.061 121.517C234.194 122.431 233.157 123.201 231.95 123.828L230.834 122.378C232.134 121.821 233.207 121.112 234.05 120.251C233.3 119.132 232.741 117.89 232.372 116.524H231.932V114.925H237.188L238.032 115.646C237.622 117.421 236.986 118.936 236.125 120.189C236.921 120.957 237.803 121.584 238.77 122.07L237.777 123.723C236.711 123.055 235.805 122.319 235.061 121.517ZM233.892 116.524C234.191 117.403 234.589 118.203 235.087 118.924C235.509 118.273 235.855 117.474 236.125 116.524H233.892ZM240.619 110.495H244.504C244.68 109.593 244.876 108.471 245.093 107.129L245.137 106.874L247.062 107.164C246.863 108.406 246.657 109.517 246.446 110.495H247.51C248.916 110.495 249.924 110.812 250.533 111.444C251.078 112.013 251.351 112.897 251.351 114.099C251.351 116.12 251.137 118.01 250.709 119.768C250.463 120.764 250.164 121.499 249.813 121.974C249.367 122.565 248.749 122.861 247.958 122.861C247.009 122.861 245.972 122.557 244.847 121.947L245.067 120.093C246.18 120.626 247.044 120.893 247.659 120.893C247.982 120.893 248.231 120.72 248.406 120.374C248.594 119.999 248.773 119.457 248.943 118.748C249.277 117.312 249.444 115.804 249.444 114.222C249.444 113.39 249.277 112.851 248.943 112.604C248.655 112.399 248.143 112.297 247.404 112.297H246.051C245.119 116.445 243.783 119.984 242.043 122.914L240.277 121.947C242.075 118.93 243.359 115.713 244.126 112.297H240.619V110.495ZM255.218 119.17C254.556 116.732 253.51 114.339 252.08 111.989L253.794 111.216C255.271 113.571 256.375 115.941 257.108 118.326L255.218 119.17ZM253.917 110.75C253.554 109.801 252.968 108.746 252.159 107.586L253.522 107.076C254.231 108.078 254.825 109.118 255.306 110.196L253.917 110.75ZM256.281 109.994C255.824 108.863 255.241 107.8 254.532 106.804L255.824 106.373C256.498 107.176 257.087 108.178 257.591 109.379L256.281 109.994ZM269.618 112.965H271.613V117.79C272.984 118.394 274.387 119.19 275.823 120.181L274.812 121.824C273.804 121.086 272.738 120.4 271.613 119.768C271.549 120.805 271.212 121.602 270.602 122.158C269.923 122.773 268.971 123.081 267.746 123.081C266.562 123.081 265.587 122.812 264.819 122.272C264.069 121.739 263.694 120.995 263.694 120.04C263.694 119.038 264.166 118.235 265.109 117.632C265.842 117.163 266.779 116.929 267.922 116.929C268.455 116.929 269.02 116.993 269.618 117.122V112.965ZM269.618 118.924C268.921 118.684 268.262 118.563 267.64 118.563C267.031 118.563 266.542 118.672 266.173 118.889C265.698 119.17 265.461 119.545 265.461 120.014C265.461 120.588 265.801 121.007 266.48 121.271C266.82 121.399 267.227 121.464 267.702 121.464C268.464 121.464 269.012 121.142 269.346 120.497C269.527 120.151 269.618 119.747 269.618 119.284V118.924ZM260.187 109.599H263.545C263.844 108.585 264.084 107.691 264.265 106.918L266.19 107.155C265.956 108.017 265.716 108.831 265.47 109.599H268.678V111.365H264.898C263.849 114.371 262.619 116.914 261.207 118.994L259.572 118.062C260.908 116.082 262.036 113.85 262.956 111.365H260.187V109.599ZM274.865 113.879C273.564 112.432 272.07 111.113 270.383 109.924L271.543 108.658C273.219 109.742 274.748 111.005 276.131 112.446L274.865 113.879ZM286.663 118.089C285.579 121.276 284.364 122.87 283.016 122.87C282.055 122.87 281.232 122.196 280.546 120.849C280.019 119.806 279.656 118.657 279.456 117.403C279.216 115.88 279.096 113.923 279.096 111.532C279.096 110.495 279.134 109.382 279.21 108.192L281.276 108.351C281.2 109.54 281.162 110.671 281.162 111.743C281.162 115.505 281.513 118.127 282.216 119.609C282.503 120.219 282.773 120.523 283.025 120.523C283.189 120.523 283.394 120.336 283.64 119.961C284.144 119.199 284.63 118.15 285.099 116.814L286.663 118.089ZM292.227 120.181C291.928 117.708 291.562 115.71 291.128 114.187C290.601 112.341 289.989 110.65 289.291 109.115L291.163 108.658C292.13 110.574 292.848 112.42 293.317 114.195C293.704 115.637 294.023 117.471 294.275 119.697L292.227 120.181ZM297.75 119.495H300.703V122.448H297.75V119.495ZM304.591 119.495H307.545V122.448H304.591V119.495ZM311.433 119.495H314.386V122.448H311.433V119.495Z" fill="black"/>
<path d="M90.8211 143.966L92.0779 144.994C91.2576 148.744 89.9275 151.647 88.0877 153.704C87.0682 154.841 85.7498 155.837 84.1326 156.692C82.9842 157.296 81.7508 157.776 80.4324 158.134L79.4129 156.402C82.4246 155.617 84.7625 154.363 86.4266 152.641C85.0555 151.41 83.5437 150.32 81.8914 149.371L83.0428 147.947C84.6541 148.785 86.1863 149.816 87.6395 151.041C88.782 149.213 89.4998 147.443 89.7928 145.732H83.6053C82.1873 147.941 80.5174 149.632 78.5955 150.804L77.3035 149.406C79.1609 148.287 80.6873 146.808 81.8826 144.968C82.4978 144.03 82.9754 143.02 83.3152 141.936L85.2225 142.401C85.0291 142.929 84.8123 143.45 84.5721 143.966H90.8211ZM101.424 157.932V148.914C99.643 150.109 97.6098 151.117 95.3246 151.938L94.2611 150.153C96.8568 149.28 99.1332 148.155 101.09 146.778C103.012 145.425 104.723 143.875 106.223 142.129L107.919 143.192C106.589 144.722 105.107 146.125 103.472 147.402V157.932H101.424ZM110.173 156.024C111.192 154.524 112.068 152.688 112.801 150.514C113.598 148.135 114.102 145.718 114.312 143.263L116.325 143.676C115.804 147.273 115.104 150.297 114.225 152.746C113.592 154.527 112.812 156.089 111.887 157.431L110.173 156.024ZM124.174 157.519C123.131 155.767 122.176 153.654 121.309 151.182C120.482 148.82 119.8 146.312 119.261 143.658L121.168 143.069C122.176 148.126 123.761 152.5 125.923 156.191L124.174 157.519ZM124.815 141.426C125.208 141.426 125.583 141.534 125.94 141.751C126.292 141.962 126.564 142.249 126.758 142.612C126.934 142.94 127.021 143.283 127.021 143.641C127.021 144.215 126.816 144.722 126.406 145.161C125.973 145.624 125.437 145.855 124.798 145.855C124.481 145.855 124.177 145.788 123.884 145.653C123.521 145.483 123.225 145.234 122.996 144.906C122.727 144.52 122.592 144.095 122.592 143.632C122.592 143.274 122.683 142.929 122.864 142.595C123.046 142.261 123.292 141.991 123.603 141.786C123.972 141.546 124.376 141.426 124.815 141.426ZM124.807 142.507C124.59 142.507 124.385 142.568 124.191 142.691C123.846 142.908 123.673 143.228 123.673 143.649C123.673 143.948 123.775 144.206 123.98 144.423C124.203 144.657 124.479 144.774 124.807 144.774C124.994 144.774 125.167 144.733 125.325 144.651C125.735 144.44 125.94 144.106 125.94 143.649C125.94 143.327 125.826 143.055 125.598 142.832C125.387 142.615 125.123 142.507 124.807 142.507ZM136.236 146.937V145.97H128.8V144.528H136.236V143.649C134.103 143.743 132.421 143.802 131.191 143.825L130.453 142.419C135.668 142.261 139.658 141.968 142.423 141.54L143.707 142.929C142.171 143.157 140.522 143.342 138.758 143.482L138.143 143.535V144.528H145.702V145.97H138.143V146.937H144.137V153.001H138.143V154.082H144.735V155.488H138.143V156.675H145.79V158.116H128.695V156.675H136.236V155.488H129.75V154.082H136.236V153.001H130.347V146.937H136.236ZM136.236 148.193H132.219V149.354H136.236V148.193ZM138.143 148.193V149.354H142.248V148.193H138.143ZM136.236 150.593H132.219V151.779H136.236V150.593ZM138.143 150.593V151.779H142.248V150.593H138.143ZM158.265 152.588C158.148 154.369 157.793 155.679 157.201 156.517C156.451 157.571 155.233 158.315 153.545 158.749L152.446 157.29C153.993 156.968 155.074 156.367 155.69 155.488C156.135 154.855 156.396 153.889 156.472 152.588H154.916V142.313H163.31V152.588H161.218V156.262C161.218 156.479 161.282 156.613 161.411 156.666C161.523 156.713 161.742 156.736 162.071 156.736C162.569 156.736 162.862 156.631 162.949 156.42C163.031 156.221 163.099 155.459 163.152 154.135L164.804 154.697C164.745 156.355 164.596 157.393 164.356 157.809C164.197 158.078 163.922 158.263 163.529 158.362C163.19 158.45 162.621 158.494 161.824 158.494C161.127 158.494 160.664 158.474 160.436 158.433C159.779 158.304 159.451 157.899 159.451 157.22V152.588H158.265ZM156.753 143.843V145.372H161.473V143.843H156.753ZM156.753 146.708V148.22H161.473V146.708H156.753ZM156.753 149.573V151.111H161.473V149.573H156.753ZM151.972 149.239C152.986 149.89 153.879 150.593 154.653 151.349L153.738 152.966C153.229 152.38 152.64 151.779 151.972 151.164V158.714H150.135V151.577C150.006 151.718 149.772 151.976 149.432 152.351C149.162 152.644 148.758 153.048 148.219 153.563L147.305 151.814C148.383 150.889 149.362 149.831 150.24 148.642C150.862 147.804 151.36 146.983 151.735 146.181H147.736V144.432H150.091V141.61H151.928V144.432H153.484L154.275 145.188C153.612 146.641 152.845 147.982 151.972 149.213V149.239ZM173.693 142.331H176.391L175.961 153.704H174.124L173.693 142.331ZM173.693 155.286H176.391V157.993H173.693V155.286ZM195.054 144.08V146.919H201.435V148.65H195.054V151.076H202.498V152.843H195.054V156.798C195.054 157.501 194.858 157.987 194.465 158.257C194.166 158.462 193.668 158.564 192.971 158.564C191.829 158.564 190.712 158.506 189.622 158.389L189.28 156.499C190.633 156.675 191.656 156.763 192.347 156.763C192.675 156.763 192.88 156.701 192.962 156.578C193.015 156.49 193.041 156.344 193.041 156.139V152.843H185.395V151.076H193.041V148.65H186.291V146.919H193.041V144.335L192.558 144.388C190.882 144.569 189.13 144.71 187.302 144.81L186.546 143.175C191.187 142.981 195.406 142.466 199.203 141.628L200.301 143.14C198.661 143.509 196.912 143.822 195.054 144.08ZM207.521 146.233V145.029H204.444V143.447H207.521V141.61H209.19V143.447H212.126V145.029H209.19V146.233H211.871V152.843H209.19V154.047H212.39V155.646H209.19V158.705H207.521V155.646H204.225V154.047H207.521V152.843H204.928V146.233H207.521ZM207.591 147.675H206.316V148.879H207.591V147.675ZM209.138 147.675V148.879H210.447V147.675H209.138ZM207.591 150.162H206.316V151.419H207.591V150.162ZM209.138 150.162V151.419H210.447V150.162H209.138ZM215.8 152.201V150.232H217.566V152.201H220.897V153.818H217.566V156.552H221.381V158.169H211.889V156.552H215.8V153.818H212.706V152.201H215.8ZM216.802 148.668C215.718 149.553 214.44 150.306 212.97 150.927L211.924 149.564C213.359 149.014 214.549 148.34 215.492 147.543C214.355 146.4 213.538 145.226 213.04 144.019H212.451V142.401H219.755L220.73 143.263C219.91 145.05 218.999 146.474 217.997 147.534C219.011 148.214 220.244 148.771 221.697 149.204L220.818 150.733C219.295 150.212 217.956 149.523 216.802 148.668ZM214.701 144.019C215.199 144.909 215.847 145.729 216.644 146.479C217.335 145.718 217.918 144.897 218.393 144.019H214.701ZM224.759 157.958C224.537 155.966 224.425 153.985 224.425 152.017C224.425 148.642 224.674 145.437 225.172 142.401L227.106 142.604C226.631 145.229 226.394 148.19 226.394 151.489C226.394 153.704 226.517 155.775 226.763 157.703L224.759 157.958ZM230.033 144.036H238.479V145.908H230.033V144.036ZM239.077 156.877C237.905 157.059 236.513 157.149 234.902 157.149C230.853 157.149 228.829 155.96 228.829 153.581C228.829 152.638 229.081 151.814 229.585 151.111L231.246 151.85C230.929 152.295 230.771 152.796 230.771 153.353C230.771 154.038 231.114 154.51 231.799 154.768C232.561 155.061 233.601 155.207 234.92 155.207C236.343 155.207 237.662 155.113 238.875 154.926L239.077 156.877ZM254.417 147.446C255.876 147.974 257.529 148.387 259.374 148.686L258.478 150.312C258.138 150.235 257.754 150.145 257.326 150.039V158.714H255.472V154.891H249.864C249.683 155.775 249.361 156.537 248.898 157.176C248.511 157.715 247.948 158.245 247.21 158.767L245.848 157.36C246.891 156.71 247.582 155.901 247.922 154.935C248.145 154.308 248.256 153.525 248.256 152.588V150.276C247.916 150.37 247.503 150.464 247.017 150.558L246.006 149.081C247.946 148.782 249.689 148.287 251.236 147.596C250.011 146.764 249.009 145.85 248.23 144.854H246.709V143.342H251.71V141.61H253.617V143.342H258.908V144.854H257.115C256.389 145.773 255.489 146.638 254.417 147.446ZM252.818 148.475C252.027 148.908 251.118 149.315 250.093 149.696V150.47H255.472V149.512C254.335 149.131 253.45 148.785 252.818 148.475ZM252.791 146.699C253.723 146.037 254.441 145.422 254.945 144.854H250.295C250.951 145.533 251.783 146.148 252.791 146.699ZM255.472 151.911H250.093V152.289C250.093 152.658 250.081 153.021 250.058 153.379H255.472V151.911ZM245.145 145.75C244.196 144.625 243.29 143.714 242.429 143.017L243.774 141.751C244.811 142.507 245.722 143.383 246.507 144.379L245.145 145.75ZM244.565 150.285C243.697 149.201 242.792 148.261 241.849 147.464L243.185 146.146C244.275 146.948 245.209 147.859 245.988 148.879L244.565 150.285ZM242.069 157.202C243.235 155.726 244.421 153.666 245.628 151.023L247.105 152.21C246.144 154.601 245.01 156.754 243.703 158.67L242.069 157.202ZM268.562 142.023H270.505V144.238H276.033V145.908H270.505V148H275.725V149.652H270.505V152.368C272.591 153.071 274.647 154.129 276.675 155.541L275.637 157.211C274.102 156.062 272.391 155.049 270.505 154.17C270.458 155.172 270.264 155.948 269.925 156.499C269.333 157.454 268.167 157.932 266.427 157.932C265.085 157.932 264.007 157.68 263.192 157.176C262.284 156.613 261.83 155.852 261.83 154.891C261.83 153.742 262.442 152.893 263.667 152.342C264.487 151.979 265.554 151.797 266.866 151.797C267.382 151.797 267.947 151.838 268.562 151.92V149.652H262.331V148H268.562V145.908H261.953V144.238H268.562V142.023ZM268.562 153.555C267.865 153.408 267.197 153.335 266.558 153.335C265.779 153.335 265.146 153.449 264.66 153.678C264.08 153.953 263.79 154.346 263.79 154.855C263.79 155.283 264.015 155.629 264.467 155.893C264.924 156.162 265.533 156.297 266.295 156.297C267.197 156.297 267.818 156.057 268.158 155.576C268.428 155.201 268.562 154.642 268.562 153.897V153.555ZM290.345 142.182H292.305V146.04H295.539V147.807H292.305V151.103C292.305 151.788 292.191 152.271 291.962 152.553C291.681 152.904 291.174 153.08 290.442 153.08C289.469 153.08 288.529 152.919 287.62 152.597V150.9C288.576 151.164 289.311 151.296 289.827 151.296C290.172 151.296 290.345 151.088 290.345 150.672V147.807H284.377V154.627C284.377 155.008 284.445 155.271 284.579 155.418C284.726 155.588 285.045 155.699 285.537 155.752C286.299 155.84 287.369 155.884 288.745 155.884C290.363 155.884 291.986 155.813 293.615 155.673V157.527C291.863 157.633 290.134 157.686 288.429 157.686C285.892 157.686 284.287 157.539 283.613 157.246C282.804 156.9 282.4 156.153 282.4 155.005V147.807H279.236V146.04H282.4V142.349H284.377V146.04H290.345V142.182ZM298.408 144.739H302.513C302.677 144.013 302.861 143.072 303.066 141.918L305.053 142.164C304.877 143.072 304.689 143.931 304.49 144.739H310.344V146.488H304.077C302.905 151.17 301.61 155.052 300.192 158.134L298.25 157.448C299.791 154.032 301.074 150.379 302.1 146.488H298.408V144.739ZM313.965 157.668C313.016 157.791 311.949 157.853 310.766 157.853C308.85 157.853 307.402 157.688 306.424 157.36C306.049 157.231 305.729 157.05 305.466 156.815C304.95 156.347 304.692 155.749 304.692 155.022C304.692 154.278 304.933 153.622 305.413 153.054L306.978 153.977C306.796 154.205 306.705 154.457 306.705 154.732C306.705 155.207 306.922 155.515 307.355 155.655C308.018 155.866 308.961 155.972 310.186 155.972C311.375 155.972 312.562 155.884 313.745 155.708L313.965 157.668ZM305.721 148.958C308.018 148.694 310.531 148.554 313.262 148.536L313.35 150.32C310.672 150.332 308.214 150.458 305.976 150.698L305.721 148.958ZM325.245 153.089C324.161 156.276 322.945 157.87 321.597 157.87C320.636 157.87 319.813 157.196 319.128 155.849C318.6 154.806 318.237 153.657 318.038 152.403C317.797 150.88 317.677 148.923 317.677 146.532C317.677 145.495 317.715 144.382 317.792 143.192L319.857 143.351C319.781 144.54 319.743 145.671 319.743 146.743C319.743 150.505 320.094 153.127 320.797 154.609C321.085 155.219 321.354 155.523 321.606 155.523C321.77 155.523 321.975 155.336 322.221 154.961C322.725 154.199 323.212 153.15 323.68 151.814L325.245 153.089ZM330.808 155.181C330.509 152.708 330.143 150.71 329.71 149.187C329.182 147.341 328.57 145.65 327.873 144.115L329.745 143.658C330.712 145.574 331.429 147.42 331.898 149.195C332.285 150.637 332.604 152.471 332.856 154.697L330.808 155.181ZM342.721 142.331H345.419L344.988 153.704H343.152L342.721 142.331ZM342.721 155.286H345.419V157.993H342.721V155.286Z" fill="black"/>
<path d="M83.7902 179.036C84.0656 178.286 84.2971 177.478 84.4846 176.61L86.7346 176.971C86.4943 177.674 86.2219 178.362 85.9172 179.036H92.3684V193.714H90.3732V192.466H81.0656V193.714H79.1057V179.036H83.7902ZM81.0656 180.688V182.965H90.3732V180.688H81.0656ZM81.0656 184.529V186.779H90.3732V184.529H81.0656ZM81.0656 188.326V190.796H90.3732V188.326H81.0656ZM104.756 187.685V190.726C104.756 191.142 104.926 191.394 105.265 191.481C105.558 191.558 106.294 191.596 107.471 191.596C109.346 191.596 110.387 191.446 110.592 191.147C110.732 190.942 110.826 190.128 110.873 188.704L112.815 189.284C112.751 190.503 112.663 191.332 112.552 191.771C112.382 192.428 112.013 192.858 111.444 193.063C110.829 193.286 109.437 193.397 107.269 193.397C105.342 193.397 104.179 193.33 103.78 193.195C103.1 192.961 102.761 192.431 102.761 191.604V187.834L96.2742 188.326L96.116 186.656L102.761 186.138V184.046C100.997 184.333 99.5027 184.541 98.2781 184.67L97.5926 183.088C101.905 182.672 105.655 181.922 108.843 180.838L110.284 182.191C108.362 182.818 106.519 183.308 104.756 183.659V185.979L113.123 185.32L113.246 187.034L104.756 187.685ZM105.617 178.535H112.675V182.297H110.697V180.152H98.5242V182.297H96.5643V178.535H103.639V176.61H105.617V178.535ZM118.602 177.92C119.071 178.875 119.604 180.041 120.202 181.418C120.782 181.207 121.526 180.955 122.434 180.662C122.926 180.504 123.298 180.384 123.55 180.302C123.14 179.329 122.704 178.447 122.241 177.656L123.858 177.041C124.391 177.914 124.877 178.857 125.317 179.871C126.084 179.713 126.735 179.634 127.268 179.634C128.381 179.634 129.289 179.915 129.993 180.478C130.098 180.565 130.189 180.65 130.265 180.732C131.056 181.576 131.452 182.578 131.452 183.738C131.452 185.537 130.757 186.823 129.369 187.597C128.548 188.06 127.256 188.388 125.493 188.581L124.772 186.946C126.389 186.812 127.59 186.501 128.375 186.015C129.084 185.581 129.439 184.805 129.439 183.686C129.439 182.959 129.248 182.391 128.868 181.98C128.481 181.559 127.942 181.348 127.25 181.348C126.94 181.348 126.518 181.395 125.985 181.488C126.26 182.215 126.53 183.012 126.793 183.879L125.097 184.696C124.792 183.63 124.499 182.71 124.218 181.937C123.181 182.235 122.071 182.602 120.887 183.035C122.293 186.48 123.451 189.674 124.359 192.615L122.539 193.222C121.59 190.099 120.445 186.92 119.103 183.686L118.787 183.809C117.439 184.324 116.484 184.696 115.921 184.925L115.271 183.176L115.517 183.088C116.871 182.59 117.837 182.235 118.417 182.024C117.861 180.729 117.328 179.561 116.818 178.518L118.602 177.92ZM139.049 183.598V193.705H137.449V190.321C136.277 190.72 135.076 191.051 133.846 191.314L133.38 189.592C133.714 189.527 134.068 189.454 134.443 189.372V178.966H133.617V177.366H139.805V178.588H141.861V176.61H143.575V178.588H145.746V180.029H145.21L145.192 180.126C145.04 180.788 144.85 181.436 144.621 182.068H146.3L146.265 180.627C146.241 179.637 146.229 178.465 146.229 177.111V176.61H147.838V177.261C147.838 179.065 147.853 180.428 147.882 181.348L147.899 182.068H150.949V183.598H147.952C147.958 183.697 147.961 183.797 147.961 183.896C147.984 184.717 148.046 185.654 148.146 186.709C148.55 185.982 148.969 185.118 149.402 184.116L150.729 185.013C150.015 186.542 149.273 187.887 148.506 189.047C148.658 189.715 148.86 190.33 149.112 190.893C149.218 191.115 149.294 191.227 149.341 191.227C149.476 191.227 149.651 190.424 149.868 188.818L151.222 189.697C150.946 192.287 150.387 193.582 149.543 193.582C149.156 193.582 148.746 193.307 148.313 192.756C147.896 192.229 147.542 191.561 147.249 190.752C146.37 191.824 145.392 192.797 144.313 193.67L143.162 192.483C143.713 192.079 144.188 191.695 144.586 191.332H141.369V192.246H139.893V184.67H145.315V190.62C145.339 190.591 145.371 190.556 145.412 190.515C145.74 190.175 146.188 189.633 146.757 188.889C146.587 188.021 146.446 186.258 146.335 183.598H139.049ZM142.187 182.068H143.162C143.367 181.383 143.537 180.703 143.672 180.029H141.765C141.946 180.68 142.087 181.359 142.187 182.068ZM140.71 182.068C140.599 181.389 140.455 180.759 140.279 180.179L140.235 180.029H139.567V178.966H139.049V182.068H140.71ZM137.484 178.966H135.955V181.198H137.484V178.966ZM137.484 182.657H135.955V184.881H137.484V182.657ZM137.484 186.349H135.955V189.029C136.535 188.889 137.045 188.757 137.484 188.634V186.349ZM141.369 185.927V187.324H143.821V185.927H141.369ZM141.369 188.581V190.04H143.821V188.581H141.369ZM149.235 181.664C148.995 180.498 148.57 179.259 147.961 177.946L149.402 177.331C149.941 178.345 150.396 179.525 150.765 180.873L149.235 181.664ZM166.088 187.931C165.701 188.997 165.212 189.929 164.62 190.726C163.864 191.751 162.844 192.662 161.561 193.459L160.331 192.378C162.206 191.323 163.586 189.841 164.47 187.931H163.249C162.135 190.04 160.413 191.637 158.081 192.721L156.964 191.569C158.998 190.649 160.524 189.437 161.544 187.931H160.366C159.838 188.47 159.294 188.915 158.731 189.267L157.747 188.309C156.311 189.182 154.738 189.961 153.027 190.646L152.377 188.862C153.115 188.64 153.906 188.358 154.75 188.019V182.104H152.684V180.354H154.75V176.61H156.569V180.354H158.3V182.104H156.569V187.228C157.014 187.017 157.562 186.747 158.213 186.419L158.441 187.544C159.15 186.981 159.739 186.313 160.208 185.54H157.72V184.063H169.788V185.54H162.106C161.948 185.833 161.746 186.161 161.5 186.524H169.12C168.997 189.542 168.774 191.546 168.452 192.536C168.294 193.022 168.024 193.348 167.643 193.512C167.374 193.635 166.978 193.696 166.457 193.696C165.847 193.696 165.253 193.652 164.672 193.564L164.347 191.895C164.898 192.023 165.446 192.088 165.991 192.088C166.383 192.088 166.635 191.959 166.747 191.701C166.963 191.186 167.139 189.929 167.274 187.931H166.088ZM168.162 177.129V183.185H159.109V177.129H168.162ZM160.876 178.465V179.511H166.395V178.465H160.876ZM160.876 180.785V181.866H166.395V180.785H160.876ZM180.945 191.042C184.384 190.175 186.104 188.203 186.104 185.127C186.104 183.785 185.758 182.631 185.067 181.664C184.293 180.574 183.115 179.874 181.533 179.563C181.188 182.282 180.716 184.509 180.118 186.243C179.708 187.456 179.198 188.602 178.589 189.68C177.71 191.215 176.711 191.982 175.592 191.982C174.76 191.982 174.019 191.607 173.368 190.857C172.952 190.383 172.615 189.8 172.358 189.108C172.018 188.212 171.848 187.248 171.848 186.217C171.848 184.547 172.308 183.009 173.228 181.603C174.159 180.167 175.369 179.124 176.858 178.474C177.942 177.999 179.131 177.762 180.426 177.762C182.447 177.762 184.164 178.304 185.576 179.388C187.311 180.718 188.178 182.602 188.178 185.039C188.178 189.123 186.113 191.713 181.982 192.809L180.945 191.042ZM179.626 179.493C178.589 179.61 177.722 179.889 177.025 180.328C176.579 180.615 176.137 180.996 175.697 181.471C174.479 182.818 173.869 184.38 173.869 186.155C173.869 187.45 174.127 188.464 174.643 189.196C174.959 189.647 175.273 189.873 175.583 189.873C176.005 189.873 176.48 189.407 177.007 188.476C178.296 186.208 179.169 183.214 179.626 179.493ZM194.923 189.715C195.391 190.26 195.919 190.664 196.505 190.928C197.466 191.361 198.725 191.578 200.284 191.578H207.772C207.561 191.977 207.365 192.548 207.183 193.292H200.196C198.18 193.292 196.637 192.976 195.564 192.343C195.125 192.079 194.641 191.648 194.114 191.051C194.073 191.098 194.023 191.156 193.965 191.227C193.103 192.246 192.248 193.078 191.398 193.723L190.335 191.921C191.266 191.364 192.166 190.734 193.033 190.031V185.689H190.475V183.958H194.923V189.715ZM197.208 178.052L197.674 178.017C200.387 177.829 202.824 177.428 204.986 176.812L206.357 178.359C204.084 178.957 201.658 179.361 199.08 179.572V181.849H207.219V183.562H204.265V190.726H202.323V183.562H199.08C199.051 185.443 198.91 186.94 198.658 188.054C198.429 189.079 198.054 189.999 197.533 190.813L195.916 189.592C196.496 188.689 196.868 187.57 197.032 186.234C197.149 185.314 197.208 184.063 197.208 182.481V178.052ZM193.956 181.488C193.059 180.223 192.093 179.089 191.055 178.087L192.497 176.936C193.505 177.779 194.518 178.852 195.538 180.152L193.956 181.488ZM221.803 193.274C219.155 191.212 215.686 188.909 211.397 186.366C210.606 185.903 210.21 185.417 210.21 184.907C210.21 184.544 210.383 184.201 210.729 183.879C210.875 183.738 211.245 183.504 211.836 183.176C213.998 181.975 216.33 180.542 218.832 178.878C219.776 178.257 220.634 177.656 221.408 177.076L222.559 178.588C219.541 180.727 216.445 182.678 213.269 184.441C212.958 184.617 212.803 184.764 212.803 184.881C212.803 184.975 212.888 185.08 213.058 185.197C213.105 185.232 213.377 185.396 213.875 185.689C217.895 188.062 220.921 190.005 222.954 191.517L221.803 193.274ZM227.432 192.958C227.209 190.966 227.098 188.985 227.098 187.017C227.098 183.642 227.347 180.437 227.845 177.401L229.778 177.604C229.304 180.229 229.066 183.19 229.066 186.489C229.066 188.704 229.189 190.775 229.436 192.703L227.432 192.958ZM232.705 179.036H241.151V180.908H232.705V179.036ZM241.749 191.877C240.577 192.059 239.186 192.149 237.574 192.149C233.525 192.149 231.501 190.96 231.501 188.581C231.501 187.638 231.753 186.814 232.257 186.111L233.918 186.85C233.602 187.295 233.443 187.796 233.443 188.353C233.443 189.038 233.786 189.51 234.472 189.768C235.233 190.061 236.273 190.207 237.592 190.207C239.016 190.207 240.334 190.113 241.547 189.926L241.749 191.877ZM254.585 178.359H261.493V179.977H247.94V184.081C247.94 186.278 247.788 188.127 247.483 189.627C247.202 191.039 246.707 192.401 245.998 193.714L244.451 192.378C245.47 190.269 245.98 187.503 245.98 184.081V178.359H252.607V176.61H254.585V178.359ZM255.103 182.517H260.755V184.099H255.103V186.551H260.183V193.714H258.241V192.668H250.893V193.714H248.968V186.551H253.196V180.354H255.103V182.517ZM250.893 188.115V191.086H258.241V188.115H250.893ZM276.262 180.425H279.857V190.04H272.368V180.425H274.618C274.7 180.126 274.826 179.604 274.996 178.86H271.903V177.296H280.595V178.86H276.807C276.654 179.394 276.49 179.871 276.315 180.293L276.262 180.425ZM278.072 181.813H274.082V183.202H278.072V181.813ZM274.082 184.521V185.865H278.072V184.521H274.082ZM274.082 187.184V188.634H278.072V187.184H274.082ZM270.918 180.627V185.988H264.071V180.627H270.918ZM265.821 182.121V184.512H269.187V182.121H265.821ZM267.886 190.26C268.32 189.064 268.692 187.749 269.002 186.313L270.751 186.762C270.458 187.822 270.113 188.842 269.714 189.82L270.611 189.601C270.968 189.513 271.29 189.431 271.577 189.354L271.665 190.866C269.427 191.622 266.855 192.325 263.948 192.976L263.368 191.227C264.757 190.957 265.935 190.708 266.902 190.479L267.886 190.26ZM263.491 177.296H271.322V178.878H263.491V177.296ZM265.188 190.418C264.942 189.27 264.605 188.142 264.177 187.034L265.838 186.472C266.219 187.397 266.559 188.52 266.858 189.838L265.188 190.418ZM279.356 193.767C278.506 192.706 277.586 191.818 276.596 191.104L277.932 190.093C278.963 190.772 279.909 191.575 280.771 192.501L279.356 193.767ZM270.549 192.633C271.762 192.029 272.831 191.194 273.757 190.128L275.216 190.972C274.155 192.237 273.007 193.21 271.771 193.89L270.549 192.633ZM282.769 180.495H286.654C286.83 179.593 287.026 178.471 287.243 177.129L287.287 176.874L289.212 177.164C289.012 178.406 288.807 179.517 288.596 180.495H289.66C291.066 180.495 292.074 180.812 292.683 181.444C293.228 182.013 293.501 182.897 293.501 184.099C293.501 186.12 293.287 188.01 292.859 189.768C292.613 190.764 292.314 191.499 291.963 191.974C291.517 192.565 290.899 192.861 290.108 192.861C289.159 192.861 288.122 192.557 286.997 191.947L287.217 190.093C288.33 190.626 289.194 190.893 289.809 190.893C290.132 190.893 290.381 190.72 290.556 190.374C290.744 189.999 290.923 189.457 291.093 188.748C291.427 187.312 291.594 185.804 291.594 184.222C291.594 183.39 291.427 182.851 291.093 182.604C290.805 182.399 290.293 182.297 289.554 182.297H288.201C287.269 186.445 285.933 189.984 284.193 192.914L282.427 191.947C284.225 188.93 285.509 185.713 286.276 182.297H282.769V180.495ZM297.368 189.17C296.706 186.732 295.66 184.339 294.23 181.989L295.944 181.216C297.421 183.571 298.525 185.941 299.258 188.326L297.368 189.17ZM296.067 180.75C295.704 179.801 295.118 178.746 294.309 177.586L295.672 177.076C296.381 178.078 296.975 179.118 297.456 180.196L296.067 180.75ZM298.431 179.994C297.974 178.863 297.391 177.8 296.682 176.804L297.974 176.373C298.648 177.176 299.237 178.178 299.741 179.379L298.431 179.994ZM311.768 182.965H313.763V187.79C315.134 188.394 316.538 189.19 317.973 190.181L316.962 191.824C315.954 191.086 314.888 190.4 313.763 189.768C313.699 190.805 313.362 191.602 312.752 192.158C312.073 192.773 311.121 193.081 309.896 193.081C308.712 193.081 307.737 192.812 306.969 192.272C306.219 191.739 305.844 190.995 305.844 190.04C305.844 189.038 306.316 188.235 307.259 187.632C307.992 187.163 308.929 186.929 310.072 186.929C310.605 186.929 311.17 186.993 311.768 187.122V182.965ZM311.768 188.924C311.071 188.684 310.412 188.563 309.79 188.563C309.181 188.563 308.692 188.672 308.323 188.889C307.848 189.17 307.611 189.545 307.611 190.014C307.611 190.588 307.951 191.007 308.63 191.271C308.97 191.399 309.377 191.464 309.852 191.464C310.614 191.464 311.162 191.142 311.496 190.497C311.677 190.151 311.768 189.747 311.768 189.284V188.924ZM302.337 179.599H305.695C305.994 178.585 306.234 177.691 306.415 176.918L308.34 177.155C308.106 178.017 307.866 178.831 307.62 179.599H310.828V181.365H307.048C305.999 184.371 304.769 186.914 303.357 188.994L301.722 188.062C303.058 186.082 304.186 183.85 305.106 181.365H302.337V179.599ZM317.015 183.879C315.714 182.432 314.22 181.113 312.533 179.924L313.693 178.658C315.369 179.742 316.898 181.005 318.281 182.446L317.015 183.879ZM328.813 188.089C327.729 191.276 326.514 192.87 325.166 192.87C324.205 192.87 323.382 192.196 322.696 190.849C322.169 189.806 321.806 188.657 321.606 187.403C321.366 185.88 321.246 183.923 321.246 181.532C321.246 180.495 321.284 179.382 321.36 178.192L323.426 178.351C323.35 179.54 323.312 180.671 323.312 181.743C323.312 185.505 323.663 188.127 324.366 189.609C324.653 190.219 324.923 190.523 325.175 190.523C325.339 190.523 325.544 190.336 325.79 189.961C326.294 189.199 326.78 188.15 327.249 186.814L328.813 188.089ZM334.377 190.181C334.078 187.708 333.712 185.71 333.278 184.187C332.751 182.341 332.139 180.65 331.441 179.115L333.313 178.658C334.28 180.574 334.998 182.42 335.467 184.195C335.854 185.637 336.173 187.471 336.425 189.697L334.377 190.181ZM339.9 189.495H342.853V192.448H339.9V189.495ZM346.741 189.495H349.695V192.448H346.741V189.495ZM353.583 189.495H356.536V192.448H353.583V189.495Z" fill="black"/>
<path d="M0 168L43.5 123L53.5 116.5V168H0Z" fill="white"/>
</svg>
