<svg width="545" height="231" viewBox="0 0 545 231" fill="none" xmlns="http://www.w3.org/2000/svg">
<rect x="0.5" width="544" height="231" rx="12" fill="white"/>
<path d="M48.3051 43.4307V51.8418C48.3051 52.498 48.1381 52.9551 47.8041 53.2129C47.5111 53.4473 46.9691 53.5645 46.1781 53.5645C45.1234 53.5645 44.2357 53.5234 43.515 53.4414L43.1547 51.71C44.2738 51.8213 45.1732 51.877 45.8529 51.877C46.1225 51.877 46.2836 51.8271 46.3363 51.7275C46.3773 51.6572 46.3979 51.5312 46.3979 51.3496V43.4307H38.2416V41.8311H50.2826V43.4307H48.3051ZM37.8461 38.1396V36.6104H39.7357V38.1396H43.5326V36.6104H45.4574V38.1396H49.8871V39.7568H45.4574V41.1455H43.5326V39.7568H39.7357V41.1455H38.4789C38.0805 42.165 37.6469 43.0762 37.1781 43.8789V53.7139H35.2885V46.6738C34.8256 47.2539 34.31 47.8193 33.7416 48.3701L32.8803 46.6035C34.5502 44.957 35.8158 42.9268 36.6772 40.5127L37.8461 40.9258V39.7568H33.557V38.1396H37.8461ZM44.7631 45.0303V49.9873H40.2982V51.209H38.602V45.0303H44.7631ZM40.2982 46.3838V48.5635H43.0932V46.3838H40.2982ZM66.2559 41.251L66.1943 41.6113C65.8135 43.8906 65.2217 45.8916 64.419 47.6143C63.5752 49.4072 62.2803 51.1387 60.5342 52.8086L59.1895 51.5869C61.0352 49.8057 62.4121 47.8604 63.3203 45.751C63.9121 44.3857 64.3574 42.8857 64.6563 41.251H63.6104C63.2178 42.7158 62.7461 44.0195 62.1953 45.1621C61.4629 46.6738 60.4785 48.0186 59.2422 49.1963L57.9854 47.9131C59.3916 46.6182 60.4434 45.1768 61.1406 43.5889C61.4746 42.833 61.75 42.0537 61.9668 41.251H61.0527C60.6602 42.2178 60.0918 43.1787 59.3477 44.1338L58.2315 42.7539C58.4775 42.4258 58.6973 42.0947 58.8906 41.7607H56.9219V44.9336C57.4375 44.7578 58.1436 44.4971 59.04 44.1514L59.1895 45.6631C58.4922 45.9971 57.7363 46.334 56.9219 46.6738V53.7139H55.1201V47.3682C54.5166 47.6025 53.6289 47.8984 52.457 48.2559L51.8945 46.4541C52.8965 46.1904 53.8897 45.9062 54.874 45.6016L55.1201 45.5225V41.7607H54.127C53.9395 42.7803 53.6934 43.7529 53.3887 44.6787L51.8418 43.7207C52.4102 42.0684 52.7881 40.0996 52.9756 37.8145L54.5752 37.999C54.5166 38.7842 54.4522 39.4609 54.3818 40.0293H55.1553V36.6104H56.9219V40.0293H58.9522V41.6553C59.6963 40.3193 60.2676 38.6201 60.666 36.5576L62.5557 36.8828C62.3682 37.8262 62.1133 38.7256 61.791 39.5811H68.8135C68.7432 46.0674 68.5117 50.1133 68.1191 51.7188C67.9316 52.4688 67.627 52.9727 67.2051 53.2305C66.8242 53.459 66.2588 53.5732 65.5088 53.5732C65.21 53.5732 64.6885 53.5381 63.9443 53.4678L63.5049 53.4238L63.2148 51.5518C63.9648 51.6982 64.6035 51.7715 65.1309 51.7715C65.6231 51.7715 65.9424 51.666 66.0889 51.4551C66.294 51.1621 66.4522 50.5527 66.5635 49.627C66.7334 48.1914 66.874 45.6367 66.9854 41.9629L67.0029 41.251H66.2559ZM71.3482 40.4951H75.233C75.4088 39.5928 75.6051 38.4707 75.8219 37.1289L75.8658 36.874L77.7906 37.1641C77.5914 38.4062 77.3863 39.5166 77.1754 40.4951H78.2389C79.6451 40.4951 80.6529 40.8115 81.2623 41.4443C81.8072 42.0127 82.0797 42.8975 82.0797 44.0986C82.0797 46.1201 81.8658 48.0098 81.4381 49.7676C81.192 50.7637 80.8932 51.499 80.5416 51.9736C80.0963 52.5654 79.4781 52.8613 78.6871 52.8613C77.7379 52.8613 76.7008 52.5566 75.5758 51.9473L75.7955 50.0928C76.9088 50.626 77.7731 50.8926 78.3883 50.8926C78.7106 50.8926 78.9596 50.7197 79.1354 50.374C79.3229 49.999 79.5016 49.457 79.6715 48.748C80.0055 47.3125 80.1725 45.8037 80.1725 44.2217C80.1725 43.3896 80.0055 42.8506 79.6715 42.6045C79.3844 42.3994 78.8717 42.2969 78.1334 42.2969H76.7799C75.8482 46.4453 74.5123 49.9844 72.7721 52.9141L71.0055 51.9473C72.8043 48.9297 74.0875 45.7129 74.8551 42.2969H71.3482V40.4951ZM85.9469 49.1699C85.2848 46.7324 84.2389 44.3389 82.8092 41.9893L84.5231 41.2158C85.9996 43.5713 87.1041 45.9414 87.8365 48.3262L85.9469 49.1699ZM84.6461 40.75C84.2828 39.8008 83.6969 38.7461 82.8883 37.5859L84.2506 37.0762C84.9596 38.0781 85.5543 39.1182 86.0348 40.1963L84.6461 40.75ZM87.0104 39.9941C86.5533 38.8633 85.9703 37.7998 85.2613 36.8037L86.5533 36.373C87.2272 37.1758 87.816 38.1777 88.3199 39.3789L87.0104 39.9941ZM90.5559 39.7393H94.6604C94.8244 39.0127 95.009 38.0723 95.2141 36.918L97.2004 37.1641C97.0246 38.0723 96.8371 38.9307 96.6379 39.7393H102.491V41.4883H96.2248C95.0529 46.1699 93.758 50.0518 92.34 53.1338L90.3977 52.4482C91.9387 49.0322 93.2219 45.3789 94.2473 41.4883H90.5559V39.7393ZM106.113 52.668C105.163 52.791 104.097 52.8525 102.913 52.8525C100.997 52.8525 99.55 52.6885 98.5715 52.3604C98.1965 52.2314 97.8772 52.0498 97.6135 51.8154C97.0979 51.3467 96.84 50.749 96.84 50.0225C96.84 49.2783 97.0803 48.6221 97.5607 48.0537L99.1252 48.9766C98.9436 49.2051 98.8527 49.457 98.8527 49.7324C98.8527 50.207 99.0695 50.5146 99.5031 50.6553C100.165 50.8662 101.109 50.9717 102.333 50.9717C103.523 50.9717 104.709 50.8838 105.893 50.708L106.113 52.668ZM97.8684 43.958C100.165 43.6943 102.679 43.5537 105.409 43.5361L105.497 45.3203C102.82 45.332 100.362 45.458 98.1232 45.6982L97.8684 43.958ZM121.268 53.2744C118.62 51.2119 115.151 48.9092 110.862 46.3662C110.071 45.9033 109.676 45.417 109.676 44.9072C109.676 44.5439 109.848 44.2012 110.194 43.8789C110.341 43.7383 110.71 43.5039 111.302 43.1758C113.464 41.9746 115.796 40.542 118.298 38.8779C119.241 38.2568 120.099 37.6562 120.873 37.0762L122.024 38.5879C119.007 40.7266 115.91 42.6777 112.734 44.4414C112.424 44.6172 112.268 44.7637 112.268 44.8809C112.268 44.9746 112.353 45.0801 112.523 45.1973C112.57 45.2324 112.843 45.3965 113.341 45.6895C117.36 48.0625 120.387 50.0049 122.42 51.5166L121.268 53.2744ZM125.948 40.082H133.005C132.624 39.0801 132.276 38.084 131.959 37.0938L133.884 36.9707C134.189 38.0137 134.555 39.0508 134.983 40.082H141.478V41.8838H135.809C136.565 43.4482 137.511 45.0801 138.648 46.7793L136.802 47.6582C135.548 45.7598 134.52 43.835 133.717 41.8838H125.948V40.082ZM138.727 53.0459C137.561 53.1104 136.53 53.1426 135.633 53.1426C133.196 53.1426 131.4 52.9521 130.246 52.5713C128.16 51.8916 127.117 50.6084 127.117 48.7217C127.117 47.5615 127.477 46.627 128.198 45.918L129.85 46.8145C129.37 47.2891 129.129 47.9102 129.129 48.6777C129.129 49.6562 129.657 50.3418 130.711 50.7344C131.643 51.0801 133.202 51.2529 135.387 51.2529C136.313 51.2529 137.356 51.209 138.516 51.1211L138.727 53.0459ZM143.986 52.0703C146.248 46.832 148.683 41.7695 151.29 36.8828L153.004 37.5684C151.826 39.7305 150.435 42.3643 148.829 45.4697C149.937 44.2686 150.959 43.668 151.896 43.668C153.373 43.668 154.111 44.7812 154.111 47.0078C154.111 47.1719 154.105 47.374 154.094 47.6143C154.07 48.124 154.059 48.5254 154.059 48.8184C154.059 49.5039 154.1 49.9902 154.182 50.2773C154.363 50.8984 154.817 51.209 155.544 51.209C156.247 51.209 156.818 50.8662 157.258 50.1807C157.914 49.1611 158.453 47.2891 158.875 44.5645L160.598 45.5752C160.264 47.7256 159.839 49.3662 159.323 50.4971C158.526 52.2549 157.237 53.1338 155.456 53.1338C154.226 53.1338 153.344 52.7529 152.811 51.9912C152.389 51.3877 152.178 50.3799 152.178 48.9678C152.178 48.8447 152.184 48.6572 152.195 48.4053C152.219 47.9131 152.23 47.5645 152.23 47.3594C152.23 46.7148 152.172 46.249 152.055 45.9619C151.92 45.6455 151.688 45.4873 151.36 45.4873C150.804 45.4873 150.177 45.8271 149.479 46.5068C148.882 47.0928 148.293 47.9512 147.713 49.082C147.291 49.9023 146.649 51.2939 145.788 53.2568L143.986 52.0703ZM164.055 39.1152H168.45C168.573 38.1016 168.667 37.375 168.731 36.9355L170.682 37.1377L170.656 37.2783L170.594 37.7354L170.515 38.3242L170.436 38.9131L170.41 39.1152H177.678V40.8467H170.208C170.19 41.0459 170.152 41.4707 170.093 42.1211L170.049 42.6836L170.032 42.8594C170.735 42.7422 171.453 42.6836 172.185 42.6836C174.213 42.6836 175.821 43.1582 177.01 44.1074C177.321 44.3594 177.605 44.6758 177.863 45.0566C178.379 45.8184 178.636 46.6943 178.636 47.6846C178.636 49.4482 177.91 50.793 176.457 51.7188C175.507 52.3223 174.192 52.7764 172.51 53.0811L171.667 51.5342C173.208 51.2822 174.385 50.8809 175.2 50.3301C176.172 49.668 176.659 48.7539 176.659 47.5879C176.659 46.832 176.448 46.167 176.026 45.5928C175.78 45.2529 175.449 44.9775 175.033 44.7666C173.574 47.3096 171.661 49.3779 169.294 50.9717C168.532 51.4873 167.893 51.8301 167.378 52C166.868 52.1641 166.37 52.2461 165.883 52.2461C164.987 52.2461 164.313 51.9473 163.862 51.3496C163.487 50.8574 163.299 50.1836 163.299 49.3281C163.299 47.8105 163.874 46.4717 165.022 45.3115C165.872 44.4502 166.894 43.7881 168.089 43.3252L168.107 43.0879C168.177 42.0801 168.236 41.333 168.283 40.8467H164.055V39.1152ZM168.01 45.1094C167.19 45.5488 166.534 46.0967 166.042 46.7529C165.415 47.5908 165.101 48.4258 165.101 49.2578C165.101 50.1836 165.435 50.6465 166.103 50.6465C166.689 50.6465 167.41 50.3301 168.265 49.6973C168.089 48.5195 168.002 47.2715 168.002 45.9531C168.002 45.7715 168.005 45.4902 168.01 45.1094ZM169.9 44.4414C169.888 44.8223 169.882 45.168 169.882 45.4785C169.882 46.4746 169.926 47.4121 170.014 48.291C171.432 46.9727 172.516 45.625 173.266 44.248C172.891 44.2012 172.516 44.1777 172.141 44.1777C171.362 44.1777 170.615 44.2656 169.9 44.4414ZM188.106 44.6699C187.52 45.7656 186.919 46.5889 186.304 47.1396C185.777 47.6143 185.293 47.8516 184.854 47.8516C184.291 47.8516 183.837 47.4707 183.491 46.709C183.134 45.9121 182.955 44.6641 182.955 42.9648C182.955 41.2539 183.154 39.3994 183.553 37.4014L185.478 37.6914C185.091 39.6719 184.898 41.3477 184.898 42.7188C184.898 44.5645 185.029 45.4873 185.293 45.4873C185.393 45.4873 185.563 45.3467 185.803 45.0654C186.178 44.6436 186.573 44.0225 186.989 43.2021L188.106 44.6699ZM186.77 51.5518C188.569 51.0479 189.925 50.2949 190.839 49.293C191.958 48.0684 192.518 46.2168 192.518 43.7383C192.518 41.8574 192.336 39.7451 191.973 37.4014L193.986 37.208C194.372 39.5752 194.566 41.7812 194.566 43.8262C194.566 47.1426 193.713 49.5303 192.008 50.9893C190.971 51.8799 189.573 52.6182 187.816 53.2041L186.77 51.5518ZM208.412 38.3594H215.32V39.9766H201.767V44.0811C201.767 46.2783 201.615 48.127 201.31 49.627C201.029 51.0391 200.534 52.4014 199.825 53.7139L198.278 52.3779C199.298 50.2686 199.807 47.5029 199.807 44.0811V38.3594H206.434V36.6104H208.412V38.3594ZM208.93 42.5166H214.582V44.0986H208.93V46.5508H214.011V53.7139H212.068V52.668H204.721V53.7139H202.796V46.5508H207.023V40.3545H208.93V42.5166ZM204.721 48.1152V51.0859H212.068V48.1152H204.721ZM230.089 40.4248H233.684V50.04H226.196V40.4248H228.446C228.528 40.126 228.654 39.6045 228.824 38.8604H225.73V37.2959H234.422V38.8604H230.634C230.482 39.3936 230.318 39.8711 230.142 40.293L230.089 40.4248ZM231.9 41.8135H227.91V43.2021H231.9V41.8135ZM227.91 44.5205V45.8652H231.9V44.5205H227.91ZM227.91 47.1836V48.6338H231.9V47.1836H227.91ZM224.746 40.627V45.9883H217.899V40.627H224.746ZM219.648 42.1211V44.5117H223.014V42.1211H219.648ZM221.713 50.2598C222.147 49.0645 222.519 47.749 222.829 46.3135L224.579 46.7617C224.286 47.8223 223.94 48.8418 223.541 49.8203L224.438 49.6006C224.795 49.5127 225.118 49.4307 225.405 49.3545L225.493 50.8662C223.254 51.6221 220.682 52.3252 217.776 52.9756L217.196 51.2266C218.584 50.957 219.762 50.708 220.729 50.4795L221.713 50.2598ZM217.319 37.2959H225.15V38.8779H217.319V37.2959ZM219.015 50.418C218.769 49.2695 218.432 48.1416 218.004 47.0342L219.665 46.4717C220.046 47.3975 220.386 48.5195 220.685 49.8379L219.015 50.418ZM233.183 53.7666C232.333 52.7061 231.413 51.8184 230.423 51.1035L231.759 50.0928C232.79 50.7725 233.737 51.5752 234.598 52.501L233.183 53.7666ZM224.376 52.6328C225.589 52.0293 226.659 51.1943 227.584 50.1279L229.043 50.9717C227.983 52.2373 226.834 53.21 225.598 53.8896L224.376 52.6328ZM237.783 52.958C237.561 50.9658 237.449 48.9854 237.449 47.0166C237.449 43.6416 237.698 40.4365 238.196 37.4014L240.13 37.6035C239.655 40.2285 239.418 43.1904 239.418 46.4893C239.418 48.7041 239.541 50.7754 239.787 52.7031L237.783 52.958ZM243.057 39.0361H251.503V40.9082H243.057V39.0361ZM252.101 51.877C250.929 52.0586 249.537 52.1494 247.926 52.1494C243.877 52.1494 241.853 50.96 241.853 48.5811C241.853 47.6377 242.104 46.8145 242.608 46.1113L244.27 46.8496C243.953 47.2949 243.795 47.7959 243.795 48.3525C243.795 49.0381 244.138 49.5098 244.823 49.7676C245.585 50.0605 246.625 50.207 247.943 50.207C249.367 50.207 250.686 50.1133 251.898 49.9258L252.101 51.877ZM269.419 43.791V45.6982H271.633V47.3682H269.419V52.0352C269.419 52.5566 269.316 52.9463 269.111 53.2041C268.841 53.5439 268.32 53.7139 267.546 53.7139C266.726 53.7139 265.959 53.6641 265.244 53.5645L264.839 51.7803C265.724 51.915 266.433 51.9824 266.966 51.9824C267.218 51.9824 267.38 51.9297 267.45 51.8242C267.503 51.7422 267.529 51.6133 267.529 51.4375V47.3682H260.542V45.6982H267.529V43.791H260.506L260.656 45.3555C260.005 45.6777 259.472 45.9238 259.056 46.0938V52.0352C259.056 52.627 258.921 53.0459 258.652 53.292C258.412 53.5205 257.996 53.6348 257.404 53.6348C256.754 53.6348 256.138 53.5762 255.558 53.459L255.215 51.5869C255.848 51.6924 256.349 51.7451 256.718 51.7451C256.906 51.7451 257.032 51.7188 257.096 51.666C257.167 51.6016 257.202 51.4785 257.202 51.2969V46.832C256.534 47.0723 255.866 47.292 255.198 47.4912L254.714 45.7158C255.728 45.4346 256.557 45.1826 257.202 44.96V41.6025H254.987V39.8535H257.202V36.6104H259.056V39.8535H260.691V41.6025H259.056V44.2832C259.449 44.1309 259.868 43.9521 260.313 43.7471V42.1738H264.919V40.1523H261.087V38.5527H264.919V36.6104H266.826V38.5527H270.965V40.1523H266.826V42.1738H272.099V43.791H269.419ZM263.53 51.6045C263.014 50.5146 262.361 49.457 261.57 48.4316L263.17 47.5176C264.007 48.5078 264.705 49.5332 265.261 50.5938L263.53 51.6045ZM274.546 42.5342L275.17 42.4375C279.02 41.8516 281.528 41.5586 282.694 41.5586C284.352 41.5586 285.62 41.9834 286.499 42.833C287.372 43.6885 287.809 44.8896 287.809 46.4365C287.809 47.5322 287.489 48.5254 286.851 49.416C286.066 50.5117 284.721 51.3174 282.817 51.833C281.668 52.1436 280.279 52.3662 278.651 52.501L278.053 50.7432C280.801 50.5205 282.714 50.1309 283.792 49.5742C284.419 49.252 284.923 48.8242 285.304 48.291C285.726 47.6992 285.937 47.0283 285.937 46.2783C285.937 45.2529 285.67 44.4912 285.137 43.9932C284.867 43.7354 284.583 43.5537 284.284 43.4482C283.915 43.3193 283.405 43.2549 282.755 43.2549C281.472 43.2549 278.867 43.6006 274.942 44.292L274.546 42.5342ZM291.53 38.7461C296.921 38.6641 302.015 38.5264 306.814 38.333L306.92 40.082C304.805 40.1875 303.158 40.5098 301.98 41.0488C300.855 41.5645 299.953 42.2793 299.273 43.1934C298.5 44.2305 298.113 45.3848 298.113 46.6562C298.113 47.9219 298.553 48.8711 299.431 49.5039C300.439 50.2246 301.986 50.7197 304.072 50.9893L303.659 52.9668C300.94 52.6035 299.027 51.9004 297.92 50.8574C296.73 49.7441 296.136 48.3613 296.136 46.709C296.136 45.209 296.675 43.8086 297.753 42.5078C298.538 41.5527 299.613 40.7852 300.978 40.2051C298.558 40.2871 295.438 40.4248 291.618 40.6182L291.53 38.7461ZM314.394 44.2656V53.7139H312.452V46.3047C311.836 46.8848 311.195 47.4355 310.527 47.957L309.498 46.2607C311.526 44.8545 313.374 42.8916 315.044 40.3721L316.556 41.3652C315.894 42.4023 315.173 43.3691 314.394 44.2656ZM323.772 44.1689V51.9473C323.772 52.5742 323.593 53.0137 323.236 53.2656C322.943 53.4648 322.465 53.5645 321.803 53.5645C320.719 53.5645 319.676 53.5293 318.674 53.459L318.331 51.5693C319.369 51.6689 320.286 51.7188 321.082 51.7188C321.416 51.7188 321.619 51.6543 321.689 51.5254C321.747 51.4258 321.777 51.2852 321.777 51.1035V44.1689H316.301V42.3672H326.848V44.1689H323.772ZM309.621 40.8379C311.467 39.8066 313.035 38.4209 314.324 36.6807L315.871 37.709C314.277 39.7188 312.542 41.2832 310.667 42.4023L309.621 40.8379ZM317.488 37.5859H325.644V39.3525H317.488V37.5859ZM341.072 53.2744C338.424 51.2119 334.955 48.9092 330.666 46.3662C329.875 45.9033 329.479 45.417 329.479 44.9072C329.479 44.5439 329.652 44.2012 329.998 43.8789C330.145 43.7383 330.514 43.5039 331.105 43.1758C333.268 41.9746 335.6 40.542 338.102 38.8779C339.045 38.2568 339.903 37.6562 340.677 37.0762L341.828 38.5879C338.811 40.7266 335.714 42.6777 332.538 44.4414C332.228 44.6172 332.072 44.7637 332.072 44.8809C332.072 44.9746 332.157 45.0801 332.327 45.1973C332.374 45.2324 332.646 45.3965 333.145 45.6895C337.164 48.0625 340.19 50.0049 342.224 51.5166L341.072 53.2744ZM354.576 51.042C358.015 50.1748 359.735 48.2031 359.735 45.127C359.735 43.7852 359.389 42.6309 358.698 41.6641C357.924 40.5742 356.747 39.874 355.165 39.5635C354.819 42.2822 354.347 44.5088 353.75 46.2432C353.339 47.4561 352.83 48.6016 352.22 49.6797C351.341 51.2148 350.342 51.9824 349.223 51.9824C348.391 51.9824 347.65 51.6074 347 50.8574C346.584 50.3828 346.247 49.7998 345.989 49.1084C345.649 48.2119 345.479 47.248 345.479 46.2168C345.479 44.5469 345.939 43.0088 346.859 41.6025C347.791 40.167 349.001 39.124 350.489 38.4736C351.573 37.999 352.762 37.7617 354.057 37.7617C356.079 37.7617 357.796 38.3037 359.208 39.3877C360.942 40.7178 361.809 42.6016 361.809 45.0391C361.809 49.123 359.744 51.7129 355.613 52.8086L354.576 51.042ZM353.257 39.4932C352.22 39.6104 351.353 39.8887 350.656 40.3281C350.211 40.6152 349.768 40.9961 349.329 41.4707C348.11 42.8184 347.501 44.3799 347.501 46.1553C347.501 47.4502 347.758 48.4639 348.274 49.1963C348.59 49.6475 348.904 49.873 349.214 49.873C349.636 49.873 350.111 49.4072 350.638 48.4756C351.927 46.208 352.8 43.2139 353.257 39.4932ZM364.414 40.4951H368.299C368.475 39.5928 368.671 38.4707 368.888 37.1289L368.932 36.874L370.857 37.1641C370.657 38.4062 370.452 39.5166 370.241 40.4951H371.305C372.711 40.4951 373.719 40.8115 374.328 41.4443C374.873 42.0127 375.146 42.8975 375.146 44.0986C375.146 46.1201 374.932 48.0098 374.504 49.7676C374.258 50.7637 373.959 51.499 373.608 51.9736C373.162 52.5654 372.544 52.8613 371.753 52.8613C370.804 52.8613 369.767 52.5566 368.642 51.9473L368.862 50.0928C369.975 50.626 370.839 50.8926 371.454 50.8926C371.777 50.8926 372.026 50.7197 372.201 50.374C372.389 49.999 372.568 49.457 372.738 48.748C373.072 47.3125 373.238 45.8037 373.238 44.2217C373.238 43.3896 373.072 42.8506 372.738 42.6045C372.45 42.3994 371.938 42.2969 371.199 42.2969H369.846C368.914 46.4453 367.578 49.9844 365.838 52.9141L364.072 51.9473C365.87 48.9297 367.154 45.7129 367.921 42.2969H364.414V40.4951ZM379.013 49.1699C378.351 46.7324 377.305 44.3389 375.875 41.9893L377.589 41.2158C379.066 43.5713 380.17 45.9414 380.903 48.3262L379.013 49.1699ZM377.712 40.75C377.349 39.8008 376.763 38.7461 375.954 37.5859L377.317 37.0762C378.026 38.0781 378.62 39.1182 379.101 40.1963L377.712 40.75ZM380.076 39.9941C379.619 38.8633 379.036 37.7998 378.327 36.8037L379.619 36.373C380.293 37.1758 380.882 38.1777 381.386 39.3789L380.076 39.9941ZM398.01 52.4307C396.275 52.6123 394.482 52.7031 392.631 52.7031C389.9 52.7031 387.987 52.5303 386.891 52.1846C386.095 51.9326 385.465 51.5576 385.002 51.0596C384.469 50.4795 384.202 49.7734 384.202 48.9414C384.202 47.8457 384.577 46.8613 385.327 45.9883C385.966 45.2441 386.994 44.5059 388.412 43.7734C387.603 41.957 386.871 39.8887 386.215 37.5684L388.175 37.0586C388.784 39.2852 389.429 41.2539 390.108 42.9648C392.364 41.9277 394.758 41.0635 397.289 40.3721L397.878 42.1562C395.1 42.8594 392.341 43.8584 389.598 45.1533C388.749 45.5576 388.145 45.8887 387.788 46.1465C386.739 46.9141 386.215 47.7666 386.215 48.7041C386.215 49.5186 386.701 50.0869 387.674 50.4092C388.482 50.6729 389.93 50.8047 392.015 50.8047C393.943 50.8047 395.874 50.6934 397.807 50.4707L398.01 52.4307ZM402.68 52.958C402.457 50.9658 402.346 48.9854 402.346 47.0166C402.346 43.6416 402.595 40.4365 403.093 37.4014L405.027 37.6035C404.552 40.2285 404.315 43.1904 404.315 46.4893C404.315 48.7041 404.438 50.7754 404.684 52.7031L402.68 52.958ZM407.954 39.0361H416.4V40.9082H407.954V39.0361ZM416.997 51.877C415.826 52.0586 414.434 52.1494 412.823 52.1494C408.774 52.1494 406.749 50.96 406.749 48.5811C406.749 47.6377 407.001 46.8145 407.505 46.1113L409.166 46.8496C408.85 47.2949 408.692 47.7959 408.692 48.3525C408.692 49.0381 409.035 49.5098 409.72 49.7676C410.482 50.0605 411.522 50.207 412.84 50.207C414.264 50.207 415.582 50.1133 416.795 49.9258L416.997 51.877ZM420.578 40.4951H424.463C424.639 39.5928 424.835 38.4707 425.052 37.1289L425.096 36.874L427.021 37.1641C426.821 38.4062 426.616 39.5166 426.405 40.4951H427.794C429.194 40.4951 430.199 40.8115 430.809 41.4443C431.354 42.0127 431.626 42.8975 431.626 44.0986C431.626 46.1143 431.412 48.0039 430.984 49.7676C430.738 50.7637 430.439 51.499 430.088 51.9736C429.643 52.5654 429.024 52.8613 428.233 52.8613C427.29 52.8613 426.256 52.5566 425.131 51.9473L425.351 50.0928C426.464 50.626 427.325 50.8926 427.935 50.8926C428.263 50.8926 428.512 50.7197 428.682 50.374C428.869 49.9932 429.048 49.4512 429.218 48.748C429.552 47.3184 429.719 45.8096 429.719 44.2217C429.719 43.3896 429.552 42.8506 429.218 42.6045C428.931 42.3994 428.421 42.2969 427.688 42.2969H426.01C425.078 46.4453 423.742 49.9844 422.002 52.9141L420.235 51.9473C422.034 48.9297 423.317 45.7129 424.085 42.2969H420.578V40.4951ZM434.992 47.5527C434.107 44.4766 432.921 41.7695 431.433 39.4316L433.12 38.5703C434.796 41.2539 436.044 43.9785 436.864 46.7441L434.992 47.5527ZM451.238 53.2744C448.589 51.2119 445.121 48.9092 440.832 46.3662C440.041 45.9033 439.645 45.417 439.645 44.9072C439.645 44.5439 439.818 44.2012 440.164 43.8789C440.31 43.7383 440.679 43.5039 441.271 43.1758C443.433 41.9746 445.765 40.542 448.267 38.8779C449.211 38.2568 450.069 37.6562 450.842 37.0762L451.994 38.5879C448.976 40.7266 445.879 42.6777 442.704 44.4414C442.393 44.6172 442.238 44.7637 442.238 44.8809C442.238 44.9746 442.323 45.0801 442.493 45.1973C442.54 45.2324 442.812 45.3965 443.31 45.6895C447.33 48.0625 450.356 50.0049 452.389 51.5166L451.238 53.2744ZM465.075 42.9297C465.48 44.3008 466.247 45.7598 467.378 47.3066C468.755 49.1934 470.448 50.6875 472.458 51.7891L471.201 53.5996C469.074 52.3457 467.299 50.6846 465.875 48.6162C465.108 47.4912 464.492 46.3457 464.03 45.1797C463.567 46.75 462.849 48.1768 461.876 49.46C460.447 51.3584 458.68 52.7588 456.576 53.6611L455.337 52.0527C457.54 51.1328 459.319 49.7148 460.672 47.7988C461.809 46.1816 462.483 44.5586 462.694 42.9297H455.68V41.0225H462.773V36.7861H464.803V41.0225H472.045V42.9297H465.075ZM478.86 48.4932C477.77 49.2314 476.71 49.791 475.679 50.1719L474.474 48.8184C477.281 47.8691 479.314 46.5596 480.574 44.8896L482.358 45.3291C482.106 45.6572 481.854 45.9502 481.602 46.208H487.667L488.783 47.1484C487.892 48.2207 486.63 49.3193 484.995 50.4443C486.835 51.0654 488.938 51.5371 491.305 51.8594L490.312 53.6963C487.523 53.1631 485.136 52.4336 483.149 51.5078C480.923 52.5977 478.347 53.3506 475.424 53.7666L474.545 52.0967C476.859 51.915 479.144 51.3936 481.4 50.5322L481.304 50.4707C480.378 49.8555 479.563 49.1963 478.86 48.4932ZM480.302 47.667C481.081 48.3877 482.071 49.0557 483.272 49.6709C484.526 48.9502 485.408 48.2822 485.918 47.667H480.302ZM483.65 38.2275H490.945V39.7568H485.847V43.6943C485.847 44.2686 485.692 44.6611 485.382 44.8721C485.124 45.0479 484.693 45.1357 484.09 45.1357C483.521 45.1357 482.906 45.0889 482.244 44.9951L482.015 43.4658C482.654 43.5713 483.19 43.624 483.624 43.624C483.794 43.624 483.893 43.5859 483.923 43.5098C483.946 43.457 483.958 43.3691 483.958 43.2461V39.7568H481.69C481.69 41.0342 481.547 42.0361 481.26 42.7627C480.756 44.0459 479.795 44.9629 478.377 45.5137L477.05 44.292C478.145 43.8643 478.887 43.3135 479.273 42.6396C479.496 42.2529 479.651 41.79 479.739 41.251C479.792 40.9346 479.83 40.4365 479.853 39.7568H474.527V38.2275H481.725V36.6104H483.65V38.2275ZM489.592 44.7666C488.724 43.46 487.722 42.2412 486.586 41.1104L488.027 40.1348C489.14 41.0957 490.154 42.2441 491.068 43.5801L489.592 44.7666ZM474.132 43.501C475.333 42.5811 476.221 41.5146 476.795 40.3018L478.43 40.9082C477.615 42.5898 476.572 43.8936 475.301 44.8193L474.132 43.501ZM493.911 49.4951H496.864V52.4482H493.911V49.4951ZM500.752 49.4951H503.705V52.4482H500.752V49.4951ZM507.593 49.4951H510.546V52.4482H507.593V49.4951Z" fill="black"/>
<path d="M41.8057 82.6846V85.7256C41.8057 86.1416 41.9756 86.3936 42.3154 86.4814C42.6084 86.5576 43.3438 86.5957 44.5215 86.5957C46.3965 86.5957 47.4365 86.4463 47.6416 86.1475C47.7822 85.9424 47.876 85.1279 47.9229 83.7041L49.8652 84.2842C49.8008 85.5029 49.7129 86.332 49.6016 86.7715C49.4316 87.4277 49.0625 87.8584 48.4941 88.0635C47.8789 88.2861 46.4873 88.3975 44.3193 88.3975C42.3916 88.3975 41.2285 88.3301 40.8301 88.1953C40.1504 87.9609 39.8105 87.4307 39.8105 86.6045V82.834L33.3242 83.3262L33.166 81.6562L39.8105 81.1377V79.0459C38.0469 79.333 36.5527 79.541 35.3281 79.6699L34.6426 78.0879C38.9551 77.6719 42.7051 76.9219 45.8926 75.8379L47.334 77.1914C45.4121 77.8184 43.5693 78.3076 41.8057 78.6592V80.9795L50.1729 80.3203L50.2959 82.0342L41.8057 82.6846ZM42.667 73.5352H49.7246V77.2969H47.7471V75.1523H35.5742V77.2969H33.6143V73.5352H40.6895V71.6104H42.667V73.5352ZM54.984 75.8379V73.9307H52.1187V72.2959H61.1539V73.9307H58.4117V75.8379H60.8287V88.5293H59.2115V87.6855H54.2896V88.7139H52.6197V75.8379H54.984ZM56.2584 75.8379H57.1197V73.9307H56.2584V75.8379ZM55.1158 77.3496H54.2896V81.2695C54.7818 80.3672 55.0572 79.0605 55.1158 77.3496ZM56.2408 77.3496C56.235 79.4824 55.8687 81.1992 55.1422 82.5L54.2896 81.7266V83.2207H59.2115V81.5068H58.1832C57.773 81.5068 57.4918 81.4277 57.3395 81.2695C57.193 81.1172 57.1197 80.8564 57.1197 80.4873V77.3496H56.2408ZM58.2535 77.3496V79.8193C58.2535 79.9834 58.277 80.083 58.3238 80.1182C58.3648 80.1475 58.4615 80.1621 58.6139 80.1621H59.2115V77.3496H58.2535ZM54.2896 84.627V86.1211H59.2115V84.627H54.2896ZM63.9225 80.1094V85.9541C63.9225 86.2705 64.0162 86.458 64.2037 86.5166C64.4791 86.6045 64.9273 86.6484 65.5484 86.6484C66.1051 86.6484 66.5035 86.5928 66.7437 86.4814C66.9371 86.3936 67.0631 86.1768 67.1217 85.8311C67.1803 85.4619 67.2301 84.7588 67.2711 83.7217L67.2887 83.3613L69.1783 83.8535C69.1314 85.3652 69.0465 86.417 68.9234 87.0088C68.7535 87.8115 68.2643 88.2686 67.4557 88.3799C66.9166 88.4502 66.0846 88.4854 64.9596 88.4854C63.776 88.4854 62.9937 88.3652 62.6129 88.125C62.2496 87.8965 62.068 87.4072 62.068 86.6572V78.3955H66.5855V74.0977H61.857V72.3662H68.4225V80.1094H63.9225ZM82.6291 85.541C84.3752 85.9277 86.1623 86.5225 87.9904 87.3252L86.6809 88.8193C84.5598 87.876 82.6027 87.1436 80.8098 86.6221L81.7854 85.541H76.7404L77.8742 86.5869C76.0754 87.5713 74.174 88.3447 72.1701 88.9072L70.9484 87.2109C72.7355 86.8711 74.508 86.3145 76.2658 85.541H72.9611V77.1738H85.9777V85.541H82.6291ZM74.9211 78.4658V79.5469H84.0178V78.4658H74.9211ZM74.9211 80.751V81.8145H84.0178V80.751H74.9211ZM74.9211 83.0361V84.1699H84.0178V83.0361H74.9211ZM87.217 72.2256V76.4004H71.7219V72.2256H87.217ZM73.6115 73.6318V75.0645H76.3449V73.6318H73.6115ZM85.3273 75.0645V73.6318H82.5764V75.0645H85.3273ZM78.0764 73.6318V75.0645H80.8098V73.6318H78.0764ZM98.9627 73.3594H105.765L106.653 74.2646C106.413 76.0459 106.105 77.5693 105.73 78.835C105.32 80.2471 104.74 81.6211 103.99 82.957C104.933 84.4043 106 85.585 107.189 86.499L106.038 88.4941C104.825 87.3926 103.779 86.127 102.9 84.6973C102.191 85.6934 101.553 86.4814 100.984 87.0615C100.398 87.665 99.7596 88.1865 99.0682 88.626L97.8289 86.9297C99.3523 86.0625 100.694 84.7061 101.854 82.8604C101.831 82.8135 101.807 82.7695 101.784 82.7285C101.104 81.3691 100.556 79.7461 100.14 77.8594C99.9061 76.7988 99.7479 75.8936 99.6658 75.1436H98.6375V74.0449H97.7938V88.7139H95.992V85.1367L95.4207 85.2773C93.657 85.7344 91.9695 86.1064 90.3582 86.3936L89.7781 84.5215C90.575 84.416 91.1258 84.3398 91.4305 84.293V74.0449H90.1385V72.3311H98.9627V73.3594ZM95.992 74.0449H93.1795V76.1455H95.992V74.0449ZM95.992 77.6396H93.1795V79.7666H95.992V77.6396ZM95.992 81.2256H93.1795V84.0205C93.4842 83.9678 93.7127 83.9297 93.865 83.9062C94.3338 83.8301 95.0428 83.7041 95.992 83.5283V81.2256ZM101.371 75.1436C101.611 77.3584 102.115 79.3037 102.883 80.9795C103.703 79.2393 104.286 77.2939 104.632 75.1436H101.371ZM118.17 86.042C121.61 85.1748 123.329 83.2031 123.329 80.127C123.329 78.7852 122.984 77.6309 122.292 76.6641C121.519 75.5742 120.341 74.874 118.759 74.5635C118.413 77.2822 117.942 79.5088 117.344 81.2432C116.934 82.4561 116.424 83.6016 115.815 84.6797C114.936 86.2148 113.937 86.9824 112.818 86.9824C111.986 86.9824 111.245 86.6074 110.594 85.8574C110.178 85.3828 109.841 84.7998 109.583 84.1084C109.244 83.2119 109.074 82.248 109.074 81.2168C109.074 79.5469 109.534 78.0088 110.454 76.6025C111.385 75.167 112.595 74.124 114.083 73.4736C115.167 72.999 116.357 72.7617 117.652 72.7617C119.673 72.7617 121.39 73.3037 122.802 74.3877C124.537 75.7178 125.404 77.6016 125.404 80.0391C125.404 84.123 123.338 86.7129 119.207 87.8086L118.17 86.042ZM116.852 74.4932C115.815 74.6104 114.948 74.8887 114.25 75.3281C113.805 75.6152 113.363 75.9961 112.923 76.4707C111.704 77.8184 111.095 79.3799 111.095 81.1553C111.095 82.4502 111.353 83.4639 111.869 84.1963C112.185 84.6475 112.498 84.873 112.809 84.873C113.231 84.873 113.705 84.4072 114.233 83.4756C115.522 81.208 116.395 78.2139 116.852 74.4932ZM137.589 75.3545V73.9658H132.676V72.3838H144.497V73.9658H139.312V75.3545H143.847V82.4473H139.276C139.212 83.5195 139.024 84.4365 138.714 85.1982C140.7 86.0771 142.807 86.7188 145.033 87.123L144.119 88.8193C141.752 88.2393 139.646 87.501 137.8 86.6045C136.81 87.6533 135.143 88.3975 132.799 88.8369L131.867 87.2549C133.924 87.0264 135.377 86.5254 136.227 85.752C135.26 85.1602 134.381 84.4951 133.59 83.7568L134.812 82.7549C135.491 83.376 136.259 83.9238 137.114 84.3984C137.366 83.8242 137.521 83.1738 137.58 82.4473H133.159V75.3545H137.589ZM137.589 76.7959H134.926V78.2021H137.589V76.7959ZM139.312 76.7959V78.2021H142.062V76.7959H139.312ZM137.589 79.5557H134.926V80.9883H137.589V79.5557ZM139.312 79.5557V80.9883H142.062V79.5557H139.312ZM131.375 75.9697V88.7139H129.538V79.7227C129.11 80.4316 128.636 81.1377 128.114 81.8408L127.288 79.8545C128.114 78.6943 128.823 77.3613 129.415 75.8555C129.819 74.8418 130.312 73.3564 130.892 71.3994L132.746 71.8652C132.307 73.377 131.85 74.7451 131.375 75.9697ZM150.31 81.3838C150.298 81.4131 150.281 81.4512 150.257 81.498C149.601 83.0449 148.731 84.4658 147.647 85.7607L146.478 83.959C148.107 82.3184 149.291 80.4697 150.029 78.4131H146.759V76.7432H150.31V74.4229C149.56 74.5752 148.713 74.707 147.77 74.8184L146.962 73.2715C149.557 72.9492 151.91 72.4219 154.019 71.6895L155.065 73.1836C154.251 73.4648 153.296 73.7432 152.2 74.0186V76.7432H155.531V78.4131H152.2V79.7314C153.331 80.376 154.447 81.2285 155.548 82.2891L154.45 83.9414C153.846 83.2441 153.096 82.4854 152.2 81.665V88.7139H150.31V81.3838ZM156.559 73.623H158.396V84.0293H156.559V73.623ZM160.681 71.9707H162.553V86.5869C162.553 87.2197 162.427 87.6797 162.175 87.9668C161.882 88.3066 161.308 88.4766 160.453 88.4766C159.416 88.4766 158.422 88.4238 157.473 88.3184L157.122 86.332C158.088 86.502 159.099 86.5869 160.154 86.5869C160.412 86.5869 160.57 86.4961 160.629 86.3145C160.664 86.2148 160.681 86.0771 160.681 85.9014V71.9707ZM166.046 75.082H173.104C172.723 74.0801 172.374 73.084 172.058 72.0938L173.983 71.9707C174.287 73.0137 174.654 74.0508 175.081 75.082H181.576V76.8838H175.907C176.663 78.4482 177.61 80.0801 178.746 81.7793L176.901 82.6582C175.647 80.7598 174.618 78.835 173.816 76.8838H166.046V75.082ZM178.825 88.0459C177.659 88.1104 176.628 88.1426 175.732 88.1426C173.294 88.1426 171.498 87.9521 170.344 87.5713C168.258 86.8916 167.215 85.6084 167.215 83.7217C167.215 82.5615 167.575 81.627 168.296 80.918L169.948 81.8145C169.468 82.2891 169.228 82.9102 169.228 83.6777C169.228 84.6562 169.755 85.3418 170.81 85.7344C171.741 86.0801 173.3 86.2529 175.486 86.2529C176.411 86.2529 177.454 86.209 178.614 86.1211L178.825 88.0459ZM185.86 74.0801H190.597C191.119 73.248 191.514 72.5771 191.784 72.0674L193.744 72.3486C193.568 72.665 193.258 73.1807 192.812 73.8955L192.698 74.0801H198.894V75.8115H191.529C190.762 76.8662 190.029 77.7803 189.332 78.5537C190.439 77.8916 191.45 77.5605 192.364 77.5605C193.782 77.5605 194.711 78.2725 195.15 79.6963C196.65 79.1982 198.179 78.7061 199.738 78.2197L200.494 79.9248L200.186 80.0127L199.316 80.2412C197.676 80.6865 196.363 81.0674 195.379 81.3838C195.449 82.1455 195.499 83.1299 195.528 84.3369L193.603 84.4424C193.597 83.7451 193.586 82.9893 193.568 82.1748V81.999C190.873 82.9189 189.525 83.8447 189.525 84.7764C189.525 85.2568 189.871 85.585 190.562 85.7607C191.23 85.9307 192.426 86.0156 194.148 86.0156C195.736 86.0156 197.403 85.9248 199.149 85.7432L199.36 87.6152C197.667 87.7441 195.912 87.8086 194.096 87.8086C191.857 87.8086 190.266 87.6387 189.323 87.2988C188.157 86.877 187.574 86.1182 187.574 85.0225C187.574 84.0967 187.987 83.2793 188.813 82.5703C189.669 81.8379 191.175 81.082 193.331 80.3027C193.214 79.8516 193.058 79.5352 192.865 79.3535C192.648 79.1484 192.361 79.0459 192.004 79.0459C191.424 79.0459 190.694 79.2656 189.815 79.7051C188.731 80.2441 187.568 81.0557 186.326 82.1396L185.157 80.8037C186.979 79.1104 188.406 77.4463 189.437 75.8115H185.86V74.0801ZM207.371 74.3086V77.877H209.111V79.6787H207.371V83.2119C207.845 83.0127 208.358 82.7754 208.909 82.5L209.128 84.249C207.494 85.1455 205.616 85.9717 203.495 86.7275L202.958 84.75C203.925 84.4688 204.784 84.1904 205.534 83.915V79.6787H203.477V77.877H205.534V74.3086H203.266V72.4893H209.313V74.3086H207.371ZM219.587 72.2607V81.2783H215.597V82.9482H219.746V84.5479H215.597V86.4023H220.378V88.1162H208.557V86.4023H213.795V84.5479H209.577V82.9482H213.795V81.2783H209.867V72.2607H219.587ZM211.563 73.8428V75.9521H213.795V73.8428H211.563ZM211.563 77.5166V79.6963H213.795V77.5166H211.563ZM217.856 79.6963V77.5166H215.597V79.6963H217.856ZM217.856 75.9521V73.8428H215.597V75.9521H217.856ZM228.318 75.7324H230.445V87.123C230.445 87.5977 230.354 87.9492 230.173 88.1777C229.962 88.4473 229.525 88.582 228.863 88.582C228.178 88.582 227.478 88.5352 226.763 88.4414L226.455 86.8242C227.17 86.918 227.8 86.9648 228.345 86.9648C228.597 86.9648 228.749 86.9238 228.802 86.8418C228.843 86.7773 228.863 86.6572 228.863 86.4814V83.7393H224.97C224.847 85.7842 224.313 87.46 223.37 88.7666L221.981 87.5801C222.544 86.6836 222.922 85.8428 223.115 85.0576C223.297 84.3369 223.388 83.4844 223.388 82.5V77.1035C223.253 77.25 223.042 77.458 222.755 77.7275L221.823 76.1982C223.241 74.9209 224.261 73.4033 224.882 71.6455L226.121 72.3486H228.986L229.725 73.1221C229.314 74.0361 228.846 74.9062 228.318 75.7324ZM227.571 77.1914V79.0283H228.863V77.1914H227.571ZM226.218 77.1914H224.97V79.0283H226.218V77.1914ZM226.561 75.7324C227.012 75.0234 227.366 74.3994 227.624 73.8604H225.708C225.333 74.5459 224.938 75.1699 224.521 75.7324H226.561ZM224.97 82.2979H226.218V80.3906H224.97V82.2979ZM227.571 82.2979H228.863V80.3906H227.571V82.2979ZM234.945 73.9482C234.869 74.6689 234.731 75.293 234.532 75.8203C234.075 77.0098 233.188 77.9941 231.869 78.7734L230.753 77.6045C231.567 77.1592 232.159 76.6348 232.528 76.0312C232.856 75.5039 233.082 74.8096 233.205 73.9482H230.911V72.4189H238.689C238.678 75.0498 238.561 76.7139 238.338 77.4111C238.203 77.833 237.978 78.1201 237.661 78.2725C237.438 78.3779 237.113 78.4307 236.686 78.4307C236.146 78.4307 235.531 78.3955 234.84 78.3252L234.567 76.7783C235.177 76.8955 235.687 76.9541 236.097 76.9541C236.366 76.9541 236.533 76.8984 236.598 76.7871C236.732 76.5352 236.832 75.5889 236.896 73.9482H234.945ZM234.365 80.4521V78.9932H236.149V80.4521H238.672V81.9814H236.149V83.7129H239.226V85.3301H236.149V88.6963H234.365V85.3301H230.929V83.7129H234.365V81.9814H232.862C232.851 82.0107 232.833 82.0605 232.81 82.1309C232.651 82.5879 232.426 83.0742 232.133 83.5898L230.744 82.6494C231.301 81.5947 231.685 80.3936 231.896 79.0459L233.434 79.2656C233.375 79.7402 233.316 80.1357 233.258 80.4521H234.365ZM242.762 72.3486H244.837V82.8252C244.837 85.0342 245.997 86.1387 248.317 86.1387C249.846 86.1387 251.1 85.4326 252.079 84.0205C252.712 83.1123 253.28 81.7061 253.784 79.8018L255.568 80.8828C254.97 82.998 254.253 84.5801 253.415 85.6289C252.096 87.2637 250.382 88.0811 248.273 88.0811C246.07 88.0811 244.517 87.4014 243.615 86.042C243.046 85.1924 242.762 84.0967 242.762 82.7549V72.3486ZM258.173 73.7461C263.564 73.6641 268.658 73.5264 273.457 73.333L273.563 75.082C271.447 75.1875 269.801 75.5098 268.623 76.0488C267.498 76.5645 266.596 77.2793 265.916 78.1934C265.143 79.2305 264.756 80.3848 264.756 81.6562C264.756 82.9219 265.196 83.8711 266.074 84.5039C267.082 85.2246 268.629 85.7197 270.715 85.9893L270.302 87.9668C267.583 87.6035 265.67 86.9004 264.563 85.8574C263.373 84.7441 262.779 83.3613 262.779 81.709C262.779 80.209 263.318 78.8086 264.396 77.5078C265.181 76.5527 266.256 75.7852 267.621 75.2051C265.201 75.2871 262.081 75.4248 258.261 75.6182L258.173 73.7461ZM284.939 83.0889C283.855 86.2764 282.639 87.8701 281.292 87.8701C280.331 87.8701 279.508 87.1963 278.822 85.8486C278.295 84.8057 277.931 83.6572 277.732 82.4033C277.492 80.8799 277.372 78.9229 277.372 76.5322C277.372 75.4951 277.41 74.3818 277.486 73.1924L279.552 73.3506C279.475 74.54 279.437 75.6709 279.437 76.7432C279.437 80.5049 279.789 83.127 280.492 84.6094C280.779 85.2188 281.049 85.5234 281.301 85.5234C281.465 85.5234 281.67 85.3359 281.916 84.9609C282.42 84.1992 282.906 83.1504 283.375 81.8145L284.939 83.0889ZM290.503 85.1807C290.204 82.708 289.838 80.71 289.404 79.1865C288.877 77.3408 288.264 75.6504 287.567 74.1152L289.439 73.6582C290.406 75.5742 291.124 77.4199 291.593 79.1953C291.979 80.6367 292.299 82.4707 292.551 84.6973L290.503 85.1807ZM297.74 72.5859H307.601L308.541 74.0449C305.495 75.9082 302.855 77.6016 300.622 79.125C302.064 78.5215 303.511 78.2197 304.964 78.2197C306.271 78.2197 307.361 78.4277 308.234 78.8438C309.042 79.2305 309.672 79.7578 310.123 80.4258C310.592 81.1348 310.827 81.9492 310.827 82.8691C310.827 84.1582 310.387 85.2363 309.508 86.1035C308.905 86.707 308.131 87.1641 307.188 87.4746C305.952 87.8789 304.598 88.0811 303.127 88.0811C301.434 88.0811 300.186 87.7676 299.383 87.1406C298.756 86.6484 298.443 85.9834 298.443 85.1455C298.443 84.5127 298.671 83.9502 299.128 83.458C299.82 82.7139 300.754 82.3418 301.932 82.3418C303.18 82.3418 304.179 82.7607 304.929 83.5986C305.474 84.208 305.867 85.0254 306.107 86.0508C307.912 85.4766 308.814 84.416 308.814 82.8691C308.814 81.6973 308.325 80.833 307.346 80.2764C306.69 79.9014 305.858 79.7139 304.85 79.7139C303.344 79.7139 301.985 79.9219 300.772 80.3379C299.875 80.6426 298.671 81.3779 297.16 82.5439L295.92 81.0498C297.549 79.6436 299.404 78.2168 301.484 76.7695C302.919 75.7734 304.185 74.9561 305.281 74.3174H297.74V72.5859ZM304.402 86.3936C303.986 84.7354 303.168 83.9062 301.95 83.9062C301.276 83.9062 300.789 84.1201 300.491 84.5479C300.35 84.7412 300.28 84.9492 300.28 85.1719C300.28 85.6348 300.608 85.9834 301.264 86.2178C301.739 86.3818 302.374 86.4639 303.171 86.4639C303.511 86.4639 303.921 86.4404 304.402 86.3936ZM320.964 72.3311H323.662L323.231 83.7041H321.395L320.964 72.3311ZM320.964 85.2861H323.662V87.9932H320.964V85.2861Z" fill="black"/>
<path d="M37.4002 110.794V123.749H35.5633V106.61H37.4002V110.328L38.3318 109.458C38.8533 110.729 39.2693 111.939 39.5799 113.088L38.2615 114.116C37.951 112.628 37.6639 111.521 37.4002 110.794ZM45.8201 110.442H50.4168V112.209H42.6385V120.146C42.6385 120.585 42.8465 120.86 43.2625 120.972C43.7254 121.095 44.5486 121.156 45.7322 121.156C46.8631 121.156 48.1521 121.077 49.5994 120.919V122.809C48.2576 122.932 46.9393 122.993 45.6443 122.993C43.9393 122.993 42.7908 122.932 42.199 122.809C41.5135 122.662 41.074 122.346 40.8807 121.859C40.7811 121.596 40.7312 121.253 40.7312 120.831V112.209H39.3602V110.442H43.8426V106.918H45.8201V110.442ZM32.9529 115.628C33.2107 114.444 33.4012 112.868 33.5242 110.899L33.5682 110.196L35.0975 110.354C35.074 112.71 34.8689 114.737 34.4822 116.437L32.9529 115.628ZM53.9623 107.349H56.0365V117.825C56.0365 120.034 57.1967 121.139 59.517 121.139C61.0463 121.139 62.3002 120.433 63.2787 119.021C63.9115 118.112 64.4799 116.706 64.9838 114.802L66.768 115.883C66.1703 117.998 65.4525 119.58 64.6146 120.629C63.2963 122.264 61.5824 123.081 59.473 123.081C57.2699 123.081 55.7172 122.401 54.8148 121.042C54.2465 120.192 53.9623 119.097 53.9623 117.755V107.349ZM81.291 123.274C78.6426 121.212 75.1738 118.909 70.8848 116.366C70.0937 115.903 69.6982 115.417 69.6982 114.907C69.6982 114.544 69.8711 114.201 70.2168 113.879C70.3633 113.738 70.7324 113.504 71.3242 113.176C73.4863 111.975 75.8184 110.542 78.3203 108.878C79.2637 108.257 80.1221 107.656 80.8955 107.076L82.0469 108.588C79.0293 110.727 75.9326 112.678 72.7568 114.441C72.4463 114.617 72.291 114.764 72.291 114.881C72.291 114.975 72.376 115.08 72.5459 115.197C72.5928 115.232 72.8652 115.396 73.3633 115.689C77.3828 118.062 80.4092 120.005 82.4424 121.517L81.291 123.274ZM95.3482 108.359H102.256V109.977H88.7037V114.081C88.7037 116.278 88.5514 118.127 88.2467 119.627C87.9654 121.039 87.4703 122.401 86.7613 123.714L85.2145 122.378C86.234 120.269 86.7437 117.503 86.7437 114.081V108.359H93.3707V106.61H95.3482V108.359ZM95.8668 112.517H101.518V114.099H95.8668V116.551H100.947V123.714H99.0045V122.668H91.6568V123.714H89.732V116.551H93.9596V110.354H95.8668V112.517ZM91.6568 118.115V121.086H99.0045V118.115H91.6568ZM117.026 110.425H120.62V120.04H113.132V110.425H115.382C115.464 110.126 115.59 109.604 115.76 108.86H112.666V107.296H121.359V108.86H117.571C117.418 109.394 117.254 109.871 117.078 110.293L117.026 110.425ZM118.836 111.813H114.846V113.202H118.836V111.813ZM114.846 114.521V115.865H118.836V114.521H114.846ZM114.846 117.184V118.634H118.836V117.184H114.846ZM111.682 110.627V115.988H104.835V110.627H111.682ZM106.584 112.121V114.512H109.95V112.121H106.584ZM108.65 120.26C109.083 119.064 109.455 117.749 109.766 116.313L111.515 116.762C111.222 117.822 110.876 118.842 110.478 119.82L111.374 119.601C111.732 119.513 112.054 119.431 112.341 119.354L112.429 120.866C110.191 121.622 107.618 122.325 104.712 122.976L104.132 121.227C105.521 120.957 106.698 120.708 107.665 120.479L108.65 120.26ZM104.255 107.296H112.086V108.878H104.255V107.296ZM105.951 120.418C105.705 119.27 105.368 118.142 104.941 117.034L106.602 116.472C106.983 117.397 107.322 118.52 107.621 119.838L105.951 120.418ZM120.119 123.767C119.27 122.706 118.35 121.818 117.36 121.104L118.696 120.093C119.727 120.772 120.673 121.575 121.534 122.501L120.119 123.767ZM111.313 122.633C112.526 122.029 113.595 121.194 114.521 120.128L115.98 120.972C114.919 122.237 113.771 123.21 112.534 123.89L111.313 122.633ZM124.72 122.958C124.497 120.966 124.386 118.985 124.386 117.017C124.386 113.642 124.635 110.437 125.133 107.401L127.066 107.604C126.592 110.229 126.354 113.19 126.354 116.489C126.354 118.704 126.477 120.775 126.723 122.703L124.72 122.958ZM129.993 109.036H138.439V110.908H129.993V109.036ZM139.037 121.877C137.865 122.059 136.473 122.149 134.862 122.149C130.813 122.149 128.789 120.96 128.789 118.581C128.789 117.638 129.041 116.814 129.545 116.111L131.206 116.85C130.889 117.295 130.731 117.796 130.731 118.353C130.731 119.038 131.074 119.51 131.76 119.768C132.521 120.061 133.561 120.207 134.88 120.207C136.304 120.207 137.622 120.113 138.835 119.926L139.037 121.877ZM146.599 114.266V123.714H144.657V116.305C144.041 116.885 143.4 117.436 142.732 117.957L141.704 116.261C143.731 114.854 145.579 112.892 147.249 110.372L148.761 111.365C148.099 112.402 147.378 113.369 146.599 114.266ZM155.977 114.169V121.947C155.977 122.574 155.798 123.014 155.441 123.266C155.148 123.465 154.67 123.564 154.008 123.564C152.924 123.564 151.881 123.529 150.879 123.459L150.537 121.569C151.574 121.669 152.491 121.719 153.287 121.719C153.621 121.719 153.824 121.654 153.894 121.525C153.953 121.426 153.982 121.285 153.982 121.104V114.169H148.506V112.367H159.053V114.169H155.977ZM141.827 110.838C143.672 109.807 145.24 108.421 146.529 106.681L148.076 107.709C146.482 109.719 144.747 111.283 142.872 112.402L141.827 110.838ZM149.693 107.586H157.849V109.353H149.693V107.586ZM173.277 123.274C170.629 121.212 167.16 118.909 162.871 116.366C162.08 115.903 161.685 115.417 161.685 114.907C161.685 114.544 161.857 114.201 162.203 113.879C162.35 113.738 162.719 113.504 163.311 113.176C165.473 111.975 167.805 110.542 170.307 108.878C171.25 108.257 172.108 107.656 172.882 107.076L174.033 108.588C171.016 110.727 167.919 112.678 164.743 114.441C164.433 114.617 164.277 114.764 164.277 114.881C164.277 114.975 164.362 115.08 164.532 115.197C164.579 115.232 164.852 115.396 165.35 115.689C169.369 118.062 172.396 120.005 174.429 121.517L173.277 123.274ZM182.167 107.639V120.233H179.196V121.64H177.614V107.639H182.167ZM179.196 109.291V113.018H180.69V109.291H179.196ZM179.196 114.6V118.546H180.69V114.6H179.196ZM188.02 107.313V113.483H184.575V115.47H187.589V117.104H184.575V119.161H188.161V120.813H184.575V123.714H182.94V107.313H188.02ZM186.491 108.913H184.575V111.919H186.491V108.913ZM193.654 107.313V113.483H188.723V111.901H191.984V108.948H188.706V107.313H193.654ZM191.061 121.517C190.194 122.431 189.157 123.201 187.95 123.828L186.834 122.378C188.134 121.821 189.207 121.112 190.05 120.251C189.3 119.132 188.741 117.89 188.372 116.524H187.932V114.925H193.188L194.032 115.646C193.622 117.421 192.986 118.936 192.125 120.189C192.921 120.957 193.803 121.584 194.77 122.07L193.777 123.723C192.711 123.055 191.805 122.319 191.061 121.517ZM189.892 116.524C190.191 117.403 190.589 118.203 191.087 118.924C191.509 118.273 191.855 117.474 192.125 116.524H189.892ZM196.619 110.495H200.504C200.68 109.593 200.876 108.471 201.093 107.129L201.137 106.874L203.062 107.164C202.863 108.406 202.657 109.517 202.446 110.495H203.51C204.916 110.495 205.924 110.812 206.533 111.444C207.078 112.013 207.351 112.897 207.351 114.099C207.351 116.12 207.137 118.01 206.709 119.768C206.463 120.764 206.164 121.499 205.813 121.974C205.367 122.565 204.749 122.861 203.958 122.861C203.009 122.861 201.972 122.557 200.847 121.947L201.067 120.093C202.18 120.626 203.044 120.893 203.659 120.893C203.982 120.893 204.231 120.72 204.406 120.374C204.594 119.999 204.773 119.457 204.943 118.748C205.277 117.312 205.444 115.804 205.444 114.222C205.444 113.39 205.277 112.851 204.943 112.604C204.655 112.399 204.143 112.297 203.404 112.297H202.051C201.119 116.445 199.783 119.984 198.043 122.914L196.277 121.947C198.075 118.93 199.359 115.713 200.126 112.297H196.619V110.495ZM211.218 119.17C210.556 116.732 209.51 114.339 208.08 111.989L209.794 111.216C211.271 113.571 212.375 115.941 213.108 118.326L211.218 119.17ZM209.917 110.75C209.554 109.801 208.968 108.746 208.159 107.586L209.522 107.076C210.231 108.078 210.825 109.118 211.306 110.196L209.917 110.75ZM212.281 109.994C211.824 108.863 211.241 107.8 210.532 106.804L211.824 106.373C212.498 107.176 213.087 108.178 213.591 109.379L212.281 109.994ZM225.618 112.965H227.613V117.79C228.984 118.394 230.387 119.19 231.823 120.181L230.812 121.824C229.804 121.086 228.738 120.4 227.613 119.768C227.549 120.805 227.212 121.602 226.602 122.158C225.923 122.773 224.971 123.081 223.746 123.081C222.562 123.081 221.587 122.812 220.819 122.272C220.069 121.739 219.694 120.995 219.694 120.04C219.694 119.038 220.166 118.235 221.109 117.632C221.842 117.163 222.779 116.929 223.922 116.929C224.455 116.929 225.02 116.993 225.618 117.122V112.965ZM225.618 118.924C224.921 118.684 224.262 118.563 223.64 118.563C223.031 118.563 222.542 118.672 222.173 118.889C221.698 119.17 221.461 119.545 221.461 120.014C221.461 120.588 221.801 121.007 222.48 121.271C222.82 121.399 223.227 121.464 223.702 121.464C224.464 121.464 225.012 121.142 225.346 120.497C225.527 120.151 225.618 119.747 225.618 119.284V118.924ZM216.187 109.599H219.545C219.844 108.585 220.084 107.691 220.265 106.918L222.19 107.155C221.956 108.017 221.716 108.831 221.47 109.599H224.678V111.365H220.898C219.849 114.371 218.619 116.914 217.207 118.994L215.572 118.062C216.908 116.082 218.036 113.85 218.956 111.365H216.187V109.599ZM230.865 113.879C229.564 112.432 228.07 111.113 226.383 109.924L227.543 108.658C229.219 109.742 230.748 111.005 232.131 112.446L230.865 113.879ZM242.663 118.089C241.579 121.276 240.364 122.87 239.016 122.87C238.055 122.87 237.232 122.196 236.546 120.849C236.019 119.806 235.656 118.657 235.456 117.403C235.216 115.88 235.096 113.923 235.096 111.532C235.096 110.495 235.134 109.382 235.21 108.192L237.276 108.351C237.2 109.54 237.162 110.671 237.162 111.743C237.162 115.505 237.513 118.127 238.216 119.609C238.503 120.219 238.773 120.523 239.025 120.523C239.189 120.523 239.394 120.336 239.64 119.961C240.144 119.199 240.63 118.15 241.099 116.814L242.663 118.089ZM248.227 120.181C247.928 117.708 247.562 115.71 247.128 114.187C246.601 112.341 245.989 110.65 245.291 109.115L247.163 108.658C248.13 110.574 248.848 112.42 249.317 114.195C249.704 115.637 250.023 117.471 250.275 119.697L248.227 120.181ZM253.75 119.495H256.703V122.448H253.75V119.495ZM260.591 119.495H263.545V122.448H260.591V119.495ZM267.433 119.495H270.386V122.448H267.433V119.495Z" fill="black"/>
<path d="M46.8211 143.966L48.0779 144.994C47.2576 148.744 45.9275 151.647 44.0877 153.704C43.0682 154.841 41.7498 155.837 40.1326 156.692C38.9842 157.296 37.7508 157.776 36.4324 158.134L35.4129 156.402C38.4246 155.617 40.7625 154.363 42.4266 152.641C41.0555 151.41 39.5437 150.32 37.8914 149.371L39.0428 147.947C40.6541 148.785 42.1863 149.816 43.6395 151.041C44.782 149.213 45.4998 147.443 45.7928 145.732H39.6053C38.1873 147.941 36.5174 149.632 34.5955 150.804L33.3035 149.406C35.1609 148.287 36.6873 146.808 37.8826 144.968C38.4978 144.03 38.9754 143.02 39.3152 141.936L41.2225 142.401C41.0291 142.929 40.8123 143.45 40.5721 143.966H46.8211ZM57.4242 157.932V148.914C55.643 150.109 53.6098 151.117 51.3246 151.938L50.2611 150.153C52.8568 149.28 55.1332 148.155 57.0902 146.778C59.0121 145.425 60.723 143.875 62.223 142.129L63.9193 143.192C62.5893 144.722 61.1068 146.125 59.4721 147.402V157.932H57.4242ZM66.1728 156.024C67.1924 154.524 68.0684 152.688 68.8008 150.514C69.5977 148.135 70.1016 145.718 70.3125 143.263L72.3252 143.676C71.8037 147.273 71.1035 150.297 70.2246 152.746C69.5918 154.527 68.8125 156.089 67.8867 157.431L66.1728 156.024ZM80.1738 157.519C79.1309 155.767 78.1758 153.654 77.3086 151.182C76.4824 148.82 75.7998 146.312 75.2607 143.658L77.168 143.069C78.1758 148.126 79.7607 152.5 81.9228 156.191L80.1738 157.519ZM80.8154 141.426C81.208 141.426 81.583 141.534 81.9404 141.751C82.292 141.962 82.5644 142.249 82.7578 142.612C82.9336 142.94 83.0215 143.283 83.0215 143.641C83.0215 144.215 82.8164 144.722 82.4062 145.161C81.9727 145.624 81.4365 145.855 80.7978 145.855C80.4814 145.855 80.1768 145.788 79.8838 145.653C79.5205 145.483 79.2246 145.234 78.9961 144.906C78.7266 144.52 78.5918 144.095 78.5918 143.632C78.5918 143.274 78.6826 142.929 78.8643 142.595C79.0459 142.261 79.292 141.991 79.6025 141.786C79.9717 141.546 80.376 141.426 80.8154 141.426ZM80.8066 142.507C80.5898 142.507 80.3848 142.568 80.1914 142.691C79.8457 142.908 79.6728 143.228 79.6728 143.649C79.6728 143.948 79.7754 144.206 79.9805 144.423C80.2031 144.657 80.4785 144.774 80.8066 144.774C80.9941 144.774 81.167 144.733 81.3252 144.651C81.7353 144.44 81.9404 144.106 81.9404 143.649C81.9404 143.327 81.8262 143.055 81.5977 142.832C81.3867 142.615 81.123 142.507 80.8066 142.507ZM92.2359 146.937V145.97H84.8004V144.528H92.2359V143.649C90.1031 143.743 88.4215 143.802 87.191 143.825L86.4527 142.419C91.6676 142.261 95.6578 141.968 98.4234 141.54L99.7066 142.929C98.1715 143.157 96.5221 143.342 94.7584 143.482L94.1432 143.535V144.528H101.702V145.97H94.1432V146.937H100.137V153.001H94.1432V154.082H100.735V155.488H94.1432V156.675H101.79V158.116H84.6949V156.675H92.2359V155.488H85.7496V154.082H92.2359V153.001H86.3473V146.937H92.2359ZM92.2359 148.193H88.2193V149.354H92.2359V148.193ZM94.1432 148.193V149.354H98.2477V148.193H94.1432ZM92.2359 150.593H88.2193V151.779H92.2359V150.593ZM94.1432 150.593V151.779H98.2477V150.593H94.1432ZM114.265 152.588C114.148 154.369 113.793 155.679 113.201 156.517C112.451 157.571 111.233 158.315 109.545 158.749L108.446 157.29C109.993 156.968 111.074 156.367 111.69 155.488C112.135 154.855 112.396 153.889 112.472 152.588H110.916V142.313H119.31V152.588H117.218V156.262C117.218 156.479 117.282 156.613 117.411 156.666C117.523 156.713 117.742 156.736 118.071 156.736C118.569 156.736 118.862 156.631 118.949 156.42C119.031 156.221 119.099 155.459 119.152 154.135L120.804 154.697C120.745 156.355 120.596 157.393 120.356 157.809C120.197 158.078 119.922 158.263 119.529 158.362C119.19 158.45 118.621 158.494 117.824 158.494C117.127 158.494 116.664 158.474 116.436 158.433C115.779 158.304 115.451 157.899 115.451 157.22V152.588H114.265ZM112.753 143.843V145.372H117.473V143.843H112.753ZM112.753 146.708V148.22H117.473V146.708H112.753ZM112.753 149.573V151.111H117.473V149.573H112.753ZM107.972 149.239C108.986 149.89 109.879 150.593 110.653 151.349L109.738 152.966C109.229 152.38 108.64 151.779 107.972 151.164V158.714H106.135V151.577C106.006 151.718 105.772 151.976 105.432 152.351C105.162 152.644 104.758 153.048 104.219 153.563L103.305 151.814C104.383 150.889 105.362 149.831 106.24 148.642C106.862 147.804 107.36 146.983 107.735 146.181H103.736V144.432H106.091V141.61H107.928V144.432H109.484L110.275 145.188C109.612 146.641 108.845 147.982 107.972 149.213V149.239ZM129.693 142.331H132.391L131.961 153.704H130.124L129.693 142.331ZM129.693 155.286H132.391V157.993H129.693V155.286ZM151.054 144.08V146.919H157.435V148.65H151.054V151.076H158.498V152.843H151.054V156.798C151.054 157.501 150.858 157.987 150.465 158.257C150.166 158.462 149.668 158.564 148.971 158.564C147.829 158.564 146.712 158.506 145.622 158.389L145.28 156.499C146.633 156.675 147.656 156.763 148.347 156.763C148.675 156.763 148.88 156.701 148.962 156.578C149.015 156.49 149.041 156.344 149.041 156.139V152.843H141.395V151.076H149.041V148.65H142.291V146.919H149.041V144.335L148.558 144.388C146.882 144.569 145.13 144.71 143.302 144.81L142.546 143.175C147.187 142.981 151.406 142.466 155.203 141.628L156.301 143.14C154.661 143.509 152.912 143.822 151.054 144.08ZM163.521 146.233V145.029H160.444V143.447H163.521V141.61H165.19V143.447H168.126V145.029H165.19V146.233H167.871V152.843H165.19V154.047H168.39V155.646H165.19V158.705H163.521V155.646H160.225V154.047H163.521V152.843H160.928V146.233H163.521ZM163.591 147.675H162.316V148.879H163.591V147.675ZM165.138 147.675V148.879H166.447V147.675H165.138ZM163.591 150.162H162.316V151.419H163.591V150.162ZM165.138 150.162V151.419H166.447V150.162H165.138ZM171.8 152.201V150.232H173.566V152.201H176.897V153.818H173.566V156.552H177.381V158.169H167.889V156.552H171.8V153.818H168.706V152.201H171.8ZM172.802 148.668C171.718 149.553 170.44 150.306 168.97 150.927L167.924 149.564C169.359 149.014 170.549 148.34 171.492 147.543C170.355 146.4 169.538 145.226 169.04 144.019H168.451V142.401H175.755L176.73 143.263C175.91 145.05 174.999 146.474 173.997 147.534C175.011 148.214 176.244 148.771 177.697 149.204L176.818 150.733C175.295 150.212 173.956 149.523 172.802 148.668ZM170.701 144.019C171.199 144.909 171.847 145.729 172.644 146.479C173.335 145.718 173.918 144.897 174.393 144.019H170.701ZM180.759 157.958C180.537 155.966 180.425 153.985 180.425 152.017C180.425 148.642 180.674 145.437 181.172 142.401L183.106 142.604C182.631 145.229 182.394 148.19 182.394 151.489C182.394 153.704 182.517 155.775 182.763 157.703L180.759 157.958ZM186.033 144.036H194.479V145.908H186.033V144.036ZM195.077 156.877C193.905 157.059 192.513 157.149 190.902 157.149C186.853 157.149 184.829 155.96 184.829 153.581C184.829 152.638 185.081 151.814 185.585 151.111L187.246 151.85C186.929 152.295 186.771 152.796 186.771 153.353C186.771 154.038 187.114 154.51 187.799 154.768C188.561 155.061 189.601 155.207 190.92 155.207C192.343 155.207 193.662 155.113 194.875 154.926L195.077 156.877ZM210.417 147.446C211.876 147.974 213.529 148.387 215.374 148.686L214.478 150.312C214.138 150.235 213.754 150.145 213.326 150.039V158.714H211.472V154.891H205.864C205.683 155.775 205.361 156.537 204.898 157.176C204.511 157.715 203.948 158.245 203.21 158.767L201.848 157.36C202.891 156.71 203.582 155.901 203.922 154.935C204.145 154.308 204.256 153.525 204.256 152.588V150.276C203.916 150.37 203.503 150.464 203.017 150.558L202.006 149.081C203.946 148.782 205.689 148.287 207.236 147.596C206.011 146.764 205.009 145.85 204.23 144.854H202.709V143.342H207.71V141.61H209.617V143.342H214.908V144.854H213.115C212.389 145.773 211.489 146.638 210.417 147.446ZM208.818 148.475C208.027 148.908 207.118 149.315 206.093 149.696V150.47H211.472V149.512C210.335 149.131 209.45 148.785 208.818 148.475ZM208.791 146.699C209.723 146.037 210.441 145.422 210.945 144.854H206.295C206.951 145.533 207.783 146.148 208.791 146.699ZM211.472 151.911H206.093V152.289C206.093 152.658 206.081 153.021 206.058 153.379H211.472V151.911ZM201.145 145.75C200.196 144.625 199.29 143.714 198.429 143.017L199.774 141.751C200.811 142.507 201.722 143.383 202.507 144.379L201.145 145.75ZM200.565 150.285C199.697 149.201 198.792 148.261 197.849 147.464L199.185 146.146C200.275 146.948 201.209 147.859 201.988 148.879L200.565 150.285ZM198.069 157.202C199.235 155.726 200.421 153.666 201.628 151.023L203.105 152.21C202.144 154.601 201.01 156.754 199.703 158.67L198.069 157.202ZM224.562 142.023H226.505V144.238H232.033V145.908H226.505V148H231.725V149.652H226.505V152.368C228.591 153.071 230.647 154.129 232.675 155.541L231.637 157.211C230.102 156.062 228.391 155.049 226.505 154.17C226.458 155.172 226.264 155.948 225.925 156.499C225.333 157.454 224.167 157.932 222.427 157.932C221.085 157.932 220.007 157.68 219.192 157.176C218.284 156.613 217.83 155.852 217.83 154.891C217.83 153.742 218.442 152.893 219.667 152.342C220.487 151.979 221.554 151.797 222.866 151.797C223.382 151.797 223.947 151.838 224.562 151.92V149.652H218.331V148H224.562V145.908H217.953V144.238H224.562V142.023ZM224.562 153.555C223.865 153.408 223.197 153.335 222.558 153.335C221.779 153.335 221.146 153.449 220.66 153.678C220.08 153.953 219.79 154.346 219.79 154.855C219.79 155.283 220.015 155.629 220.467 155.893C220.924 156.162 221.533 156.297 222.295 156.297C223.197 156.297 223.818 156.057 224.158 155.576C224.428 155.201 224.562 154.642 224.562 153.897V153.555ZM246.345 142.182H248.305V146.04H251.539V147.807H248.305V151.103C248.305 151.788 248.191 152.271 247.962 152.553C247.681 152.904 247.174 153.08 246.442 153.08C245.469 153.08 244.529 152.919 243.62 152.597V150.9C244.576 151.164 245.311 151.296 245.827 151.296C246.172 151.296 246.345 151.088 246.345 150.672V147.807H240.377V154.627C240.377 155.008 240.445 155.271 240.579 155.418C240.726 155.588 241.045 155.699 241.537 155.752C242.299 155.84 243.369 155.884 244.745 155.884C246.363 155.884 247.986 155.813 249.615 155.673V157.527C247.863 157.633 246.134 157.686 244.429 157.686C241.892 157.686 240.287 157.539 239.613 157.246C238.804 156.9 238.4 156.153 238.4 155.005V147.807H235.236V146.04H238.4V142.349H240.377V146.04H246.345V142.182ZM254.408 144.739H258.513C258.677 144.013 258.861 143.072 259.066 141.918L261.053 142.164C260.877 143.072 260.689 143.931 260.49 144.739H266.344V146.488H260.077C258.905 151.17 257.61 155.052 256.192 158.134L254.25 157.448C255.791 154.032 257.074 150.379 258.1 146.488H254.408V144.739ZM269.965 157.668C269.016 157.791 267.949 157.853 266.766 157.853C264.85 157.853 263.402 157.688 262.424 157.36C262.049 157.231 261.729 157.05 261.466 156.815C260.95 156.347 260.692 155.749 260.692 155.022C260.692 154.278 260.933 153.622 261.413 153.054L262.978 153.977C262.796 154.205 262.705 154.457 262.705 154.732C262.705 155.207 262.922 155.515 263.355 155.655C264.018 155.866 264.961 155.972 266.186 155.972C267.375 155.972 268.562 155.884 269.745 155.708L269.965 157.668ZM261.721 148.958C264.018 148.694 266.531 148.554 269.262 148.536L269.35 150.32C266.672 150.332 264.214 150.458 261.976 150.698L261.721 148.958ZM281.245 153.089C280.161 156.276 278.945 157.87 277.597 157.87C276.636 157.87 275.813 157.196 275.128 155.849C274.6 154.806 274.237 153.657 274.038 152.403C273.797 150.88 273.677 148.923 273.677 146.532C273.677 145.495 273.715 144.382 273.792 143.192L275.857 143.351C275.781 144.54 275.743 145.671 275.743 146.743C275.743 150.505 276.094 153.127 276.797 154.609C277.085 155.219 277.354 155.523 277.606 155.523C277.77 155.523 277.975 155.336 278.221 154.961C278.725 154.199 279.212 153.15 279.68 151.814L281.245 153.089ZM286.808 155.181C286.509 152.708 286.143 150.71 285.71 149.187C285.182 147.341 284.57 145.65 283.873 144.115L285.745 143.658C286.712 145.574 287.429 147.42 287.898 149.195C288.285 150.637 288.604 152.471 288.856 154.697L286.808 155.181ZM298.721 142.331H301.419L300.988 153.704H299.152L298.721 142.331ZM298.721 155.286H301.419V157.993H298.721V155.286Z" fill="black"/>
<path d="M39.7902 179.036C40.0656 178.286 40.2971 177.478 40.4846 176.61L42.7346 176.971C42.4943 177.674 42.2219 178.362 41.9172 179.036H48.3684V193.714H46.3732V192.466H37.0656V193.714H35.1057V179.036H39.7902ZM37.0656 180.688V182.965H46.3732V180.688H37.0656ZM37.0656 184.529V186.779H46.3732V184.529H37.0656ZM37.0656 188.326V190.796H46.3732V188.326H37.0656ZM60.7557 187.685V190.726C60.7557 191.142 60.9256 191.394 61.2654 191.481C61.5584 191.558 62.2938 191.596 63.4715 191.596C65.3465 191.596 66.3865 191.446 66.5916 191.147C66.7322 190.942 66.826 190.128 66.8729 188.704L68.8152 189.284C68.7508 190.503 68.6629 191.332 68.5516 191.771C68.3816 192.428 68.0125 192.858 67.4441 193.063C66.8289 193.286 65.4373 193.397 63.2693 193.397C61.3416 193.397 60.1785 193.33 59.7801 193.195C59.1004 192.961 58.7605 192.431 58.7605 191.604V187.834L52.2742 188.326L52.116 186.656L58.7605 186.138V184.046C56.9969 184.333 55.5027 184.541 54.2781 184.67L53.5926 183.088C57.9051 182.672 61.6551 181.922 64.8426 180.838L66.284 182.191C64.3621 182.818 62.5193 183.308 60.7557 183.659V185.979L69.1229 185.32L69.2459 187.034L60.7557 187.685ZM61.617 178.535H68.6746V182.297H66.6971V180.152H54.5242V182.297H52.5643V178.535H59.6395V176.61H61.617V178.535ZM74.602 177.92C75.0707 178.875 75.6039 180.041 76.2016 181.418C76.7816 181.207 77.5258 180.955 78.434 180.662C78.9262 180.504 79.2982 180.384 79.5502 180.302C79.14 179.329 78.7035 178.447 78.2406 177.656L79.8578 177.041C80.391 177.914 80.8773 178.857 81.3168 179.871C82.0844 179.713 82.7348 179.634 83.268 179.634C84.3813 179.634 85.2895 179.915 85.9926 180.478C86.098 180.565 86.1889 180.65 86.265 180.732C87.0561 181.576 87.4516 182.578 87.4516 183.738C87.4516 185.537 86.7572 186.823 85.3686 187.597C84.5482 188.06 83.2563 188.388 81.4926 188.581L80.7719 186.946C82.3891 186.812 83.5902 186.501 84.3754 186.015C85.0844 185.581 85.4389 184.805 85.4389 183.686C85.4389 182.959 85.2484 182.391 84.8676 181.98C84.4809 181.559 83.9418 181.348 83.2504 181.348C82.9398 181.348 82.518 181.395 81.9848 181.488C82.2602 182.215 82.5297 183.012 82.7934 183.879L81.0971 184.696C80.7924 183.63 80.4994 182.71 80.2182 181.937C79.1811 182.235 78.0707 182.602 76.8871 183.035C78.2934 186.48 79.4506 189.674 80.3588 192.615L78.5395 193.222C77.5902 190.099 76.4447 186.92 75.1029 183.686L74.7865 183.809C73.4389 184.324 72.4838 184.696 71.9213 184.925L71.2709 183.176L71.517 183.088C72.8705 182.59 73.8373 182.235 74.4174 182.024C73.8607 180.729 73.3275 179.561 72.8178 178.518L74.602 177.92ZM95.0488 183.598V193.705H93.4492V190.321C92.2773 190.72 91.0762 191.051 89.8457 191.314L89.3799 189.592C89.7139 189.527 90.0684 189.454 90.4434 189.372V178.966H89.6172V177.366H95.8047V178.588H97.8613V176.61H99.5752V178.588H101.746V180.029H101.21L101.192 180.126C101.04 180.788 100.85 181.436 100.621 182.068H102.3L102.265 180.627C102.241 179.637 102.229 178.465 102.229 177.111V176.61H103.838V177.261C103.838 179.065 103.853 180.428 103.882 181.348L103.899 182.068H106.949V183.598H103.952C103.958 183.697 103.961 183.797 103.961 183.896C103.984 184.717 104.046 185.654 104.146 186.709C104.55 185.982 104.969 185.118 105.402 184.116L106.729 185.013C106.015 186.542 105.273 187.887 104.506 189.047C104.658 189.715 104.86 190.33 105.112 190.893C105.218 191.115 105.294 191.227 105.341 191.227C105.476 191.227 105.651 190.424 105.868 188.818L107.222 189.697C106.946 192.287 106.387 193.582 105.543 193.582C105.156 193.582 104.746 193.307 104.313 192.756C103.896 192.229 103.542 191.561 103.249 190.752C102.37 191.824 101.392 192.797 100.313 193.67L99.1621 192.483C99.7129 192.079 100.188 191.695 100.586 191.332H97.3691V192.246H95.8926V184.67H101.315V190.62C101.339 190.591 101.371 190.556 101.412 190.515C101.74 190.175 102.188 189.633 102.757 188.889C102.587 188.021 102.446 186.258 102.335 183.598H95.0488ZM98.1865 182.068H99.1621C99.3672 181.383 99.5371 180.703 99.6719 180.029H97.7647C97.9463 180.68 98.0869 181.359 98.1865 182.068ZM96.71 182.068C96.5986 181.389 96.4551 180.759 96.2793 180.179L96.2354 180.029H95.5674V178.966H95.0488V182.068H96.71ZM93.4844 178.966H91.9551V181.198H93.4844V178.966ZM93.4844 182.657H91.9551V184.881H93.4844V182.657ZM93.4844 186.349H91.9551V189.029C92.5352 188.889 93.0449 188.757 93.4844 188.634V186.349ZM97.3691 185.927V187.324H99.8213V185.927H97.3691ZM97.3691 188.581V190.04H99.8213V188.581H97.3691ZM105.235 181.664C104.995 180.498 104.57 179.259 103.961 177.946L105.402 177.331C105.941 178.345 106.396 179.525 106.765 180.873L105.235 181.664ZM122.088 187.931C121.701 188.997 121.212 189.929 120.62 190.726C119.864 191.751 118.844 192.662 117.561 193.459L116.331 192.378C118.206 191.323 119.586 189.841 120.47 187.931H119.249C118.135 190.04 116.413 191.637 114.081 192.721L112.964 191.569C114.998 190.649 116.524 189.437 117.544 187.931H116.366C115.838 188.47 115.294 188.915 114.731 189.267L113.747 188.309C112.311 189.182 110.738 189.961 109.027 190.646L108.377 188.862C109.115 188.64 109.906 188.358 110.75 188.019V182.104H108.684V180.354H110.75V176.61H112.569V180.354H114.3V182.104H112.569V187.228C113.014 187.017 113.562 186.747 114.213 186.419L114.441 187.544C115.15 186.981 115.739 186.313 116.208 185.54H113.72V184.063H125.788V185.54H118.106C117.948 185.833 117.746 186.161 117.5 186.524H125.12C124.997 189.542 124.774 191.546 124.452 192.536C124.294 193.022 124.024 193.348 123.643 193.512C123.374 193.635 122.978 193.696 122.457 193.696C121.847 193.696 121.253 193.652 120.672 193.564L120.347 191.895C120.898 192.023 121.446 192.088 121.991 192.088C122.383 192.088 122.635 191.959 122.747 191.701C122.963 191.186 123.139 189.929 123.274 187.931H122.088ZM124.162 177.129V183.185H115.109V177.129H124.162ZM116.876 178.465V179.511H122.395V178.465H116.876ZM116.876 180.785V181.866H122.395V180.785H116.876ZM136.945 191.042C140.384 190.175 142.104 188.203 142.104 185.127C142.104 183.785 141.758 182.631 141.067 181.664C140.293 180.574 139.115 179.874 137.533 179.563C137.188 182.282 136.716 184.509 136.118 186.243C135.708 187.456 135.198 188.602 134.589 189.68C133.71 191.215 132.711 191.982 131.592 191.982C130.76 191.982 130.019 191.607 129.368 190.857C128.952 190.383 128.615 189.8 128.358 189.108C128.018 188.212 127.848 187.248 127.848 186.217C127.848 184.547 128.308 183.009 129.228 181.603C130.159 180.167 131.369 179.124 132.858 178.474C133.942 177.999 135.131 177.762 136.426 177.762C138.447 177.762 140.164 178.304 141.576 179.388C143.311 180.718 144.178 182.602 144.178 185.039C144.178 189.123 142.113 191.713 137.982 192.809L136.945 191.042ZM135.626 179.493C134.589 179.61 133.722 179.889 133.025 180.328C132.579 180.615 132.137 180.996 131.697 181.471C130.479 182.818 129.869 184.38 129.869 186.155C129.869 187.45 130.127 188.464 130.643 189.196C130.959 189.647 131.273 189.873 131.583 189.873C132.005 189.873 132.48 189.407 133.007 188.476C134.296 186.208 135.169 183.214 135.626 179.493ZM150.923 189.715C151.391 190.26 151.919 190.664 152.505 190.928C153.466 191.361 154.725 191.578 156.284 191.578H163.772C163.561 191.977 163.365 192.548 163.183 193.292H156.196C154.18 193.292 152.637 192.976 151.564 192.343C151.125 192.079 150.641 191.648 150.114 191.051C150.073 191.098 150.023 191.156 149.965 191.227C149.103 192.246 148.248 193.078 147.398 193.723L146.335 191.921C147.266 191.364 148.166 190.734 149.033 190.031V185.689H146.475V183.958H150.923V189.715ZM153.208 178.052L153.674 178.017C156.387 177.829 158.824 177.428 160.986 176.812L162.357 178.359C160.084 178.957 157.658 179.361 155.08 179.572V181.849H163.219V183.562H160.265V190.726H158.323V183.562H155.08C155.051 185.443 154.91 186.94 154.658 188.054C154.429 189.079 154.054 189.999 153.533 190.813L151.916 189.592C152.496 188.689 152.868 187.57 153.032 186.234C153.149 185.314 153.208 184.063 153.208 182.481V178.052ZM149.956 181.488C149.059 180.223 148.093 179.089 147.055 178.087L148.497 176.936C149.505 177.779 150.518 178.852 151.538 180.152L149.956 181.488ZM177.803 193.274C175.155 191.212 171.686 188.909 167.397 186.366C166.606 185.903 166.21 185.417 166.21 184.907C166.21 184.544 166.383 184.201 166.729 183.879C166.875 183.738 167.245 183.504 167.836 183.176C169.998 181.975 172.33 180.542 174.832 178.878C175.776 178.257 176.634 177.656 177.408 177.076L178.559 178.588C175.541 180.727 172.445 182.678 169.269 184.441C168.958 184.617 168.803 184.764 168.803 184.881C168.803 184.975 168.888 185.08 169.058 185.197C169.105 185.232 169.377 185.396 169.875 185.689C173.895 188.062 176.921 190.005 178.954 191.517L177.803 193.274ZM183.432 192.958C183.209 190.966 183.098 188.985 183.098 187.017C183.098 183.642 183.347 180.437 183.845 177.401L185.778 177.604C185.304 180.229 185.066 183.19 185.066 186.489C185.066 188.704 185.189 190.775 185.436 192.703L183.432 192.958ZM188.705 179.036H197.151V180.908H188.705V179.036ZM197.749 191.877C196.577 192.059 195.186 192.149 193.574 192.149C189.525 192.149 187.501 190.96 187.501 188.581C187.501 187.638 187.753 186.814 188.257 186.111L189.918 186.85C189.602 187.295 189.443 187.796 189.443 188.353C189.443 189.038 189.786 189.51 190.472 189.768C191.233 190.061 192.273 190.207 193.592 190.207C195.016 190.207 196.334 190.113 197.547 189.926L197.749 191.877ZM210.585 178.359H217.493V179.977H203.94V184.081C203.94 186.278 203.788 188.127 203.483 189.627C203.202 191.039 202.707 192.401 201.998 193.714L200.451 192.378C201.47 190.269 201.98 187.503 201.98 184.081V178.359H208.607V176.61H210.585V178.359ZM211.103 182.517H216.755V184.099H211.103V186.551H216.183V193.714H214.241V192.668H206.893V193.714H204.968V186.551H209.196V180.354H211.103V182.517ZM206.893 188.115V191.086H214.241V188.115H206.893ZM232.262 180.425H235.857V190.04H228.368V180.425H230.618C230.7 180.126 230.826 179.604 230.996 178.86H227.903V177.296H236.595V178.86H232.807C232.654 179.394 232.49 179.871 232.315 180.293L232.262 180.425ZM234.072 181.813H230.082V183.202H234.072V181.813ZM230.082 184.521V185.865H234.072V184.521H230.082ZM230.082 187.184V188.634H234.072V187.184H230.082ZM226.918 180.627V185.988H220.071V180.627H226.918ZM221.821 182.121V184.512H225.187V182.121H221.821ZM223.886 190.26C224.32 189.064 224.692 187.749 225.002 186.313L226.751 186.762C226.458 187.822 226.113 188.842 225.714 189.82L226.611 189.601C226.968 189.513 227.29 189.431 227.577 189.354L227.665 190.866C225.427 191.622 222.855 192.325 219.948 192.976L219.368 191.227C220.757 190.957 221.935 190.708 222.902 190.479L223.886 190.26ZM219.491 177.296H227.322V178.878H219.491V177.296ZM221.188 190.418C220.942 189.27 220.605 188.142 220.177 187.034L221.838 186.472C222.219 187.397 222.559 188.52 222.858 189.838L221.188 190.418ZM235.356 193.767C234.506 192.706 233.586 191.818 232.596 191.104L233.932 190.093C234.963 190.772 235.909 191.575 236.771 192.501L235.356 193.767ZM226.549 192.633C227.762 192.029 228.831 191.194 229.757 190.128L231.216 190.972C230.155 192.237 229.007 193.21 227.771 193.89L226.549 192.633ZM238.769 180.495H242.654C242.83 179.593 243.026 178.471 243.243 177.129L243.287 176.874L245.212 177.164C245.012 178.406 244.807 179.517 244.596 180.495H245.66C247.066 180.495 248.074 180.812 248.683 181.444C249.228 182.013 249.501 182.897 249.501 184.099C249.501 186.12 249.287 188.01 248.859 189.768C248.613 190.764 248.314 191.499 247.963 191.974C247.517 192.565 246.899 192.861 246.108 192.861C245.159 192.861 244.122 192.557 242.997 191.947L243.217 190.093C244.33 190.626 245.194 190.893 245.809 190.893C246.132 190.893 246.381 190.72 246.556 190.374C246.744 189.999 246.923 189.457 247.093 188.748C247.427 187.312 247.594 185.804 247.594 184.222C247.594 183.39 247.427 182.851 247.093 182.604C246.805 182.399 246.293 182.297 245.554 182.297H244.201C243.269 186.445 241.933 189.984 240.193 192.914L238.427 191.947C240.225 188.93 241.509 185.713 242.276 182.297H238.769V180.495ZM253.368 189.17C252.706 186.732 251.66 184.339 250.23 181.989L251.944 181.216C253.421 183.571 254.525 185.941 255.258 188.326L253.368 189.17ZM252.067 180.75C251.704 179.801 251.118 178.746 250.309 177.586L251.672 177.076C252.381 178.078 252.975 179.118 253.456 180.196L252.067 180.75ZM254.431 179.994C253.974 178.863 253.391 177.8 252.682 176.804L253.974 176.373C254.648 177.176 255.237 178.178 255.741 179.379L254.431 179.994ZM267.768 182.965H269.763V187.79C271.134 188.394 272.538 189.19 273.973 190.181L272.962 191.824C271.954 191.086 270.888 190.4 269.763 189.768C269.699 190.805 269.362 191.602 268.752 192.158C268.073 192.773 267.121 193.081 265.896 193.081C264.712 193.081 263.737 192.812 262.969 192.272C262.219 191.739 261.844 190.995 261.844 190.04C261.844 189.038 262.316 188.235 263.259 187.632C263.992 187.163 264.929 186.929 266.072 186.929C266.605 186.929 267.17 186.993 267.768 187.122V182.965ZM267.768 188.924C267.071 188.684 266.412 188.563 265.79 188.563C265.181 188.563 264.692 188.672 264.323 188.889C263.848 189.17 263.611 189.545 263.611 190.014C263.611 190.588 263.951 191.007 264.63 191.271C264.97 191.399 265.377 191.464 265.852 191.464C266.614 191.464 267.162 191.142 267.496 190.497C267.677 190.151 267.768 189.747 267.768 189.284V188.924ZM258.337 179.599H261.695C261.994 178.585 262.234 177.691 262.415 176.918L264.34 177.155C264.106 178.017 263.866 178.831 263.62 179.599H266.828V181.365H263.048C261.999 184.371 260.769 186.914 259.357 188.994L257.722 188.062C259.058 186.082 260.186 183.85 261.106 181.365H258.337V179.599ZM273.015 183.879C271.714 182.432 270.22 181.113 268.533 179.924L269.693 178.658C271.369 179.742 272.898 181.005 274.281 182.446L273.015 183.879ZM284.813 188.089C283.729 191.276 282.514 192.87 281.166 192.87C280.205 192.87 279.382 192.196 278.696 190.849C278.169 189.806 277.806 188.657 277.606 187.403C277.366 185.88 277.246 183.923 277.246 181.532C277.246 180.495 277.284 179.382 277.36 178.192L279.426 178.351C279.35 179.54 279.312 180.671 279.312 181.743C279.312 185.505 279.663 188.127 280.366 189.609C280.653 190.219 280.923 190.523 281.175 190.523C281.339 190.523 281.544 190.336 281.79 189.961C282.294 189.199 282.78 188.15 283.249 186.814L284.813 188.089ZM290.377 190.181C290.078 187.708 289.712 185.71 289.278 184.187C288.751 182.341 288.139 180.65 287.441 179.115L289.313 178.658C290.28 180.574 290.998 182.42 291.467 184.195C291.854 185.637 292.173 187.471 292.425 189.697L290.377 190.181ZM295.9 189.495H298.853V192.448H295.9V189.495ZM302.741 189.495H305.695V192.448H302.741V189.495ZM309.583 189.495H312.536V192.448H309.583V189.495Z" fill="black"/>
</svg>
