<svg width="345" height="173" viewBox="0 0 345 173" fill="none" xmlns="http://www.w3.org/2000/svg">
<path d="M17.3121 43.6521C17.769 39.0154 21.6684 35.4814 26.3275 35.4814H77.7562V138.906H7.92578L17.3121 43.6521Z" fill="#456B8E"/>
<path d="M0 89.4927C0 86.4127 1.56492 83.5437 4.15448 81.8762L27.6825 66.7256C34.9286 62.0595 43.9817 69.1935 41.1393 77.3298L21.749 132.834C20.4788 136.471 17.0483 138.906 13.1968 138.906H9.05908C4.05589 138.906 0 134.85 0 129.847V89.4927Z" fill="#456B8E"/>
<rect x="53.5996" y="122.298" width="38.5011" height="20.3829" fill="#123758"/>
<circle cx="55.4881" cy="146.833" r="24.535" fill="#123758"/>
<circle cx="55.4876" cy="146.833" r="15.4759" fill="#456B8E"/>
<circle cx="278.189" cy="147.588" r="24.535" fill="#123758"/>
<circle cx="278.189" cy="147.588" r="15.4759" fill="#456B8E"/>
<path d="M95.6774 12.1703H109.043V14.5418H95.6774V12.1703ZM110.682 28.9781C108.329 29.3351 105.83 29.5136 103.185 29.5136C100.468 29.5136 98.2856 29.2586 96.639 28.7486C95.9979 28.5519 95.4041 28.2387 94.8577 27.8088C94.0199 27.1385 93.601 26.2096 93.601 25.0221C93.601 23.5285 94.1765 22.2208 95.3276 21.0988L97.2292 22.3556C96.5298 23.1788 96.1801 23.9547 96.1801 24.6833C96.1801 25.4993 96.6718 26.0785 97.6554 26.4209C98.1799 26.6103 99.0141 26.7633 100.158 26.8799C101.105 26.9819 102.085 27.0329 103.098 27.0329C105.655 27.0329 108.07 26.8471 110.343 26.4756L110.682 28.9781ZM114.986 29.0874C117.798 22.5741 120.825 16.2794 124.067 10.2032L126.198 11.0557C124.734 13.744 123.003 17.0189 121.007 20.8802C122.384 19.3867 123.655 18.6399 124.821 18.6399C126.657 18.6399 127.575 20.0242 127.575 22.7927C127.575 22.9967 127.568 23.248 127.553 23.5468C127.524 24.1806 127.509 24.6797 127.509 25.0439C127.509 25.8963 127.56 26.5011 127.662 26.858C127.888 27.6303 128.453 28.0164 129.356 28.0164C130.231 28.0164 130.941 27.5902 131.487 26.7378C132.303 25.4701 132.974 23.1424 133.498 19.7546L135.64 21.0114C135.225 23.6852 134.697 25.7251 134.056 27.1313C133.065 29.3169 131.462 30.4098 129.247 30.4098C127.717 30.4098 126.621 29.9362 125.958 28.9891C125.433 28.2387 125.171 26.9855 125.171 25.2297C125.171 25.0767 125.178 24.8436 125.193 24.5303C125.222 23.9183 125.236 23.4848 125.236 23.2298C125.236 22.4284 125.163 21.8492 125.018 21.4922C124.85 21.0988 124.562 20.9021 124.154 20.9021C123.462 20.9021 122.683 21.3247 121.816 22.1698C121.073 22.8983 120.34 23.9657 119.619 25.3718C119.095 26.3918 118.297 28.1221 117.226 30.5628L114.986 29.0874ZM152.041 17.7657H154.522V23.7653C156.227 24.5157 157.972 25.5066 159.757 26.7378L158.5 28.7814C157.247 27.8635 155.921 27.011 154.522 26.2242C154.442 27.5137 154.023 28.5046 153.265 29.1967C152.42 29.9617 151.236 30.3442 149.714 30.3442C148.242 30.3442 147.029 30.0091 146.075 29.3388C145.142 28.6758 144.676 27.7505 144.676 26.563C144.676 25.3171 145.262 24.319 146.435 23.5686C147.346 22.9858 148.512 22.6943 149.932 22.6943C150.595 22.6943 151.298 22.7745 152.041 22.9348V17.7657ZM152.041 25.1751C151.174 24.8764 150.355 24.727 149.583 24.727C148.825 24.727 148.216 24.8618 147.757 25.1314C147.167 25.4811 146.872 25.9473 146.872 26.5302C146.872 27.2442 147.295 27.7651 148.14 28.0929C148.563 28.2532 149.069 28.3334 149.659 28.3334C150.606 28.3334 151.287 27.9327 151.703 27.1313C151.928 26.7014 152.041 26.1987 152.041 25.6231V25.1751ZM140.315 13.5801H144.49C144.861 12.3197 145.16 11.2086 145.386 10.247L147.779 10.542C147.488 11.613 147.189 12.6257 146.883 13.5801H150.872V15.7767H146.173C144.869 19.5142 143.339 22.6761 141.583 25.2625L139.55 24.1041C141.211 21.6416 142.614 18.8658 143.758 15.7767H140.315V13.5801ZM158.566 18.9022C156.948 17.1027 155.09 15.4634 152.992 13.9844L154.435 12.4108C156.518 13.7586 158.42 15.3286 160.139 17.1209L158.566 18.9022ZM173.688 15.7548C173.637 16.9715 173.564 18.0425 173.47 18.9678H182.278C182.169 24.024 181.885 27.3061 181.426 28.8142C181.192 29.5719 180.759 30.0965 180.125 30.3879C179.63 30.6138 178.905 30.7267 177.95 30.7267C176.945 30.7267 175.805 30.6502 174.53 30.4972L174.104 28.0383C175.816 28.2787 177.021 28.3989 177.721 28.3989C178.311 28.3989 178.686 28.2314 178.846 27.8962C179.233 27.0803 179.502 24.829 179.655 21.1425H173.153C172.912 22.4539 172.574 23.5905 172.136 24.5522C170.92 27.2114 168.887 29.3206 166.038 30.8797L164.312 28.9563C167.168 27.47 169.055 25.5211 169.973 23.1096C170.585 21.4995 170.982 19.0479 171.164 15.7548H163.929V13.5145H172.858V9.86446H175.382V13.5145H184.606V15.7548H173.688ZM202.045 10.6732H204.438V14.6292H208.897V16.804H204.438V23.514C206.165 24.3081 207.874 25.4228 209.564 26.858L208.34 29.0219C206.912 27.776 205.604 26.7852 204.417 26.0493C204.285 27.8343 203.652 29.0291 202.515 29.6338C201.881 29.969 201.014 30.1365 199.914 30.1365C198.719 30.1365 197.681 29.9216 196.8 29.4918C195.466 28.8434 194.8 27.7651 194.8 26.257C194.8 25.0694 195.306 24.126 196.319 23.4265C197.244 22.7854 198.432 22.4648 199.881 22.4648C200.544 22.4648 201.266 22.5486 202.045 22.7162V16.804H195.018V14.6292H202.045V10.6732ZM202.045 24.8363C201.193 24.5667 200.435 24.432 199.772 24.432C199.138 24.432 198.599 24.5303 198.155 24.727C197.455 25.0257 197.106 25.5139 197.106 26.1914C197.106 26.7451 197.361 27.1786 197.871 27.4919C198.366 27.7979 199.029 27.9509 199.859 27.9509C201.317 27.9509 202.045 27.1313 202.045 25.492V24.8363ZM190.177 30.0928C189.922 27.6886 189.794 25.1605 189.794 22.5086C189.794 18.3704 190.071 14.4252 190.625 10.6732L193.029 11.0229C192.483 14.2577 192.21 17.7547 192.21 21.5141C192.21 24.2753 192.348 27.011 192.625 29.7213L190.177 30.0928Z" fill="#BDF4C3"/>
<path d="M114.44 69.4137V76.8598C114.44 77.8785 114.856 78.4954 115.689 78.7106C116.406 78.8971 118.206 78.9903 121.09 78.9903C125.681 78.9903 128.228 78.6245 128.73 77.8928C129.074 77.3907 129.304 75.3964 129.419 71.9101L134.175 73.3305C134.017 76.3146 133.802 78.3447 133.529 79.4208C133.113 81.0276 132.209 82.0821 130.817 82.5843C129.311 83.1294 125.904 83.402 120.595 83.402C115.875 83.402 113.027 83.237 112.052 82.9071C110.387 82.3332 109.555 81.0348 109.555 79.0119V69.7796L93.6731 70.9847L93.2857 66.8959L109.555 65.6261V60.5043C105.237 61.2073 101.578 61.7166 98.5798 62.0322L96.9012 58.1586C107.461 57.1399 116.643 55.3035 124.447 52.6493L127.977 55.9635C123.271 57.4986 118.759 58.6966 114.44 59.5574V65.2388L134.928 63.6247L135.229 67.8212L114.44 69.4137ZM116.549 47.011H133.83V56.2217H128.988V50.9707H99.1823V56.2217H94.3833V47.011H111.707V42.298H116.549V47.011ZM148.912 52.6493V47.9794H141.896V43.9766H164.019V47.9794H157.305V52.6493H163.223V83.7248H159.263V81.6589H147.212V84.1768H143.123V52.6493H148.912ZM152.032 52.6493H154.141V47.9794H152.032V52.6493ZM149.235 56.3508H147.212V65.949C148.417 63.7395 149.091 60.5402 149.235 56.3508ZM151.989 56.3508C151.975 61.5731 151.078 65.7768 149.299 68.9618L147.212 67.068V70.7265H159.263V66.53H156.745C155.741 66.53 155.052 66.3363 154.679 65.949C154.321 65.5759 154.141 64.9375 154.141 64.0336V56.3508H151.989ZM156.917 56.3508V62.3981C156.917 62.7998 156.975 63.0437 157.09 63.1298C157.19 63.2015 157.427 63.2374 157.8 63.2374H159.263V56.3508H156.917ZM147.212 74.1698V77.8282H159.263V74.1698H147.212ZM170.798 63.1083V77.4194C170.798 78.1941 171.028 78.6532 171.487 78.7967C172.161 79.0119 173.259 79.1195 174.779 79.1195C176.142 79.1195 177.118 78.9832 177.706 78.7106C178.18 78.4954 178.488 77.9645 178.632 77.1181C178.775 76.2142 178.897 74.4926 178.997 71.9532L179.04 71.0708L183.667 72.276C183.553 75.9775 183.344 78.5528 183.043 80.0018C182.627 81.9673 181.429 83.0864 179.449 83.359C178.129 83.5312 176.092 83.6172 173.337 83.6172C170.439 83.6172 168.524 83.3231 167.592 82.7349C166.702 82.1754 166.257 80.9774 166.257 79.141V58.9118H177.319V48.3883H165.741V44.1487H181.817V63.1083H170.798ZM218.806 76.4079C223.081 77.3548 227.457 78.811 231.933 80.7765L228.727 84.435C223.533 82.1252 218.741 80.3318 214.351 79.0549L216.74 76.4079H204.387L207.163 78.9688C202.759 81.3791 198.103 83.2729 193.197 84.6502L190.205 80.4968C194.581 79.6647 198.921 78.3017 203.225 76.4079H195.133V55.9204H227.005V76.4079H218.806ZM199.932 59.0839V61.7309H222.206V59.0839H199.932ZM199.932 64.6793V67.2832H222.206V64.6793H199.932ZM199.932 70.2746V73.0507H222.206V70.2746H199.932ZM230.04 43.8044V54.0266H192.099V43.8044H230.04ZM196.726 47.2477V50.7555H203.419V47.2477H196.726ZM225.413 50.7555V47.2477H218.677V50.7555H225.413ZM207.658 47.2477V50.7555H214.351V47.2477H207.658ZM261.003 46.5806H277.66L279.834 48.7972C279.245 53.1586 278.492 56.8889 277.574 59.9878C276.57 63.4454 275.149 66.8098 273.313 70.0809C275.623 73.6246 278.234 76.5155 281.146 78.7536L278.327 83.6388C275.357 80.9415 272.796 77.8426 270.644 74.3419C268.908 76.7809 267.345 78.7106 265.953 80.1309C264.518 81.6087 262.954 82.8855 261.261 83.9616L258.227 79.8081C261.957 77.6848 265.243 74.3634 268.083 69.8442C268.026 69.7294 267.969 69.6218 267.911 69.5214C266.247 66.1929 264.906 62.2187 263.887 57.599C263.313 55.0022 262.926 52.7856 262.725 50.9492H260.207V48.2592H258.141V84.1768H253.729V75.418L252.33 75.7623C248.012 76.8813 243.88 77.7924 239.935 78.4954L238.514 73.9115C240.465 73.6533 241.814 73.4668 242.56 73.352V48.2592H239.397V44.0627H261.003V46.5806ZM253.729 48.2592H246.843V53.4025H253.729V48.2592ZM253.729 57.061H246.843V62.269H253.729V57.061ZM253.729 65.8414H246.843V72.6849C247.589 72.5557 248.148 72.4625 248.521 72.4051C249.669 72.2186 251.405 71.9101 253.729 71.4797V65.8414ZM266.9 50.9492C267.488 56.3724 268.722 61.1356 270.601 65.2388C272.61 60.9777 274.037 56.2145 274.884 50.9492H266.9ZM288.05 51.81H297.562C297.992 49.6006 298.473 46.8531 299.004 43.5677L299.112 42.9436L303.825 43.6538C303.337 46.6953 302.835 49.4141 302.318 51.81H304.922C308.365 51.81 310.833 52.5848 312.325 54.1342C313.659 55.5259 314.327 57.6923 314.327 60.6334C314.327 65.5831 313.803 70.21 312.756 74.5141C312.153 76.9531 311.421 78.7536 310.56 79.9157C309.47 81.3648 307.956 82.0893 306.02 82.0893C303.695 82.0893 301.156 81.3432 298.401 79.8512L298.939 75.3103C301.665 76.6159 303.781 77.2687 305.288 77.2687C306.077 77.2687 306.687 76.8455 307.117 75.999C307.576 75.0808 308.014 73.7537 308.43 72.0177C309.248 68.5027 309.657 64.8084 309.657 60.9347C309.657 58.8974 309.248 57.5775 308.43 56.9749C307.727 56.4728 306.472 56.2217 304.664 56.2217H301.35C299.069 66.3794 295.797 75.0449 291.536 82.2184L287.211 79.8512C291.615 72.4625 294.757 64.586 296.637 56.2217H288.05V51.81ZM323.796 73.0507C322.174 67.0824 319.613 61.2216 316.113 55.4685L320.309 53.5747C323.925 59.3422 326.629 65.1455 328.422 70.9847L323.796 73.0507ZM320.61 52.4341C319.721 50.1099 318.286 47.5275 316.306 44.6868L319.642 43.4386C321.378 45.8919 322.834 48.4385 324.011 51.0783L320.61 52.4341ZM326.399 50.5834C325.28 47.8144 323.853 45.2104 322.117 42.7714L325.28 41.7169C326.93 43.6825 328.372 46.1358 329.606 49.0769L326.399 50.5834Z" fill="#BDF4C3"/>
<path d="M97.3395 102.962H98.7657V96.2573H102.061V102.962H104.88V106.224H102.061V111.863C103.295 111.448 104.388 111.054 105.339 110.683L105.519 113.174H117.027V109.65H104.274V106.634H112.634V102.864H105.847V99.8801H112.634V96.2573H116.125V99.8801H123.141V102.864H116.125V106.634H124.977V109.65H120.486V113.174H124.207V116.256H120.486V125.125C120.486 126.338 120.158 127.163 119.502 127.6C118.989 127.95 118.098 128.124 116.83 128.124C115.344 128.124 114.043 128.059 112.929 127.928L112.257 124.731C113.798 124.884 115.016 124.961 115.912 124.961C116.415 124.961 116.737 124.851 116.879 124.633C116.978 124.48 117.027 124.228 117.027 123.879V116.256H104.913V113.863C103.875 114.322 102.924 114.715 102.061 115.043V128.157H98.7001V116.256C96.9625 116.846 95.2467 117.371 93.5528 117.83L92.684 114.453C94.979 113.918 96.9843 113.398 98.7001 112.896V106.224H96.8477C96.509 108.071 96.05 109.874 95.4708 111.634L92.5857 109.847C93.6457 106.798 94.3506 103.131 94.7003 98.8473L97.6838 99.1752C97.5635 100.727 97.4488 101.989 97.3395 102.962ZM110.503 123.993C109.421 121.742 108.279 119.802 107.077 118.174L110.109 116.502C111.497 118.262 112.672 120.152 113.634 122.174L110.503 123.993ZM132.859 126.747C132.444 123.032 132.236 119.338 132.236 115.666C132.236 109.371 132.7 103.394 133.629 97.7327L137.236 98.1097C136.35 103.006 135.908 108.53 135.908 114.683C135.908 118.813 136.137 122.677 136.596 126.272L132.859 126.747ZM142.694 100.782H158.448V104.273H142.694V100.782ZM159.562 124.731C157.377 125.07 154.781 125.239 151.776 125.239C144.224 125.239 140.449 123.021 140.449 118.584C140.449 116.824 140.918 115.289 141.858 113.978L144.957 115.355C144.366 116.185 144.071 117.12 144.071 118.158C144.071 119.436 144.711 120.316 145.989 120.797C147.41 121.343 149.35 121.617 151.809 121.617C154.464 121.617 156.923 121.442 159.185 121.092L159.562 124.731ZM176.542 97.0933H180.164V101.929H187.656V105.257H180.164V110.634C182.394 110.186 184.487 109.961 186.443 109.961C188.585 109.961 190.421 110.388 191.951 111.24C193.404 112.049 194.47 113.174 195.147 114.617C195.617 115.611 195.852 116.682 195.852 117.83C195.852 120.977 194.606 123.283 192.115 124.748C190.497 125.698 188.158 126.354 185.099 126.715L183.754 123.551C186.355 123.31 188.355 122.824 189.754 122.092C191.36 121.24 192.164 119.808 192.164 117.797C192.164 116.059 191.535 114.759 190.279 113.896C189.317 113.24 188.005 112.912 186.344 112.912C184.574 112.912 182.514 113.18 180.164 113.715V122.371C180.164 123.551 179.869 124.507 179.279 125.239C178.514 126.201 177.394 126.682 175.919 126.682C174.575 126.682 173.176 126.299 171.722 125.534C170.968 125.13 170.28 124.6 169.657 123.944C168.477 122.688 167.886 121.305 167.886 119.797C167.886 118.365 168.416 117.092 169.476 115.978C171.061 114.316 173.416 112.879 176.542 111.666V105.257H169.526V101.929H176.542V97.0933ZM176.542 114.896C175.143 115.475 173.979 116.169 173.05 116.977C171.957 117.928 171.411 118.852 171.411 119.748C171.411 120.6 171.793 121.36 172.558 122.026C173.345 122.726 174.219 123.075 175.181 123.075C176.088 123.075 176.542 122.507 176.542 121.371V114.896ZM195.819 108.814C193.819 105.732 191.59 102.989 189.131 100.585L191.688 98.5359C194.256 100.864 196.519 103.541 198.475 106.568L195.819 108.814ZM220.487 96.9294H224.175V101.454H233.847V104.618H224.175V111.634C224.558 112.978 224.749 114.174 224.749 115.223C224.749 119.114 223.891 121.972 222.175 123.797C220.306 125.797 217.492 127.179 213.733 127.944L211.864 125.157C214.782 124.6 216.946 123.813 218.356 122.797C219.678 121.835 220.569 120.529 221.028 118.879C219.858 120.158 218.465 120.797 216.848 120.797C215.033 120.797 213.564 120.283 212.438 119.256C211.116 118.043 210.454 116.284 210.454 113.978C210.454 112.765 210.744 111.595 211.323 110.47C211.706 109.748 212.176 109.147 212.733 108.666C214.023 107.574 215.569 107.027 217.372 107.027C218.52 107.027 219.558 107.3 220.487 107.847V104.618H204.307V101.454H220.487V96.9294ZM220.618 113.945V113.338C220.618 112.639 220.454 112.021 220.126 111.486C219.514 110.481 218.629 109.978 217.47 109.978C216.88 109.978 216.328 110.142 215.815 110.47C214.613 111.224 214.012 112.382 214.012 113.945C214.012 114.928 214.23 115.759 214.667 116.437C215.279 117.376 216.181 117.846 217.372 117.846C218.454 117.846 219.312 117.36 219.946 116.387C220.394 115.699 220.618 114.885 220.618 113.945ZM256.432 96.9294H260.121V101.454H269.792V104.618H260.121V111.634C260.503 112.978 260.694 114.174 260.694 115.223C260.694 119.114 259.836 121.972 258.121 123.797C256.252 125.797 253.438 127.179 249.679 127.944L247.81 125.157C250.728 124.6 252.891 123.813 254.301 122.797C255.624 121.835 256.514 120.529 256.973 118.879C255.804 120.158 254.41 120.797 252.793 120.797C250.979 120.797 249.509 120.283 248.384 119.256C247.061 118.043 246.4 116.284 246.4 113.978C246.4 112.765 246.69 111.595 247.269 110.47C247.651 109.748 248.121 109.147 248.679 108.666C249.968 107.574 251.514 107.027 253.318 107.027C254.465 107.027 255.503 107.3 256.432 107.847V104.618H240.253V101.454H256.432V96.9294ZM256.563 113.945V113.338C256.563 112.639 256.399 112.021 256.072 111.486C255.46 110.481 254.574 109.978 253.416 109.978C252.826 109.978 252.274 110.142 251.76 110.47C250.558 111.224 249.957 112.382 249.957 113.945C249.957 114.928 250.176 115.759 250.613 116.437C251.225 117.376 252.126 117.846 253.318 117.846C254.4 117.846 255.257 117.36 255.891 116.387C256.339 115.699 256.563 114.885 256.563 113.945ZM282.755 98.667C283.094 100.208 283.597 102.115 284.263 104.388C286.886 102.956 289.788 102.202 292.968 102.126C293.252 100.53 293.487 98.8965 293.673 97.2245L297.296 97.9294C297.055 99.656 296.809 101.181 296.558 102.503C298.962 103.071 300.885 104.044 302.328 105.421C304.612 107.617 305.754 110.453 305.754 113.928C305.754 118.136 304.399 121.283 301.689 123.371C299.678 124.922 297.208 125.933 294.279 126.403L292.558 123.354C295.443 122.808 297.694 121.884 299.312 120.584C301.082 119.163 301.967 116.874 301.967 113.715C301.967 111.409 301.295 109.486 299.951 107.945C298.989 106.841 297.656 106.033 295.951 105.519C295.132 108.929 294.296 111.612 293.443 113.568C292.285 116.245 290.722 118.65 288.755 120.781C286.099 123.655 283.63 125.092 281.346 125.092C279.553 125.092 278.209 124.218 277.313 122.469C276.679 121.212 276.362 119.688 276.362 117.895C276.362 113.524 278.045 109.727 281.411 106.503C280.799 104.59 280.187 102.372 279.575 99.8473L282.755 98.667ZM282.559 109.814C280.635 112.24 279.674 114.814 279.674 117.535C279.674 118.77 279.848 119.77 280.198 120.535C280.537 121.289 281.034 121.666 281.69 121.666C282.826 121.666 284.367 120.584 286.313 118.42C284.957 115.961 283.706 113.092 282.559 109.814ZM292.361 105.126C289.76 105.268 287.389 106.027 285.247 107.404C286.285 110.486 287.394 113.147 288.575 115.387C290.29 112.623 291.553 109.202 292.361 105.126ZM325.717 97.6015H330.749L329.946 118.813H326.52L325.717 97.6015ZM325.717 121.764H330.749V126.813H325.717V121.764Z" fill="#BDF4C3"/>
</svg>
