<svg width="345" height="244" viewBox="0 0 345 244" fill="none" xmlns="http://www.w3.org/2000/svg">
<rect width="345" height="206" rx="12" fill="white"/>
<path d="M36.1201 33.335V39.877C36.1201 40.3874 35.9902 40.7428 35.7305 40.9434C35.5026 41.1257 35.0811 41.2168 34.4658 41.2168C33.6455 41.2168 32.9551 41.1849 32.3945 41.1211L32.1143 39.7744C32.9847 39.861 33.6842 39.9043 34.2129 39.9043C34.4225 39.9043 34.5479 39.8656 34.5889 39.7881C34.6208 39.7334 34.6367 39.6354 34.6367 39.4941V33.335H28.293V32.0908H37.6582V33.335H36.1201ZM27.9854 29.2197V28.0303H29.4551V29.2197H32.4082V28.0303H33.9053V29.2197H37.3506V30.4775H33.9053V31.5576H32.4082V30.4775H29.4551V31.5576H28.4775C28.1676 32.3506 27.8304 33.0592 27.4658 33.6836V41.333H25.9961V35.8574C25.6361 36.3086 25.235 36.7484 24.793 37.1768L24.123 35.8027C25.4219 34.5221 26.4062 32.943 27.0762 31.0654L27.9854 31.3867V30.4775H24.6494V29.2197H27.9854ZM33.3652 34.5791V38.4346H29.8926V39.3848H28.5732V34.5791H33.3652ZM29.8926 35.6318V37.3271H32.0664V35.6318H29.8926ZM50.0818 31.6396L50.034 31.9199C49.7378 33.6927 49.2775 35.249 48.6531 36.5889C47.9969 37.9834 46.9897 39.3301 45.6316 40.6289L44.5857 39.6787C46.0213 38.2933 47.0923 36.7803 47.7986 35.1396C48.2589 34.0778 48.6053 32.9111 48.8377 31.6396H48.0242C47.7189 32.779 47.352 33.793 46.9236 34.6816C46.354 35.8574 45.5883 36.9033 44.6268 37.8193L43.6492 36.8213C44.743 35.8141 45.561 34.693 46.1033 33.458C46.3631 32.8701 46.5773 32.264 46.7459 31.6396H46.035C45.7296 32.3916 45.2876 33.139 44.7088 33.8818L43.8406 32.8086C44.032 32.5534 44.2029 32.2959 44.3533 32.0361H42.8221V34.5039C43.2231 34.3672 43.7723 34.1644 44.4695 33.8955L44.5857 35.0713C44.0434 35.3311 43.4555 35.5931 42.8221 35.8574V41.333H41.4207V36.3975C40.9513 36.5798 40.2609 36.8099 39.3494 37.0879L38.9119 35.6865C39.6912 35.4814 40.4637 35.2604 41.2293 35.0234L41.4207 34.9619V32.0361H40.6482C40.5024 32.8291 40.311 33.5856 40.074 34.3057L38.8709 33.5605C39.313 32.2754 39.6069 30.7441 39.7527 28.9668L40.9969 29.1104C40.9513 29.721 40.9012 30.2474 40.8465 30.6895H41.448V28.0303H42.8221V30.6895H44.4012V31.9541C44.9799 30.915 45.4243 29.5934 45.7342 27.9893L47.2039 28.2422C47.0581 28.9759 46.8598 29.6755 46.6092 30.3408H52.0711C52.0164 35.3857 51.8364 38.5326 51.5311 39.7812C51.3852 40.3646 51.1482 40.7565 50.8201 40.957C50.5239 41.1348 50.0841 41.2236 49.5008 41.2236C49.2684 41.2236 48.8628 41.1963 48.284 41.1416L47.9422 41.1074L47.7166 39.6514C48.2999 39.7653 48.7967 39.8223 49.2068 39.8223C49.5896 39.8223 49.838 39.7402 49.952 39.5762C50.1115 39.3483 50.2345 38.8743 50.3211 38.1543C50.4533 37.0378 50.5626 35.0508 50.6492 32.1934L50.6629 31.6396H50.0818ZM54.0426 31.0518H57.0641C57.2008 30.3499 57.3535 29.4772 57.5221 28.4336L57.5562 28.2354L59.0533 28.4609C58.8984 29.4271 58.7389 30.2907 58.5748 31.0518H59.402C60.4957 31.0518 61.2796 31.2979 61.7535 31.79C62.1773 32.2321 62.3893 32.9202 62.3893 33.8545C62.3893 35.4268 62.2229 36.8965 61.8902 38.2637C61.6988 39.0384 61.4664 39.6104 61.193 39.9795C60.8466 40.4398 60.3658 40.6699 59.7506 40.6699C59.0123 40.6699 58.2057 40.4329 57.3307 39.959L57.5016 38.5166C58.3674 38.9313 59.0396 39.1387 59.5182 39.1387C59.7688 39.1387 59.9625 39.0042 60.0992 38.7354C60.2451 38.4437 60.384 38.0221 60.5162 37.4707C60.776 36.3542 60.9059 35.1807 60.9059 33.9502C60.9059 33.3031 60.776 32.8838 60.5162 32.6924C60.2929 32.5329 59.8941 32.4531 59.3199 32.4531H58.2672C57.5426 35.6797 56.5035 38.4323 55.15 40.7109L53.776 39.959C55.1751 37.612 56.1731 35.11 56.7701 32.4531H54.0426V31.0518ZM65.3971 37.7988C64.8821 35.903 64.0686 34.0413 62.9566 32.2139L64.2896 31.6123C65.4381 33.4443 66.2971 35.2878 66.8668 37.1426L65.3971 37.7988ZM64.3854 31.25C64.1028 30.5117 63.6471 29.6914 63.0182 28.7891L64.0777 28.3926C64.6292 29.1719 65.0917 29.9808 65.4654 30.8193L64.3854 31.25ZM66.2242 30.6621C65.8687 29.7826 65.4153 28.9554 64.8639 28.1807L65.8687 27.8457C66.3928 28.4701 66.8508 29.2493 67.2428 30.1836L66.2242 30.6621ZM68.9818 30.4639H72.1742C72.3018 29.8988 72.4454 29.1673 72.6049 28.2695L74.1498 28.4609C74.0131 29.1673 73.8673 29.835 73.7123 30.4639H78.265V31.8242H73.391C72.4796 35.4655 71.4724 38.4847 70.3695 40.8818L68.8588 40.3486C70.0574 37.6917 71.0554 34.8503 71.8529 31.8242H68.9818V30.4639ZM81.0814 40.5195C80.3432 40.6152 79.5137 40.6631 78.5932 40.6631C77.1029 40.6631 75.9773 40.5355 75.2162 40.2803C74.9245 40.18 74.6762 40.0387 74.4711 39.8564C74.0701 39.4919 73.8695 39.027 73.8695 38.4619C73.8695 37.8831 74.0564 37.3727 74.4301 36.9307L75.6469 37.6484C75.5056 37.8262 75.435 38.0221 75.435 38.2363C75.435 38.6055 75.6036 38.8447 75.9408 38.9541C76.4558 39.1182 77.1895 39.2002 78.142 39.2002C79.0671 39.2002 79.99 39.1318 80.9105 38.9951L81.0814 40.5195ZM74.6693 33.7451C76.4558 33.54 78.4109 33.4307 80.5346 33.417L80.6029 34.8047C78.5202 34.8138 76.6085 34.9118 74.8676 35.0986L74.6693 33.7451ZM92.8693 40.9912C90.8094 39.387 88.1115 37.596 84.7756 35.6182C84.1604 35.2581 83.8527 34.8799 83.8527 34.4834C83.8527 34.2008 83.9872 33.9342 84.2561 33.6836C84.37 33.5742 84.6571 33.3919 85.1174 33.1367C86.799 32.2025 88.6128 31.0882 90.5588 29.7939C91.2925 29.3109 91.9602 28.8438 92.5617 28.3926L93.4572 29.5684C91.1102 31.2318 88.7017 32.7493 86.2316 34.1211C85.9901 34.2578 85.8693 34.3717 85.8693 34.4629C85.8693 34.5358 85.9354 34.6178 86.0676 34.709C86.104 34.7363 86.3159 34.8639 86.7033 35.0918C89.8296 36.9375 92.1835 38.4482 93.7648 39.624L92.8693 40.9912ZM96.5088 30.7305H101.998C101.702 29.9512 101.431 29.1764 101.185 28.4062L102.682 28.3105C102.919 29.1217 103.203 29.9284 103.536 30.7305H108.588V32.1318H104.179C104.767 33.3486 105.503 34.6178 106.387 35.9395L104.951 36.623C103.976 35.1465 103.176 33.6494 102.552 32.1318H96.5088V30.7305ZM106.448 40.8135C105.541 40.8636 104.739 40.8887 104.042 40.8887C102.146 40.8887 100.749 40.7406 99.8516 40.4443C98.2292 39.9157 97.418 38.9176 97.418 37.4502C97.418 36.5479 97.6982 35.821 98.2588 35.2695L99.5439 35.9668C99.1702 36.3359 98.9834 36.819 98.9834 37.416C98.9834 38.1771 99.3936 38.7103 100.214 39.0156C100.938 39.2845 102.151 39.4189 103.851 39.4189C104.571 39.4189 105.382 39.3848 106.284 39.3164L106.448 40.8135ZM110.539 40.0547C112.298 35.9805 114.192 32.043 116.22 28.2422L117.553 28.7754C116.637 30.457 115.554 32.5055 114.305 34.9209C115.167 33.9867 115.962 33.5195 116.691 33.5195C117.84 33.5195 118.414 34.3854 118.414 36.1172C118.414 36.2448 118.409 36.402 118.4 36.5889C118.382 36.9854 118.373 37.2975 118.373 37.5254C118.373 38.0586 118.405 38.4368 118.469 38.6602C118.61 39.1432 118.963 39.3848 119.528 39.3848C120.075 39.3848 120.519 39.1182 120.861 38.585C121.372 37.792 121.791 36.3359 122.119 34.2168L123.459 35.0029C123.199 36.6755 122.869 37.9515 122.468 38.8311C121.848 40.1982 120.845 40.8818 119.46 40.8818C118.503 40.8818 117.817 40.5856 117.402 39.9932C117.074 39.5238 116.91 38.7399 116.91 37.6416C116.91 37.5459 116.915 37.4001 116.924 37.2041C116.942 36.8213 116.951 36.5501 116.951 36.3906C116.951 35.8893 116.905 35.527 116.814 35.3037C116.709 35.0576 116.529 34.9346 116.274 34.9346C115.841 34.9346 115.354 35.1989 114.811 35.7275C114.346 36.1833 113.888 36.8509 113.437 37.7305C113.109 38.3685 112.61 39.4508 111.94 40.9775L110.539 40.0547ZM126.148 29.9785H129.566C129.662 29.1901 129.735 28.625 129.785 28.2832L131.302 28.4404L131.282 28.5498L131.234 28.9053L131.172 29.3633L131.111 29.8213L131.09 29.9785H136.744V31.3252H130.933C130.92 31.4801 130.89 31.8105 130.844 32.3164L130.81 32.7539L130.796 32.8906C131.343 32.7995 131.902 32.7539 132.471 32.7539C134.048 32.7539 135.299 33.123 136.224 33.8613C136.466 34.0573 136.687 34.3034 136.887 34.5996C137.288 35.1921 137.489 35.8734 137.489 36.6436C137.489 38.0153 136.924 39.0612 135.794 39.7812C135.055 40.2507 134.032 40.6038 132.724 40.8408L132.068 39.6377C133.267 39.4417 134.183 39.1296 134.816 38.7012C135.573 38.1862 135.951 37.4753 135.951 36.5684C135.951 35.9805 135.787 35.4632 135.459 35.0166C135.267 34.7523 135.01 34.5381 134.686 34.374C133.551 36.3519 132.063 37.9606 130.222 39.2002C129.63 39.6012 129.133 39.8678 128.732 40C128.336 40.1276 127.948 40.1914 127.57 40.1914C126.873 40.1914 126.349 39.959 125.998 39.4941C125.706 39.1113 125.56 38.5872 125.56 37.9219C125.56 36.7415 126.007 35.7002 126.9 34.7979C127.561 34.1279 128.356 33.613 129.286 33.2529L129.299 33.0684C129.354 32.2845 129.4 31.7035 129.436 31.3252H126.148V29.9785ZM129.224 34.6406C128.586 34.9824 128.076 35.4085 127.693 35.9189C127.205 36.5706 126.962 37.2201 126.962 37.8672C126.962 38.5872 127.221 38.9473 127.741 38.9473C128.197 38.9473 128.757 38.7012 129.422 38.209C129.286 37.293 129.217 36.3223 129.217 35.2969C129.217 35.1556 129.22 34.9368 129.224 34.6406ZM130.694 34.1211C130.685 34.4173 130.68 34.6862 130.68 34.9277C130.68 35.7025 130.714 36.4316 130.783 37.1152C131.886 36.0898 132.729 35.0417 133.312 33.9707C133.02 33.9342 132.729 33.916 132.437 33.916C131.831 33.916 131.25 33.9844 130.694 34.1211ZM144.854 34.2988C144.398 35.151 143.931 35.7913 143.453 36.2197C143.042 36.5889 142.666 36.7734 142.325 36.7734C141.887 36.7734 141.534 36.4772 141.265 35.8848C140.987 35.265 140.848 34.2943 140.848 32.9727C140.848 31.6419 141.003 30.1995 141.313 28.6455L142.81 28.8711C142.509 30.4115 142.359 31.7148 142.359 32.7812C142.359 34.2168 142.461 34.9346 142.666 34.9346C142.744 34.9346 142.876 34.8252 143.063 34.6064C143.355 34.2783 143.662 33.7952 143.986 33.1572L144.854 34.2988ZM143.815 39.6514C145.214 39.2594 146.269 38.6738 146.98 37.8945C147.85 36.9421 148.286 35.502 148.286 33.5742C148.286 32.1113 148.144 30.4684 147.862 28.6455L149.427 28.4951C149.728 30.3363 149.878 32.0521 149.878 33.6426C149.878 36.222 149.215 38.0791 147.889 39.2139C147.082 39.9066 145.996 40.4808 144.628 40.9365L143.815 39.6514ZM160.648 29.3906H166.021V30.6484H155.48V33.8408C155.48 35.5498 155.361 36.9876 155.124 38.1543C154.905 39.2526 154.52 40.3122 153.969 41.333L152.766 40.2939C153.559 38.6533 153.955 36.5023 153.955 33.8408V29.3906H159.11V28.0303H160.648V29.3906ZM161.051 32.624H165.446V33.8545H161.051V35.7617H165.002V41.333H163.491V40.5195H157.777V41.333H156.279V35.7617H159.568V30.9424H161.051V32.624ZM157.777 36.9785V39.2891H163.491V36.9785H157.777ZM177.508 30.9971H180.304V38.4756H174.479V30.9971H176.229C176.293 30.7646 176.391 30.359 176.523 29.7803H174.117V28.5635H180.878V29.7803H177.932C177.813 30.195 177.686 30.5664 177.549 30.8945L177.508 30.9971ZM178.916 32.0771H175.812V33.1572H178.916V32.0771ZM175.812 34.1826V35.2285H178.916V34.1826H175.812ZM175.812 36.2539V37.3818H178.916V36.2539H175.812ZM173.352 31.1543V35.3242H168.026V31.1543H173.352ZM169.387 32.3164V34.1758H172.005V32.3164H169.387ZM170.993 38.6465C171.33 37.7168 171.62 36.6937 171.861 35.5771L173.222 35.9258C172.994 36.7507 172.725 37.5436 172.415 38.3047L173.112 38.1338C173.39 38.0654 173.641 38.0016 173.864 37.9424L173.933 39.1182C172.192 39.7061 170.191 40.2529 167.931 40.7588L167.479 39.3984C168.56 39.1888 169.476 38.9951 170.228 38.8174L170.993 38.6465ZM167.575 28.5635H173.666V29.7939H167.575V28.5635ZM168.895 38.7695C168.703 37.8763 168.441 36.999 168.108 36.1377L169.4 35.7002C169.697 36.4202 169.961 37.293 170.193 38.3184L168.895 38.7695ZM179.914 41.374C179.253 40.5492 178.538 39.8587 177.768 39.3027L178.807 38.5166C179.609 39.0452 180.345 39.6696 181.015 40.3896L179.914 41.374ZM173.064 40.4922C174.008 40.0228 174.84 39.3734 175.56 38.5439L176.694 39.2002C175.869 40.1846 174.976 40.9411 174.015 41.4697L173.064 40.4922ZM183.492 40.7451C183.319 39.1956 183.232 37.6553 183.232 36.124C183.232 33.499 183.426 31.0062 183.813 28.6455L185.317 28.8027C184.948 30.8444 184.763 33.1481 184.763 35.7139C184.763 37.4365 184.859 39.0475 185.051 40.5469L183.492 40.7451ZM187.594 29.917H194.163V31.373H187.594V29.917ZM194.628 39.9043C193.716 40.0456 192.634 40.1162 191.381 40.1162C188.232 40.1162 186.657 39.1911 186.657 37.3408C186.657 36.6071 186.853 35.9668 187.245 35.4199L188.537 35.9941C188.291 36.3405 188.168 36.7301 188.168 37.1631C188.168 37.6963 188.434 38.0632 188.968 38.2637C189.56 38.4915 190.369 38.6055 191.394 38.6055C192.502 38.6055 193.527 38.5326 194.471 38.3867L194.628 39.9043ZM208.097 33.6152V35.0986H209.82V36.3975H208.097V40.0273C208.097 40.4329 208.018 40.736 207.858 40.9365C207.648 41.2008 207.243 41.333 206.641 41.333C206.003 41.333 205.406 41.2943 204.85 41.2168L204.536 39.8291C205.224 39.9339 205.775 39.9863 206.19 39.9863C206.386 39.9863 206.511 39.9453 206.566 39.8633C206.607 39.7995 206.628 39.6992 206.628 39.5625V36.3975H201.193V35.0986H206.628V33.6152H201.166L201.282 34.832C200.776 35.0827 200.361 35.2741 200.038 35.4062V40.0273C200.038 40.4876 199.933 40.8135 199.723 41.0049C199.536 41.1826 199.213 41.2715 198.753 41.2715C198.247 41.2715 197.768 41.2259 197.317 41.1348L197.05 39.6787C197.543 39.7607 197.932 39.8018 198.219 39.8018C198.365 39.8018 198.463 39.7812 198.513 39.7402C198.568 39.6901 198.595 39.5944 198.595 39.4531V35.9805C198.076 36.1673 197.556 36.3382 197.037 36.4932L196.661 35.1123C197.449 34.8936 198.094 34.6976 198.595 34.5244V31.9131H196.873V30.5527H198.595V28.0303H200.038V30.5527H201.309V31.9131H200.038V33.998C200.343 33.8796 200.669 33.7406 201.015 33.5811V32.3574H204.597V30.7852H201.617V29.541H204.597V28.0303H206.081V29.541H209.3V30.7852H206.081V32.3574H210.182V33.6152H208.097ZM203.517 39.6924C203.116 38.8447 202.608 38.0221 201.993 37.2246L203.237 36.5137C203.889 37.2839 204.431 38.0814 204.864 38.9062L203.517 39.6924ZM212.085 32.6377L212.571 32.5625C215.565 32.1068 217.515 31.8789 218.422 31.8789C219.712 31.8789 220.699 32.2093 221.382 32.8701C222.061 33.5355 222.401 34.4697 222.401 35.6729C222.401 36.5251 222.152 37.2975 221.656 37.9902C221.045 38.8424 219.999 39.4691 218.518 39.8701C217.625 40.1117 216.545 40.2848 215.278 40.3896L214.813 39.0225C216.95 38.8493 218.438 38.5462 219.277 38.1133C219.764 37.8626 220.156 37.5299 220.453 37.1152C220.781 36.6549 220.945 36.1331 220.945 35.5498C220.945 34.7523 220.737 34.1598 220.323 33.7725C220.113 33.5719 219.892 33.4307 219.66 33.3486C219.372 33.2484 218.976 33.1982 218.47 33.1982C217.472 33.1982 215.446 33.4671 212.393 34.0049L212.085 32.6377ZM225.295 29.6914C229.488 29.6276 233.45 29.5205 237.183 29.3701L237.265 30.7305C235.62 30.8125 234.339 31.0632 233.423 31.4824C232.548 31.8835 231.846 32.4395 231.318 33.1504C230.716 33.957 230.415 34.8548 230.415 35.8438C230.415 36.8281 230.757 37.5664 231.441 38.0586C232.224 38.6191 233.428 39.0042 235.05 39.2139L234.729 40.752C232.614 40.4694 231.126 39.9225 230.265 39.1113C229.34 38.2454 228.877 37.1699 228.877 35.8848C228.877 34.7181 229.296 33.6289 230.135 32.6172C230.746 31.8743 231.582 31.2773 232.644 30.8262C230.762 30.89 228.335 30.9971 225.363 31.1475L225.295 29.6914ZM243.078 33.9844V41.333H241.567V35.5703C241.089 36.0215 240.59 36.4499 240.07 36.8555L239.271 35.5361C240.847 34.4424 242.285 32.9157 243.584 30.9561L244.76 31.7285C244.245 32.5352 243.684 33.2871 243.078 33.9844ZM250.372 33.9092V39.959C250.372 40.4466 250.233 40.7884 249.955 40.9844C249.727 41.1393 249.356 41.2168 248.841 41.2168C247.998 41.2168 247.187 41.1895 246.407 41.1348L246.141 39.665C246.947 39.7425 247.66 39.7812 248.28 39.7812C248.54 39.7812 248.697 39.7311 248.752 39.6309C248.798 39.5534 248.82 39.444 248.82 39.3027V33.9092H244.562V32.5078H252.765V33.9092H250.372ZM239.366 31.3184C240.802 30.5163 242.021 29.4385 243.023 28.085L244.227 28.8848C242.987 30.4479 241.638 31.6647 240.18 32.5352L239.366 31.3184ZM245.484 28.7891H251.828V30.1631H245.484V28.7891ZM263.828 40.9912C261.768 39.387 259.07 37.596 255.734 35.6182C255.119 35.2581 254.811 34.8799 254.811 34.4834C254.811 34.2008 254.946 33.9342 255.215 33.6836C255.329 33.5742 255.616 33.3919 256.076 33.1367C257.758 32.2025 259.571 31.0882 261.517 29.7939C262.251 29.3109 262.919 28.8438 263.52 28.3926L264.416 29.5684C262.069 31.2318 259.66 32.7493 257.19 34.1211C256.949 34.2578 256.828 34.3717 256.828 34.4629C256.828 34.5358 256.894 34.6178 257.026 34.709C257.063 34.7363 257.275 34.8639 257.662 35.0918C260.788 36.9375 263.142 38.4482 264.723 39.624L263.828 40.9912ZM274.331 39.2549C277.006 38.5804 278.343 37.0469 278.343 34.6543C278.343 33.6107 278.074 32.7129 277.537 31.9609C276.935 31.1133 276.019 30.5687 274.789 30.3271C274.52 32.4417 274.153 34.1735 273.688 35.5225C273.369 36.4658 272.973 37.3568 272.499 38.1953C271.815 39.3893 271.038 39.9863 270.168 39.9863C269.52 39.9863 268.944 39.6947 268.438 39.1113C268.115 38.7422 267.852 38.2887 267.652 37.751C267.388 37.0537 267.255 36.304 267.255 35.502C267.255 34.2031 267.613 33.0068 268.329 31.9131C269.053 30.7965 269.994 29.9854 271.152 29.4795C271.995 29.1104 272.92 28.9258 273.927 28.9258C275.5 28.9258 276.835 29.3473 277.933 30.1904C279.282 31.2249 279.957 32.6901 279.957 34.5859C279.957 37.7624 278.35 39.7767 275.137 40.6289L274.331 39.2549ZM273.305 30.2725C272.499 30.3636 271.824 30.5801 271.282 30.9219C270.935 31.1452 270.591 31.4414 270.25 31.8105C269.302 32.8587 268.828 34.0732 268.828 35.4541C268.828 36.4613 269.028 37.2497 269.429 37.8193C269.675 38.1702 269.919 38.3457 270.161 38.3457C270.489 38.3457 270.858 37.9834 271.268 37.2588C272.271 35.4951 272.95 33.1663 273.305 30.2725ZM281.983 31.0518H285.004C285.141 30.3499 285.294 29.4772 285.462 28.4336L285.496 28.2354L286.994 28.4609C286.839 29.4271 286.679 30.2907 286.515 31.0518H287.342C288.436 31.0518 289.22 31.2979 289.694 31.79C290.118 32.2321 290.329 32.9202 290.329 33.8545C290.329 35.4268 290.163 36.8965 289.83 38.2637C289.639 39.0384 289.407 39.6104 289.133 39.9795C288.787 40.4398 288.306 40.6699 287.691 40.6699C286.953 40.6699 286.146 40.4329 285.271 39.959L285.442 38.5166C286.308 38.9313 286.98 39.1387 287.458 39.1387C287.709 39.1387 287.903 39.0042 288.039 38.7354C288.185 38.4437 288.324 38.0221 288.456 37.4707C288.716 36.3542 288.846 35.1807 288.846 33.9502C288.846 33.3031 288.716 32.8838 288.456 32.6924C288.233 32.5329 287.834 32.4531 287.26 32.4531H286.207C285.483 35.6797 284.444 38.4323 283.09 40.7109L281.716 39.959C283.115 37.612 284.113 35.11 284.71 32.4531H281.983V31.0518ZM293.337 37.7988C292.822 35.903 292.009 34.0413 290.897 32.2139L292.23 31.6123C293.378 33.4443 294.237 35.2878 294.807 37.1426L293.337 37.7988ZM292.326 31.25C292.043 30.5117 291.587 29.6914 290.958 28.7891L292.018 28.3926C292.569 29.1719 293.032 29.9808 293.406 30.8193L292.326 31.25ZM294.164 30.6621C293.809 29.7826 293.356 28.9554 292.804 28.1807L293.809 27.8457C294.333 28.4701 294.791 29.2493 295.183 30.1836L294.164 30.6621ZM308.112 40.335C306.764 40.4762 305.369 40.5469 303.929 40.5469C301.805 40.5469 300.317 40.4124 299.465 40.1436C298.845 39.9476 298.355 39.6559 297.995 39.2686C297.581 38.8174 297.373 38.2682 297.373 37.6211C297.373 36.7689 297.665 36.0033 298.248 35.3242C298.745 34.7454 299.545 34.1712 300.648 33.6016C300.019 32.1888 299.449 30.5801 298.939 28.7754L300.463 28.3789C300.937 30.1107 301.438 31.6419 301.967 32.9727C303.722 32.166 305.583 31.4938 307.552 30.9561L308.01 32.3438C305.85 32.8906 303.703 33.6676 301.57 34.6748C300.91 34.9893 300.44 35.2467 300.162 35.4473C299.347 36.0443 298.939 36.7074 298.939 37.4365C298.939 38.07 299.317 38.512 300.073 38.7627C300.702 38.9678 301.828 39.0703 303.45 39.0703C304.95 39.0703 306.451 38.9837 307.955 38.8105L308.112 40.335ZM25.5654 61.7451C25.3923 60.1956 25.3057 58.6553 25.3057 57.124C25.3057 54.499 25.4993 52.0062 25.8867 49.6455L27.3906 49.8027C27.0215 51.8444 26.8369 54.1481 26.8369 56.7139C26.8369 58.4365 26.9326 60.0475 27.124 61.5469L25.5654 61.7451ZM29.667 50.917H36.2363V52.373H29.667V50.917ZM36.7012 60.9043C35.7897 61.0456 34.7074 61.1162 33.4541 61.1162C30.305 61.1162 28.7305 60.1911 28.7305 58.3408C28.7305 57.6071 28.9264 56.9668 29.3184 56.4199L30.6104 56.9941C30.3643 57.3405 30.2412 57.7301 30.2412 58.1631C30.2412 58.6963 30.5078 59.0632 31.041 59.2637C31.6335 59.4915 32.4424 59.6055 33.4678 59.6055C34.5752 59.6055 35.6006 59.5326 36.5439 59.3867L36.7012 60.9043ZM39.4861 52.0518H42.5076C42.6443 51.3499 42.797 50.4772 42.9656 49.4336L42.9998 49.2354L44.4969 49.4609C44.3419 50.4271 44.1824 51.2907 44.0184 52.0518H45.0984C46.1876 52.0518 46.9692 52.2979 47.4432 52.79C47.867 53.2321 48.0789 53.9202 48.0789 54.8545C48.0789 56.4222 47.9126 57.8919 47.5799 59.2637C47.3885 60.0384 47.1561 60.6104 46.8826 60.9795C46.5363 61.4398 46.0555 61.6699 45.4402 61.6699C44.7065 61.6699 43.9021 61.4329 43.0271 60.959L43.198 59.5166C44.0639 59.9313 44.7339 60.1387 45.2078 60.1387C45.463 60.1387 45.6567 60.0042 45.7889 59.7354C45.9347 59.4391 46.0737 59.0176 46.2059 58.4707C46.4656 57.3587 46.5955 56.1852 46.5955 54.9502C46.5955 54.3031 46.4656 53.8838 46.2059 53.6924C45.9826 53.5329 45.5861 53.4531 45.0164 53.4531H43.7107C42.9861 56.6797 41.9471 59.4323 40.5936 61.7109L39.2195 60.959C40.6186 58.612 41.6167 56.11 42.2137 53.4531H39.4861V52.0518ZM50.6971 57.541C50.0089 55.1484 49.0861 53.043 47.9285 51.2246L49.241 50.5547C50.5444 52.6419 51.5151 54.7611 52.1531 56.9121L50.6971 57.541ZM63.3326 61.9912C61.2727 60.387 58.5748 58.596 55.2389 56.6182C54.6236 56.2581 54.316 55.8799 54.316 55.4834C54.316 55.2008 54.4505 54.9342 54.7193 54.6836C54.8333 54.5742 55.1204 54.3919 55.5807 54.1367C57.2623 53.2025 59.0761 52.0882 61.0221 50.7939C61.7558 50.3109 62.4234 49.8438 63.025 49.3926L63.9205 50.5684C61.5735 52.2318 59.165 53.7493 56.6949 55.1211C56.4534 55.2578 56.3326 55.3717 56.3326 55.4629C56.3326 55.5358 56.3987 55.6178 56.5309 55.709C56.5673 55.7363 56.7792 55.8639 57.1666 56.0918C60.2929 57.9375 62.6467 59.4482 64.2281 60.624L63.3326 61.9912ZM74.0951 53.9453C74.4096 55.0117 75.0066 56.1465 75.8861 57.3496C76.9571 58.8171 78.2742 59.9792 79.8373 60.8359L78.8598 62.2441C77.2055 61.2689 75.8246 59.9769 74.7172 58.3682C74.1202 57.4932 73.6417 56.6022 73.2816 55.6953C72.9216 56.9167 72.3633 58.0264 71.6068 59.0244C70.4949 60.501 69.1208 61.5902 67.4848 62.292L66.5209 61.041C68.2344 60.3255 69.6176 59.2227 70.6703 57.7324C71.5544 56.4746 72.0785 55.2122 72.2426 53.9453H66.7875V52.4619H72.3041V49.167H73.8832V52.4619H79.516V53.9453H74.0951ZM84.8166 58.2725C83.9689 58.8467 83.1441 59.2819 82.342 59.5781L81.4055 58.5254C83.5884 57.7871 85.1698 56.7686 86.1496 55.4697L87.5373 55.8115C87.3413 56.0667 87.1454 56.2946 86.9494 56.4951H91.6662L92.5344 57.2266C91.8417 58.0605 90.8596 58.915 89.5881 59.79C91.0191 60.2731 92.6551 60.64 94.4963 60.8906L93.7238 62.3193C91.5546 61.9046 89.6975 61.3372 88.1525 60.6172C86.4208 61.4648 84.4178 62.0505 82.1437 62.374L81.4602 61.0752C83.2603 60.9339 85.0376 60.5283 86.7922 59.8584L86.717 59.8105C85.9969 59.332 85.3635 58.8193 84.8166 58.2725ZM85.9377 57.6299C86.5438 58.1904 87.314 58.71 88.2482 59.1885C89.2235 58.6279 89.9094 58.1084 90.3059 57.6299H85.9377ZM88.5422 50.2881H94.216V51.4775H90.2512V54.54C90.2512 54.9867 90.1304 55.292 89.8889 55.4561C89.6883 55.5928 89.3534 55.6611 88.884 55.6611C88.4419 55.6611 87.9634 55.6247 87.4484 55.5518L87.2707 54.3623C87.7674 54.4443 88.1844 54.4854 88.5217 54.4854C88.6538 54.4854 88.7313 54.4557 88.7541 54.3965C88.7723 54.3555 88.7814 54.2871 88.7814 54.1914V51.4775H87.0178C87.0178 52.471 86.9061 53.2503 86.6828 53.8154C86.2909 54.8135 85.5435 55.5267 84.4406 55.9551L83.4084 55.0049C84.2606 54.6722 84.8371 54.2438 85.1379 53.7197C85.3111 53.4189 85.4318 53.0589 85.5002 52.6396C85.5412 52.3936 85.5708 52.0062 85.5891 51.4775H81.4465V50.2881H87.0451V49.0303H88.5422V50.2881ZM93.1633 55.374C92.4888 54.3577 91.7095 53.4098 90.8254 52.5303L91.9465 51.7715C92.8124 52.5189 93.6008 53.4121 94.3117 54.4512L93.1633 55.374ZM81.1389 54.3896C82.0731 53.6742 82.7635 52.8447 83.2102 51.9014L84.4816 52.373C83.8482 53.681 83.037 54.695 82.048 55.415L81.1389 54.3896ZM96.5225 59.0518H98.8193V61.3486H96.5225V59.0518ZM101.844 59.0518H104.14V61.3486H101.844V59.0518ZM107.165 59.0518H109.462V61.3486H107.165V59.0518Z" fill="black"/>
<path d="M31.0957 86.6436V89.0088C31.0957 89.3324 31.2279 89.5283 31.4922 89.5967C31.7201 89.6559 32.292 89.6855 33.208 89.6855C34.6663 89.6855 35.4753 89.5693 35.6348 89.3369C35.7441 89.1774 35.8171 88.5439 35.8535 87.4365L37.3643 87.8877C37.3141 88.8356 37.2458 89.4805 37.1592 89.8223C37.027 90.3327 36.7399 90.6676 36.2979 90.8271C35.8193 91.0003 34.737 91.0869 33.0508 91.0869C31.5514 91.0869 30.6468 91.0345 30.3369 90.9297C29.8083 90.7474 29.5439 90.335 29.5439 89.6924V86.7598L24.499 87.1426L24.376 85.8438L29.5439 85.4404V83.8135C28.1722 84.0368 27.0101 84.1986 26.0576 84.2988L25.5244 83.0684C28.8786 82.7448 31.7952 82.1615 34.2744 81.3184L35.3955 82.3711C33.9007 82.8587 32.4674 83.2393 31.0957 83.5127V85.3174L37.6035 84.8047L37.6992 86.1377L31.0957 86.6436ZM31.7656 79.5273H37.2549V82.4531H35.7168V80.7852H26.249V82.4531H24.7246V79.5273H30.2275V78.0303H31.7656V79.5273ZM41.3455 81.3184V79.835H39.117V78.5635H46.1443V79.835H44.0115V81.3184H45.8914V91.1895H44.6336V90.5332H40.8055V91.333H39.5066V81.3184H41.3455ZM42.3367 81.3184H43.0066V79.835H42.3367V81.3184ZM41.448 82.4941H40.8055V85.543C41.1883 84.8411 41.4025 83.8249 41.448 82.4941ZM42.323 82.4941C42.3185 84.153 42.0337 85.4883 41.4686 86.5L40.8055 85.8984V87.0605H44.6336V85.7275H43.8338C43.5148 85.7275 43.296 85.666 43.1775 85.543C43.0636 85.4245 43.0066 85.2217 43.0066 84.9346V82.4941H42.323ZM43.8885 82.4941V84.415C43.8885 84.5426 43.9067 84.6201 43.9432 84.6475C43.9751 84.6702 44.0503 84.6816 44.1687 84.6816H44.6336V82.4941H43.8885ZM40.8055 88.1543V89.3164H44.6336V88.1543H40.8055ZM48.2977 84.6406V89.1865C48.2977 89.4326 48.3706 89.5785 48.5164 89.624C48.7306 89.6924 49.0792 89.7266 49.5623 89.7266C49.9952 89.7266 50.3051 89.6833 50.492 89.5967C50.6424 89.5283 50.7404 89.3597 50.7859 89.0908C50.8315 88.8037 50.8702 88.2568 50.9021 87.4502L50.9158 87.1699L52.3855 87.5527C52.3491 88.7285 52.283 89.5465 52.1873 90.0068C52.0551 90.6312 51.6746 90.9867 51.0457 91.0732C50.6264 91.1279 49.9793 91.1553 49.1043 91.1553C48.1837 91.1553 47.5753 91.0618 47.2791 90.875C46.9965 90.6973 46.8553 90.3167 46.8553 89.7334V83.3076H50.3689V79.9648H46.6912V78.6182H51.7977V84.6406H48.2977ZM62.8473 88.8652C64.2053 89.166 65.5953 89.6286 67.0172 90.2529L65.9986 91.415C64.3489 90.6813 62.8268 90.1117 61.4322 89.7061L62.191 88.8652H58.2672L59.149 89.6787C57.7499 90.4443 56.2711 91.0459 54.7125 91.4834L53.7623 90.1641C55.1523 89.8997 56.5309 89.4668 57.898 88.8652H55.3277V82.3574H65.4518V88.8652H62.8473ZM56.8521 83.3623V84.2031H63.9273V83.3623H56.8521ZM56.8521 85.1396V85.9668H63.9273V85.1396H56.8521ZM56.8521 86.917V87.7988H63.9273V86.917H56.8521ZM66.4156 78.5088V81.7559H54.3639V78.5088H66.4156ZM55.8336 79.6025V80.7168H57.9596V79.6025H55.8336ZM64.9459 80.7168V79.6025H62.8062V80.7168H64.9459ZM59.3062 79.6025V80.7168H61.4322V79.6025H59.3062ZM75.5512 79.3906H80.8422L81.5326 80.0947C81.3458 81.4801 81.1065 82.665 80.8148 83.6494C80.4958 84.7477 80.0447 85.8164 79.4613 86.8555C80.1951 87.9811 81.0245 88.8994 81.9496 89.6104L81.0541 91.1621C80.1107 90.3053 79.2973 89.321 78.6137 88.209C78.0622 88.9837 77.5655 89.5967 77.1234 90.0479C76.6677 90.5173 76.171 90.9229 75.6332 91.2646L74.6693 89.9453C75.8542 89.2708 76.8979 88.2158 77.8002 86.7803C77.782 86.7438 77.7637 86.7096 77.7455 86.6777C77.2169 85.6204 76.7908 84.3581 76.4672 82.8906C76.2849 82.0658 76.1618 81.3617 76.098 80.7783H75.2982V79.9238H74.642V91.333H73.2406V88.5508L72.7963 88.6602C71.4245 89.0156 70.112 89.305 68.8588 89.5283L68.4076 88.0723C69.0274 87.9902 69.4558 87.931 69.6928 87.8945V79.9238H68.6879V78.5908H75.5512V79.3906ZM73.2406 79.9238H71.0531V81.5576H73.2406V79.9238ZM73.2406 82.7197H71.0531V84.374H73.2406V82.7197ZM73.2406 85.5088H71.0531V87.6826C71.2901 87.6416 71.4678 87.612 71.5863 87.5938C71.9509 87.5345 72.5023 87.4365 73.2406 87.2998V85.5088ZM77.4242 80.7783C77.6111 82.501 78.003 84.014 78.6 85.3174C79.238 83.9639 79.6915 82.4508 79.9604 80.7783H77.4242ZM90.4904 89.2549C93.1656 88.5804 94.5031 87.0469 94.5031 84.6543C94.5031 83.6107 94.2342 82.7129 93.6965 81.9609C93.0949 81.1133 92.1789 80.5687 90.9484 80.3271C90.6796 82.4417 90.3127 84.1735 89.8479 85.5225C89.5288 86.4658 89.1324 87.3568 88.6584 88.1953C87.9748 89.3893 87.1978 89.9863 86.3273 89.9863C85.6802 89.9863 85.1037 89.6947 84.5979 89.1113C84.2743 88.7422 84.0122 88.2887 83.8117 87.751C83.5474 87.0537 83.4152 86.304 83.4152 85.502C83.4152 84.2031 83.773 83.0068 84.4885 81.9131C85.2131 80.7965 86.1542 79.9854 87.3117 79.4795C88.1548 79.1104 89.0799 78.9258 90.0871 78.9258C91.6594 78.9258 92.9947 79.3473 94.093 80.1904C95.4419 81.2249 96.1164 82.6901 96.1164 84.5859C96.1164 87.7624 94.51 89.7767 91.2971 90.6289L90.4904 89.2549ZM89.465 80.2725C88.6584 80.3636 87.9839 80.5801 87.4416 80.9219C87.0952 81.1452 86.7512 81.4414 86.4094 81.8105C85.4615 82.8587 84.9875 84.0732 84.9875 85.4541C84.9875 86.4613 85.188 87.2497 85.5891 87.8193C85.8352 88.1702 86.079 88.3457 86.3205 88.3457C86.6486 88.3457 87.0178 87.9834 87.4279 87.2588C88.4305 85.4951 89.1096 83.1663 89.465 80.2725ZM105.594 80.9424V79.8623H101.772V78.6318H110.967V79.8623H106.934V80.9424H110.461V86.459H106.906C106.856 87.293 106.71 88.0062 106.469 88.5986C108.014 89.2822 109.652 89.7812 111.384 90.0957L110.673 91.415C108.832 90.9639 107.193 90.3896 105.758 89.6924C104.988 90.5081 103.691 91.0869 101.868 91.4287L101.144 90.1982C102.743 90.0205 103.873 89.6309 104.534 89.0293C103.782 88.569 103.099 88.0518 102.483 87.4775L103.434 86.6982C103.962 87.1813 104.559 87.6074 105.225 87.9766C105.421 87.5299 105.541 87.0241 105.587 86.459H102.148V80.9424H105.594ZM105.594 82.0635H103.522V83.1572H105.594V82.0635ZM106.934 82.0635V83.1572H109.073V82.0635H106.934ZM105.594 84.21H103.522V85.3242H105.594V84.21ZM106.934 84.21V85.3242H109.073V84.21H106.934ZM100.761 81.4209V91.333H99.332V84.3398C98.9993 84.8913 98.6302 85.4404 98.2246 85.9873L97.582 84.4424C98.2246 83.54 98.776 82.5033 99.2363 81.332C99.5508 80.5436 99.9336 79.3883 100.385 77.8662L101.827 78.2285C101.485 79.4043 101.13 80.4684 100.761 81.4209ZM115.488 85.6318C115.479 85.6546 115.465 85.6842 115.447 85.7207C114.937 86.9238 114.26 88.029 113.417 89.0361L112.508 87.6348C113.775 86.3587 114.695 84.9209 115.269 83.3213H112.726V82.0225H115.488V80.2178C114.905 80.3363 114.246 80.4388 113.512 80.5254L112.884 79.3223C114.902 79.0716 116.732 78.6615 118.373 78.0918L119.186 79.2539C118.553 79.4727 117.81 79.6891 116.958 79.9033V82.0225H119.549V83.3213H116.958V84.3467C117.837 84.848 118.706 85.5111 119.562 86.3359L118.708 87.6211C118.238 87.0788 117.655 86.4886 116.958 85.8506V91.333H115.488V85.6318ZM120.348 79.5957H121.777V87.6895H120.348V79.5957ZM123.554 78.3105H125.011V89.6787C125.011 90.1709 124.913 90.5286 124.717 90.752C124.489 91.0163 124.042 91.1484 123.377 91.1484C122.57 91.1484 121.798 91.1074 121.059 91.0254L120.786 89.4805C121.538 89.6126 122.324 89.6787 123.144 89.6787C123.345 89.6787 123.468 89.6081 123.513 89.4668C123.541 89.3893 123.554 89.2822 123.554 89.1455V78.3105ZM127.727 80.7305H133.216C132.92 79.9512 132.649 79.1764 132.403 78.4062L133.9 78.3105C134.137 79.1217 134.422 79.9284 134.754 80.7305H139.806V82.1318H135.397C135.985 83.3486 136.721 84.6178 137.605 85.9395L136.17 86.623C135.194 85.1465 134.394 83.6494 133.77 82.1318H127.727V80.7305ZM137.667 90.8135C136.76 90.8636 135.958 90.8887 135.26 90.8887C133.365 90.8887 131.968 90.7406 131.07 90.4443C129.448 89.9157 128.636 88.9176 128.636 87.4502C128.636 86.5479 128.917 85.821 129.477 85.2695L130.762 85.9668C130.389 86.3359 130.202 86.819 130.202 87.416C130.202 88.1771 130.612 88.7103 131.432 89.0156C132.157 89.2845 133.369 89.4189 135.069 89.4189C135.789 89.4189 136.6 89.3848 137.503 89.3164L137.667 90.8135ZM143.138 79.9512H146.823C147.228 79.304 147.536 78.7822 147.746 78.3857L149.27 78.6045C149.133 78.8506 148.892 79.2516 148.545 79.8076L148.456 79.9512H153.276V81.2979H147.547C146.95 82.1182 146.381 82.8291 145.838 83.4307C146.7 82.9157 147.486 82.6582 148.197 82.6582C149.3 82.6582 150.022 83.2119 150.364 84.3193C151.53 83.932 152.72 83.5492 153.932 83.1709L154.52 84.4971L154.281 84.5654L153.604 84.7432C152.328 85.0895 151.307 85.3857 150.541 85.6318C150.596 86.2243 150.635 86.9899 150.658 87.9287L149.161 88.0107C149.156 87.4684 149.147 86.8805 149.133 86.2471V86.1104C147.037 86.8258 145.989 87.5459 145.989 88.2705C145.989 88.6442 146.258 88.8994 146.795 89.0361C147.315 89.1683 148.245 89.2344 149.584 89.2344C150.819 89.2344 152.116 89.1637 153.474 89.0225L153.638 90.4785C152.321 90.5788 150.956 90.6289 149.543 90.6289C147.802 90.6289 146.565 90.4967 145.831 90.2324C144.925 89.9043 144.471 89.3141 144.471 88.4619C144.471 87.7419 144.792 87.1061 145.435 86.5547C146.1 85.985 147.272 85.3971 148.949 84.791C148.857 84.4401 148.737 84.194 148.586 84.0527C148.418 83.8932 148.194 83.8135 147.916 83.8135C147.465 83.8135 146.898 83.9844 146.214 84.3262C145.371 84.7454 144.467 85.3766 143.5 86.2197L142.591 85.1807C144.009 83.8636 145.118 82.5693 145.92 81.2979H143.138V79.9512ZM159.868 80.1289V82.9043H161.222V84.3057H159.868V87.0537C160.238 86.8988 160.636 86.7142 161.065 86.5L161.236 87.8604C159.964 88.5576 158.503 89.2002 156.854 89.7881L156.437 88.25C157.189 88.0312 157.856 87.8148 158.44 87.6006V84.3057H156.84V82.9043H158.44V80.1289H156.676V78.7139H161.379V80.1289H159.868ZM169.37 78.5361V85.5498H166.267V86.8486H169.493V88.0928H166.267V89.5352H169.986V90.8682H160.791V89.5352H164.865V88.0928H161.584V86.8486H164.865V85.5498H161.81V78.5361H169.37ZM163.129 79.7666V81.4072H164.865V79.7666H163.129ZM163.129 82.624V84.3193H164.865V82.624H163.129ZM168.024 84.3193V82.624H166.267V84.3193H168.024ZM168.024 81.4072V79.7666H166.267V81.4072H168.024ZM176.161 81.2363H177.815V90.0957C177.815 90.4648 177.745 90.7383 177.604 90.916C177.439 91.1257 177.1 91.2305 176.585 91.2305C176.052 91.2305 175.507 91.194 174.951 91.1211L174.712 89.8633C175.268 89.9362 175.758 89.9727 176.182 89.9727C176.378 89.9727 176.496 89.9408 176.537 89.877C176.569 89.8268 176.585 89.7334 176.585 89.5967V87.4639H173.557C173.461 89.0544 173.046 90.3577 172.312 91.374L171.232 90.4512C171.67 89.7539 171.964 89.0999 172.114 88.4893C172.256 87.9287 172.326 87.2656 172.326 86.5V82.3027C172.221 82.4167 172.057 82.5785 171.834 82.7881L171.109 81.5986C172.212 80.6051 173.005 79.4248 173.488 78.0576L174.452 78.6045H176.681L177.255 79.2061C176.936 79.917 176.571 80.5938 176.161 81.2363ZM175.58 82.3711V83.7998H176.585V82.3711H175.58ZM174.527 82.3711H173.557V83.7998H174.527V82.3711ZM174.794 81.2363C175.145 80.6849 175.421 80.1995 175.621 79.7803H174.131C173.839 80.3135 173.532 80.7988 173.208 81.2363H174.794ZM173.557 86.3428H174.527V84.8594H173.557V86.3428ZM175.58 86.3428H176.585V84.8594H175.58V86.3428ZM181.315 79.8486C181.256 80.4092 181.149 80.8945 180.994 81.3047C180.639 82.2298 179.948 82.9954 178.923 83.6016L178.055 82.6924C178.688 82.346 179.148 81.9382 179.436 81.4688C179.691 81.0586 179.866 80.5186 179.962 79.8486H178.178V78.6592H184.228C184.218 80.7054 184.127 81.9997 183.954 82.542C183.849 82.8701 183.674 83.0934 183.428 83.2119C183.255 83.2939 183.002 83.335 182.669 83.335C182.25 83.335 181.771 83.3076 181.233 83.2529L181.021 82.0498C181.495 82.141 181.892 82.1865 182.211 82.1865C182.421 82.1865 182.55 82.1432 182.601 82.0566C182.705 81.8607 182.783 81.1247 182.833 79.8486H181.315ZM180.864 84.9072V83.7725H182.252V84.9072H184.214V86.0967H182.252V87.4434H184.645V88.7012H182.252V91.3193H180.864V88.7012H178.191V87.4434H180.864V86.0967H179.695C179.686 86.1195 179.673 86.1582 179.654 86.2129C179.531 86.5684 179.356 86.9466 179.128 87.3477L178.048 86.6162C178.481 85.7959 178.779 84.8617 178.943 83.8135L180.14 83.9844C180.094 84.3535 180.049 84.6611 180.003 84.9072H180.864ZM187.395 78.6045H189.009V86.7529C189.009 88.471 189.911 89.3301 191.716 89.3301C192.905 89.3301 193.88 88.7809 194.641 87.6826C195.134 86.9762 195.576 85.8825 195.968 84.4014L197.355 85.2422C196.89 86.8874 196.332 88.1178 195.68 88.9336C194.655 90.2051 193.322 90.8408 191.681 90.8408C189.968 90.8408 188.76 90.3122 188.058 89.2549C187.616 88.5941 187.395 87.7419 187.395 86.6982V78.6045ZM199.381 79.6914C203.574 79.6276 207.537 79.5205 211.269 79.3701L211.351 80.7305C209.706 80.8125 208.425 81.0632 207.509 81.4824C206.634 81.8835 205.933 82.4395 205.404 83.1504C204.802 83.957 204.502 84.8548 204.502 85.8438C204.502 86.8281 204.843 87.5664 205.527 88.0586C206.311 88.6191 207.514 89.0042 209.136 89.2139L208.815 90.752C206.7 90.4694 205.212 89.9225 204.351 89.1113C203.426 88.2454 202.963 87.1699 202.963 85.8848C202.963 84.7181 203.383 83.6289 204.221 82.6172C204.832 81.8743 205.668 81.2773 206.73 80.8262C204.848 80.89 202.421 80.9971 199.45 81.1475L199.381 79.6914ZM220.2 86.958C219.357 89.4372 218.411 90.6768 217.363 90.6768C216.615 90.6768 215.975 90.1527 215.442 89.1045C215.032 88.2933 214.749 87.4001 214.594 86.4248C214.407 85.2399 214.314 83.7178 214.314 81.8584C214.314 81.0518 214.343 80.1859 214.403 79.2607L216.009 79.3838C215.95 80.3089 215.92 81.1885 215.92 82.0225C215.92 84.9482 216.194 86.9876 216.741 88.1406C216.964 88.6146 217.174 88.8516 217.37 88.8516C217.497 88.8516 217.657 88.7057 217.848 88.4141C218.24 87.8216 218.618 87.0059 218.983 85.9668L220.2 86.958ZM224.527 88.585C224.294 86.6618 224.01 85.1077 223.672 83.9229C223.262 82.4873 222.786 81.1725 222.244 79.9785L223.7 79.623C224.452 81.1133 225.01 82.5488 225.374 83.9297C225.675 85.0508 225.924 86.4772 226.12 88.209L224.527 88.585ZM230.155 78.7891H237.825L238.557 79.9238C236.187 81.373 234.134 82.6901 232.398 83.875C233.519 83.4056 234.644 83.1709 235.775 83.1709C236.791 83.1709 237.639 83.3327 238.318 83.6562C238.946 83.957 239.436 84.3672 239.787 84.8867C240.152 85.4382 240.334 86.0716 240.334 86.7871C240.334 87.7897 239.992 88.6283 239.309 89.3027C238.839 89.7721 238.238 90.1276 237.504 90.3691C236.543 90.6836 235.49 90.8408 234.346 90.8408C233.029 90.8408 232.058 90.597 231.434 90.1094C230.946 89.7266 230.702 89.2093 230.702 88.5576C230.702 88.0654 230.88 87.6279 231.236 87.2451C231.773 86.6663 232.5 86.377 233.416 86.377C234.387 86.377 235.164 86.7028 235.747 87.3545C236.171 87.8285 236.476 88.4642 236.663 89.2617C238.067 88.8151 238.769 87.9902 238.769 86.7871C238.769 85.8757 238.388 85.2035 237.627 84.7705C237.117 84.4788 236.47 84.333 235.686 84.333C234.515 84.333 233.457 84.4948 232.514 84.8184C231.817 85.0553 230.88 85.6273 229.704 86.5342L228.74 85.3721C230.007 84.2783 231.45 83.1686 233.068 82.043C234.184 81.2682 235.168 80.6325 236.021 80.1357H230.155V78.7891ZM235.337 89.5283C235.014 88.2386 234.378 87.5938 233.43 87.5938C232.906 87.5938 232.528 87.7601 232.295 88.0928C232.186 88.2432 232.131 88.4049 232.131 88.5781C232.131 88.9382 232.386 89.2093 232.897 89.3916C233.266 89.5192 233.76 89.583 234.38 89.583C234.644 89.583 234.963 89.5648 235.337 89.5283ZM248.219 78.5908H250.317L249.982 87.4365H248.554L248.219 78.5908ZM248.219 88.667H250.317V90.7725H248.219V88.667Z" fill="black"/>
<path d="M27.5137 110.284V120.36H26.085V107.03H27.5137V109.922L28.2383 109.245C28.6439 110.234 28.9674 111.175 29.209 112.068L28.1836 112.868C27.9421 111.711 27.7188 110.849 27.5137 110.284ZM34.0625 110.011H37.6377V111.385H31.5879V117.558C31.5879 117.899 31.7497 118.114 32.0732 118.2C32.4333 118.296 33.0736 118.344 33.9941 118.344C34.8737 118.344 35.8763 118.282 37.002 118.159V119.629C35.9583 119.725 34.9329 119.772 33.9258 119.772C32.5996 119.772 31.7064 119.725 31.2461 119.629C30.7129 119.515 30.3711 119.269 30.2207 118.891C30.1432 118.686 30.1045 118.419 30.1045 118.091V111.385H29.0381V110.011H32.5244V107.27H34.0625V110.011ZM24.0547 114.044C24.2552 113.123 24.4033 111.897 24.499 110.366L24.5332 109.819L25.7227 109.942C25.7044 111.774 25.5449 113.351 25.2441 114.673L24.0547 114.044ZM40.3953 107.604H42.0086V115.753C42.0086 117.471 42.9109 118.33 44.7156 118.33C45.9051 118.33 46.8803 117.781 47.6414 116.683C48.1336 115.976 48.5757 114.882 48.9676 113.401L50.3553 114.242C49.8904 115.887 49.3322 117.118 48.6805 117.934C47.6551 119.205 46.3221 119.841 44.6814 119.841C42.9679 119.841 41.7602 119.312 41.0584 118.255C40.6163 117.594 40.3953 116.742 40.3953 115.698V107.604ZM61.651 119.991C59.5911 118.387 56.8932 116.596 53.5572 114.618C52.942 114.258 52.6344 113.88 52.6344 113.483C52.6344 113.201 52.7688 112.934 53.0377 112.684C53.1516 112.574 53.4387 112.392 53.899 112.137C55.5807 111.202 57.3945 110.088 59.3404 108.794C60.0742 108.311 60.7418 107.844 61.3434 107.393L62.2389 108.568C59.8919 110.232 57.4833 111.749 55.0133 113.121C54.7717 113.258 54.651 113.372 54.651 113.463C54.651 113.536 54.7171 113.618 54.8492 113.709C54.8857 113.736 55.0976 113.864 55.485 114.092C58.6113 115.938 60.9651 117.448 62.5465 118.624L61.651 119.991ZM72.5844 108.391H77.9574V109.648H67.4164V112.841C67.4164 114.55 67.2979 115.988 67.0609 117.154C66.8422 118.253 66.4571 119.312 65.9057 120.333L64.7025 119.294C65.4955 117.653 65.892 115.502 65.892 112.841V108.391H71.0463V107.03H72.5844V108.391ZM72.9877 111.624H77.3832V112.854H72.9877V114.762H76.9389V120.333H75.4281V119.52H69.7133V120.333H68.2162V114.762H71.5043V109.942H72.9877V111.624ZM69.7133 115.979V118.289H75.4281V115.979H69.7133ZM89.4445 109.997H92.2404V117.476H86.4162V109.997H88.1662C88.23 109.765 88.328 109.359 88.4602 108.78H86.0539V107.563H92.8146V108.78H89.8684C89.7499 109.195 89.6223 109.566 89.4855 109.895L89.4445 109.997ZM90.8527 111.077H87.7492V112.157H90.8527V111.077ZM87.7492 113.183V114.229H90.8527V113.183H87.7492ZM87.7492 115.254V116.382H90.8527V115.254H87.7492ZM85.2883 110.154V114.324H79.9631V110.154H85.2883ZM81.3234 111.316V113.176H83.9416V111.316H81.3234ZM82.9299 117.646C83.2671 116.717 83.5565 115.694 83.798 114.577L85.1584 114.926C84.9305 115.751 84.6617 116.544 84.3518 117.305L85.049 117.134C85.327 117.065 85.5777 117.002 85.801 116.942L85.8693 118.118C84.1284 118.706 82.1278 119.253 79.8674 119.759L79.4162 118.398C80.4963 118.189 81.4123 117.995 82.1643 117.817L82.9299 117.646ZM79.5119 107.563H85.6027V108.794H79.5119V107.563ZM80.8312 117.77C80.6398 116.876 80.3778 115.999 80.0451 115.138L81.3371 114.7C81.6333 115.42 81.8977 116.293 82.1301 117.318L80.8312 117.77ZM91.8508 120.374C91.19 119.549 90.4745 118.859 89.7043 118.303L90.7434 117.517C91.5454 118.045 92.2814 118.67 92.9514 119.39L91.8508 120.374ZM85.0012 119.492C85.9445 119.023 86.7762 118.373 87.4963 117.544L88.6311 118.2C87.8062 119.185 86.913 119.941 85.9514 120.47L85.0012 119.492ZM95.4287 119.745C95.2555 118.196 95.1689 116.655 95.1689 115.124C95.1689 112.499 95.3626 110.006 95.75 107.646L97.2539 107.803C96.8848 109.844 96.7002 112.148 96.7002 114.714C96.7002 116.437 96.7959 118.048 96.9873 119.547L95.4287 119.745ZM99.5303 108.917H106.1V110.373H99.5303V108.917ZM106.564 118.904C105.653 119.046 104.571 119.116 103.317 119.116C100.168 119.116 98.5938 118.191 98.5938 116.341C98.5938 115.607 98.7897 114.967 99.1816 114.42L100.474 114.994C100.228 115.34 100.104 115.73 100.104 116.163C100.104 116.696 100.371 117.063 100.904 117.264C101.497 117.492 102.306 117.605 103.331 117.605C104.438 117.605 105.464 117.533 106.407 117.387L106.564 118.904ZM112.446 112.984V120.333H110.935V114.57C110.457 115.021 109.958 115.45 109.438 115.855L108.638 114.536C110.215 113.442 111.653 111.916 112.952 109.956L114.128 110.729C113.613 111.535 113.052 112.287 112.446 112.984ZM119.74 112.909V118.959C119.74 119.447 119.601 119.788 119.323 119.984C119.095 120.139 118.724 120.217 118.209 120.217C117.366 120.217 116.554 120.189 115.775 120.135L115.509 118.665C116.315 118.743 117.028 118.781 117.648 118.781C117.908 118.781 118.065 118.731 118.12 118.631C118.165 118.553 118.188 118.444 118.188 118.303V112.909H113.929V111.508H122.133V112.909H119.74ZM108.734 110.318C110.17 109.516 111.389 108.438 112.391 107.085L113.595 107.885C112.355 109.448 111.006 110.665 109.548 111.535L108.734 110.318ZM114.852 107.789H121.196V109.163H114.852V107.789ZM133.196 119.991C131.136 118.387 128.438 116.596 125.102 114.618C124.487 114.258 124.179 113.88 124.179 113.483C124.179 113.201 124.314 112.934 124.583 112.684C124.697 112.574 124.984 112.392 125.444 112.137C127.126 111.202 128.939 110.088 130.885 108.794C131.619 108.311 132.287 107.844 132.888 107.393L133.784 108.568C131.437 110.232 129.028 111.749 126.558 113.121C126.317 113.258 126.196 113.372 126.196 113.463C126.196 113.536 126.262 113.618 126.394 113.709C126.431 113.736 126.643 113.864 127.03 114.092C130.156 115.938 132.51 117.448 134.091 118.624L133.196 119.991ZM140.11 107.83V117.626H137.799V118.72H136.569V107.83H140.11ZM137.799 109.115V112.014H138.961V109.115H137.799ZM137.799 113.244V116.313H138.961V113.244H137.799ZM144.662 107.577V112.376H141.983V113.921H144.328V115.192H141.983V116.792H144.772V118.077H141.983V120.333H140.711V107.577H144.662ZM143.473 108.821H141.983V111.159H143.473V108.821ZM149.044 107.577V112.376H145.209V111.146H147.746V108.849H145.196V107.577H149.044ZM147.028 118.624C146.353 119.335 145.547 119.934 144.608 120.422L143.74 119.294C144.751 118.861 145.585 118.31 146.242 117.64C145.658 116.769 145.223 115.803 144.936 114.741H144.594V113.497H148.682L149.338 114.058C149.019 115.438 148.525 116.617 147.855 117.592C148.475 118.189 149.161 118.676 149.912 119.055L149.14 120.34C148.311 119.82 147.607 119.248 147.028 118.624ZM146.119 114.741C146.351 115.425 146.661 116.047 147.048 116.607C147.376 116.102 147.645 115.479 147.855 114.741H146.119ZM151.351 110.052H154.372C154.509 109.35 154.662 108.477 154.83 107.434L154.864 107.235L156.362 107.461C156.207 108.427 156.047 109.291 155.883 110.052H156.71C157.804 110.052 158.588 110.298 159.062 110.79C159.486 111.232 159.697 111.92 159.697 112.854C159.697 114.427 159.531 115.896 159.198 117.264C159.007 118.038 158.775 118.61 158.501 118.979C158.155 119.44 157.674 119.67 157.059 119.67C156.321 119.67 155.514 119.433 154.639 118.959L154.81 117.517C155.676 117.931 156.348 118.139 156.826 118.139C157.077 118.139 157.271 118.004 157.407 117.735C157.553 117.444 157.692 117.022 157.824 116.471C158.084 115.354 158.214 114.181 158.214 112.95C158.214 112.303 158.084 111.884 157.824 111.692C157.601 111.533 157.202 111.453 156.628 111.453H155.575C154.851 114.68 153.812 117.432 152.458 119.711L151.084 118.959C152.483 116.612 153.481 114.11 154.078 111.453H151.351V110.052ZM162.705 116.799C162.19 114.903 161.377 113.041 160.265 111.214L161.598 110.612C162.746 112.444 163.605 114.288 164.175 116.143L162.705 116.799ZM161.694 110.25C161.411 109.512 160.955 108.691 160.326 107.789L161.386 107.393C161.937 108.172 162.4 108.981 162.774 109.819L161.694 110.25ZM163.532 109.662C163.177 108.783 162.724 107.955 162.172 107.181L163.177 106.846C163.701 107.47 164.159 108.249 164.551 109.184L163.532 109.662ZM173.905 111.973H175.457V115.726C176.523 116.195 177.615 116.815 178.731 117.585L177.945 118.863C177.161 118.289 176.332 117.756 175.457 117.264C175.407 118.07 175.145 118.69 174.671 119.123C174.142 119.602 173.402 119.841 172.449 119.841C171.529 119.841 170.77 119.631 170.173 119.212C169.59 118.797 169.298 118.218 169.298 117.476C169.298 116.696 169.665 116.072 170.398 115.603C170.968 115.238 171.697 115.056 172.586 115.056C173.001 115.056 173.44 115.106 173.905 115.206V111.973ZM173.905 116.607C173.363 116.421 172.85 116.327 172.367 116.327C171.893 116.327 171.513 116.411 171.226 116.58C170.856 116.799 170.672 117.09 170.672 117.455C170.672 117.902 170.936 118.228 171.465 118.433C171.729 118.533 172.046 118.583 172.415 118.583C173.007 118.583 173.434 118.332 173.693 117.831C173.835 117.562 173.905 117.248 173.905 116.888V116.607ZM166.57 109.354H169.182C169.414 108.566 169.601 107.871 169.742 107.27L171.239 107.454C171.057 108.124 170.87 108.757 170.679 109.354H173.174V110.729H170.234C169.419 113.066 168.462 115.044 167.363 116.662L166.092 115.938C167.131 114.397 168.008 112.661 168.724 110.729H166.57V109.354ZM177.986 112.684C176.975 111.558 175.812 110.533 174.5 109.607L175.402 108.623C176.706 109.466 177.895 110.448 178.971 111.569L177.986 112.684ZM187.163 115.958C186.32 118.437 185.374 119.677 184.326 119.677C183.579 119.677 182.938 119.153 182.405 118.104C181.995 117.293 181.712 116.4 181.557 115.425C181.371 114.24 181.277 112.718 181.277 110.858C181.277 110.052 181.307 109.186 181.366 108.261L182.972 108.384C182.913 109.309 182.884 110.188 182.884 111.022C182.884 113.948 183.157 115.988 183.704 117.141C183.927 117.615 184.137 117.852 184.333 117.852C184.46 117.852 184.62 117.706 184.811 117.414C185.203 116.822 185.582 116.006 185.946 114.967L187.163 115.958ZM191.49 117.585C191.258 115.662 190.973 114.108 190.636 112.923C190.225 111.487 189.749 110.173 189.207 108.979L190.663 108.623C191.415 110.113 191.973 111.549 192.338 112.93C192.638 114.051 192.887 115.477 193.083 117.209L191.49 117.585ZM195.786 117.052H198.083V119.349H195.786V117.052ZM201.107 117.052H203.404V119.349H201.107V117.052ZM206.428 117.052H208.725V119.349H206.428V117.052Z" fill="black"/>
<path d="M34.8076 137.862L35.7852 138.662C35.1471 141.579 34.1126 143.837 32.6816 145.437C31.8887 146.321 30.8633 147.095 29.6055 147.761C28.7122 148.23 27.7529 148.604 26.7275 148.882L25.9346 147.535C28.277 146.924 30.0954 145.949 31.3896 144.609C30.3232 143.652 29.1475 142.805 27.8623 142.066L28.7578 140.959C30.0111 141.611 31.2028 142.413 32.333 143.365C33.2217 141.943 33.7799 140.567 34.0078 139.236H29.1953C28.0924 140.954 26.7936 142.269 25.2988 143.181L24.2939 142.094C25.7386 141.223 26.9258 140.073 27.8555 138.642C28.334 137.912 28.7054 137.126 28.9697 136.283L30.4531 136.646C30.3027 137.056 30.1341 137.461 29.9473 137.862H34.8076ZM43.0545 148.725V141.711C41.6691 142.641 40.0877 143.424 38.3104 144.062L37.4832 142.675C39.5021 141.996 41.2726 141.121 42.7947 140.05C44.2895 138.997 45.6202 137.792 46.7869 136.434L48.1062 137.261C47.0717 138.45 45.9187 139.542 44.6473 140.535V148.725H43.0545ZM49.859 147.241C50.652 146.075 51.3333 144.646 51.9029 142.955C52.5227 141.105 52.9146 139.225 53.0787 137.315L54.6441 137.637C54.2385 140.435 53.6939 142.786 53.0104 144.691C52.5182 146.077 51.912 147.291 51.192 148.335L49.859 147.241ZM60.7486 148.403C59.9374 147.041 59.1946 145.398 58.5201 143.475C57.8775 141.638 57.3466 139.688 56.9273 137.623L58.4107 137.165C59.1946 141.098 60.4273 144.5 62.109 147.371L60.7486 148.403ZM61.2477 135.887C61.553 135.887 61.8447 135.971 62.1227 136.14C62.3961 136.304 62.608 136.527 62.7584 136.81C62.8951 137.065 62.9635 137.331 62.9635 137.609C62.9635 138.056 62.804 138.45 62.485 138.792C62.1477 139.152 61.7307 139.332 61.234 139.332C60.9879 139.332 60.7509 139.28 60.523 139.175C60.2405 139.043 60.0104 138.849 59.8326 138.594C59.623 138.293 59.5182 137.963 59.5182 137.603C59.5182 137.325 59.5888 137.056 59.7301 136.796C59.8714 136.536 60.0628 136.326 60.3043 136.167C60.5914 135.98 60.9059 135.887 61.2477 135.887ZM61.2408 136.728C61.0722 136.728 60.9127 136.775 60.7623 136.871C60.4934 137.04 60.359 137.288 60.359 137.616C60.359 137.849 60.4387 138.049 60.5982 138.218C60.7714 138.4 60.9856 138.491 61.2408 138.491C61.3867 138.491 61.5211 138.459 61.6441 138.396C61.9632 138.231 62.1227 137.972 62.1227 137.616C62.1227 137.366 62.0338 137.154 61.8561 136.98C61.692 136.812 61.4869 136.728 61.2408 136.728ZM70.1303 140.173V139.421H64.3471V138.3H70.1303V137.616C68.4714 137.689 67.1635 137.735 66.2064 137.753L65.6322 136.659C69.6882 136.536 72.7917 136.308 74.9428 135.976L75.9408 137.056C74.7468 137.233 73.4639 137.377 72.0922 137.486L71.6137 137.527V138.3H77.4926V139.421H71.6137V140.173H76.2758V144.89H71.6137V145.73H76.7406V146.824H71.6137V147.747H77.5609V148.868H64.265V147.747H70.1303V146.824H65.0854V145.73H70.1303V144.89H65.5502V140.173H70.1303ZM70.1303 141.15H67.0062V142.053H70.1303V141.15ZM71.6137 141.15V142.053H74.8061V141.15H71.6137ZM70.1303 143.017H67.0062V143.939H70.1303V143.017ZM71.6137 143.017V143.939H74.8061V143.017H71.6137ZM87.2639 144.568C87.1727 145.954 86.897 146.972 86.4367 147.624C85.8534 148.444 84.9055 149.023 83.593 149.36L82.7385 148.226C83.9416 147.975 84.7824 147.508 85.2609 146.824C85.6073 146.332 85.8101 145.58 85.8693 144.568H84.6594V136.577H91.1877V144.568H89.5607V147.426C89.5607 147.594 89.6109 147.699 89.7111 147.74C89.7977 147.777 89.9686 147.795 90.2238 147.795C90.6112 147.795 90.8391 147.713 90.9074 147.549C90.9712 147.394 91.0236 146.801 91.0646 145.771L92.3498 146.209C92.3042 147.499 92.188 148.305 92.0012 148.629C91.8781 148.839 91.6639 148.982 91.3586 149.06C91.0943 149.128 90.6522 149.162 90.0324 149.162C89.4901 149.162 89.1301 149.146 88.9523 149.114C88.4419 149.014 88.1867 148.7 88.1867 148.171V144.568H87.2639ZM86.0881 137.767V138.956H89.759V137.767H86.0881ZM86.0881 139.995V141.171H89.759V139.995H86.0881ZM86.0881 142.224V143.42H89.759V142.224H86.0881ZM82.3693 141.964C83.1577 142.47 83.8527 143.017 84.4543 143.604L83.7434 144.862C83.3469 144.407 82.8889 143.939 82.3693 143.461V149.333H80.9406V143.782C80.8404 143.892 80.6581 144.092 80.3937 144.384C80.1841 144.612 79.8697 144.926 79.4504 145.327L78.7395 143.967C79.578 143.247 80.3391 142.424 81.0227 141.499C81.5057 140.847 81.8931 140.209 82.1848 139.585H79.0744V138.225H80.9064V136.03H82.3352V138.225H83.5451L84.1604 138.812C83.6454 139.943 83.0484 140.986 82.3693 141.943V141.964ZM99.2637 136.591H101.362L101.027 145.437H99.5986L99.2637 136.591ZM99.2637 146.667H101.362V148.772H99.2637V146.667ZM115.878 137.951V140.159H120.841V141.506H115.878V143.393H121.668V144.767H115.878V147.843C115.878 148.39 115.725 148.768 115.42 148.978C115.187 149.137 114.8 149.217 114.258 149.217C113.369 149.217 112.501 149.171 111.653 149.08L111.387 147.61C112.439 147.747 113.235 147.815 113.772 147.815C114.027 147.815 114.187 147.768 114.251 147.672C114.292 147.604 114.312 147.49 114.312 147.33V144.767H108.365V143.393H114.312V141.506H109.062V140.159H114.312V138.149L113.936 138.19C112.633 138.332 111.27 138.441 109.848 138.519L109.261 137.247C112.87 137.097 116.151 136.696 119.104 136.044L119.959 137.22C118.683 137.507 117.322 137.751 115.878 137.951ZM125.574 139.626V138.689H123.181V137.459H125.574V136.03H126.873V137.459H129.156V138.689H126.873V139.626H128.958V144.767H126.873V145.703H129.361V146.947H126.873V149.326H125.574V146.947H123.01V145.703H125.574V144.767H123.557V139.626H125.574ZM125.629 140.747H124.637V141.684H125.629V140.747ZM126.832 140.747V141.684H127.85V140.747H126.832ZM125.629 142.682H124.637V143.659H125.629V142.682ZM126.832 142.682V143.659H127.85V142.682H126.832ZM132.013 144.268V142.736H133.387V144.268H135.978V145.525H133.387V147.651H136.354V148.909H128.971V147.651H132.013V145.525H129.607V144.268H132.013ZM132.793 141.52C131.949 142.208 130.956 142.793 129.812 143.276L128.999 142.217C130.115 141.788 131.04 141.264 131.774 140.645C130.89 139.756 130.254 138.842 129.867 137.903H129.409V136.646H135.089L135.848 137.315C135.21 138.705 134.502 139.813 133.722 140.638C134.511 141.166 135.47 141.599 136.6 141.937L135.917 143.126C134.732 142.72 133.69 142.185 132.793 141.52ZM131.159 137.903C131.546 138.596 132.05 139.234 132.67 139.817C133.207 139.225 133.661 138.587 134.03 137.903H131.159ZM138.982 148.745C138.809 147.196 138.722 145.655 138.722 144.124C138.722 141.499 138.916 139.006 139.303 136.646L140.807 136.803C140.438 138.844 140.253 141.148 140.253 143.714C140.253 145.437 140.349 147.048 140.54 148.547L138.982 148.745ZM143.083 137.917H149.653V139.373H143.083V137.917ZM150.118 147.904C149.206 148.046 148.124 148.116 146.871 148.116C143.721 148.116 142.147 147.191 142.147 145.341C142.147 144.607 142.343 143.967 142.735 143.42L144.027 143.994C143.781 144.34 143.658 144.73 143.658 145.163C143.658 145.696 143.924 146.063 144.457 146.264C145.05 146.492 145.859 146.605 146.884 146.605C147.992 146.605 149.017 146.533 149.96 146.387L150.118 147.904ZM162.049 140.569C163.184 140.979 164.469 141.301 165.904 141.533L165.207 142.798C164.943 142.739 164.644 142.668 164.312 142.586V149.333H162.869V146.359H158.508C158.367 147.048 158.116 147.64 157.756 148.137C157.455 148.556 157.018 148.968 156.444 149.374L155.384 148.28C156.195 147.774 156.733 147.146 156.997 146.394C157.17 145.906 157.257 145.298 157.257 144.568V142.771C156.993 142.843 156.671 142.916 156.293 142.989L155.507 141.841C157.015 141.608 158.371 141.223 159.574 140.686C158.622 140.038 157.843 139.327 157.237 138.553H156.054V137.377H159.944V136.03H161.427V137.377H165.542V138.553H164.148C163.583 139.268 162.883 139.94 162.049 140.569ZM160.805 141.369C160.19 141.706 159.483 142.023 158.686 142.319V142.921H162.869V142.176C161.985 141.88 161.297 141.611 160.805 141.369ZM160.784 139.988C161.509 139.473 162.067 138.995 162.459 138.553H158.843C159.353 139.081 160.001 139.56 160.784 139.988ZM162.869 144.042H158.686V144.336C158.686 144.623 158.677 144.906 158.658 145.184H162.869V144.042ZM154.837 139.25C154.099 138.375 153.395 137.666 152.725 137.124L153.771 136.14C154.577 136.728 155.286 137.409 155.897 138.184L154.837 139.25ZM154.386 142.777C153.711 141.934 153.007 141.203 152.274 140.583L153.313 139.558C154.16 140.182 154.887 140.891 155.493 141.684L154.386 142.777ZM152.445 148.157C153.351 147.009 154.274 145.407 155.213 143.352L156.362 144.274C155.614 146.134 154.732 147.809 153.716 149.299L152.445 148.157ZM173.051 136.352H174.562V138.074H178.861V139.373H174.562V141H178.622V142.285H174.562V144.397C176.184 144.944 177.784 145.767 179.36 146.865L178.554 148.164C177.36 147.271 176.029 146.482 174.562 145.799C174.525 146.578 174.375 147.182 174.11 147.61C173.65 148.353 172.743 148.725 171.39 148.725C170.346 148.725 169.507 148.529 168.874 148.137C168.168 147.699 167.814 147.107 167.814 146.359C167.814 145.466 168.291 144.805 169.243 144.377C169.881 144.094 170.711 143.953 171.731 143.953C172.132 143.953 172.572 143.985 173.051 144.049V142.285H168.204V141H173.051V139.373H167.91V138.074H173.051V136.352ZM173.051 145.32C172.508 145.206 171.989 145.149 171.492 145.149C170.886 145.149 170.394 145.238 170.016 145.416C169.564 145.63 169.339 145.936 169.339 146.332C169.339 146.665 169.514 146.934 169.865 147.139C170.221 147.348 170.695 147.453 171.287 147.453C171.989 147.453 172.472 147.266 172.736 146.893C172.946 146.601 173.051 146.166 173.051 145.587V145.32ZM189.993 136.475H191.517V139.476H194.033V140.85H191.517V143.413C191.517 143.946 191.429 144.322 191.251 144.541C191.032 144.814 190.638 144.951 190.068 144.951C189.312 144.951 188.58 144.826 187.874 144.575V143.256C188.617 143.461 189.189 143.563 189.59 143.563C189.859 143.563 189.993 143.402 189.993 143.078V140.85H185.351V146.154C185.351 146.451 185.404 146.656 185.509 146.77C185.623 146.902 185.871 146.988 186.254 147.029C186.846 147.098 187.678 147.132 188.749 147.132C190.007 147.132 191.269 147.077 192.536 146.968V148.41C191.173 148.492 189.829 148.533 188.503 148.533C186.529 148.533 185.281 148.419 184.757 148.191C184.128 147.923 183.813 147.341 183.813 146.448V140.85H181.352V139.476H183.813V136.604H185.351V139.476H189.993V136.475ZM196.264 138.464H199.457C199.584 137.899 199.728 137.167 199.887 136.27L201.432 136.461C201.296 137.167 201.15 137.835 200.995 138.464H205.547V139.824H200.673C199.762 143.465 198.755 146.485 197.652 148.882L196.141 148.349C197.34 145.692 198.338 142.85 199.135 139.824H196.264V138.464ZM208.364 148.52C207.626 148.615 206.796 148.663 205.876 148.663C204.385 148.663 203.26 148.535 202.499 148.28C202.207 148.18 201.959 148.039 201.754 147.856C201.352 147.492 201.152 147.027 201.152 146.462C201.152 145.883 201.339 145.373 201.712 144.931L202.929 145.648C202.788 145.826 202.717 146.022 202.717 146.236C202.717 146.605 202.886 146.845 203.223 146.954C203.738 147.118 204.472 147.2 205.424 147.2C206.35 147.2 207.272 147.132 208.193 146.995L208.364 148.52ZM201.952 141.745C203.738 141.54 205.693 141.431 207.817 141.417L207.885 142.805C205.803 142.814 203.891 142.912 202.15 143.099L201.952 141.745ZM217.137 144.958C216.294 147.437 215.348 148.677 214.3 148.677C213.553 148.677 212.913 148.153 212.379 147.104C211.969 146.293 211.687 145.4 211.532 144.425C211.345 143.24 211.251 141.718 211.251 139.858C211.251 139.052 211.281 138.186 211.34 137.261L212.947 137.384C212.887 138.309 212.858 139.188 212.858 140.022C212.858 142.948 213.131 144.988 213.678 146.141C213.901 146.615 214.111 146.852 214.307 146.852C214.435 146.852 214.594 146.706 214.786 146.414C215.177 145.822 215.556 145.006 215.92 143.967L217.137 144.958ZM221.464 146.585C221.232 144.662 220.947 143.108 220.61 141.923C220.2 140.487 219.723 139.173 219.181 137.979L220.637 137.623C221.389 139.113 221.947 140.549 222.312 141.93C222.613 143.051 222.861 144.477 223.057 146.209L221.464 146.585ZM230.73 136.591H232.828L232.493 145.437H231.065L230.73 136.591ZM230.73 146.667H232.828V148.772H230.73V146.667Z" fill="black"/>
<path d="M29.4893 166.917C29.7035 166.334 29.8835 165.705 30.0293 165.03L31.7793 165.311C31.5924 165.857 31.3805 166.393 31.1436 166.917H36.1611V178.333H34.6094V177.362H27.3701V178.333H25.8457V166.917H29.4893ZM27.3701 168.202V169.973H34.6094V168.202H27.3701ZM27.3701 171.189V172.939H34.6094V171.189H27.3701ZM27.3701 174.143V176.063H34.6094V174.143H27.3701ZM45.7957 173.644V176.009C45.7957 176.332 45.9279 176.528 46.1922 176.597C46.4201 176.656 46.992 176.686 47.908 176.686C49.3663 176.686 50.1753 176.569 50.3348 176.337C50.4441 176.177 50.5171 175.544 50.5535 174.437L52.0643 174.888C52.0141 175.836 51.9458 176.48 51.8592 176.822C51.727 177.333 51.4399 177.668 50.9979 177.827C50.5193 178 49.437 178.087 47.7508 178.087C46.2514 178.087 45.3468 178.035 45.0369 177.93C44.5083 177.747 44.2439 177.335 44.2439 176.692V173.76L39.199 174.143L39.076 172.844L44.2439 172.44V170.813C42.8722 171.037 41.7101 171.199 40.7576 171.299L40.2244 170.068C43.5786 169.745 46.4952 169.161 48.9744 168.318L50.0955 169.371C48.6007 169.859 47.1674 170.239 45.7957 170.513V172.317L52.3035 171.805L52.3992 173.138L45.7957 173.644ZM46.4656 166.527H51.9549V169.453H50.4168V167.785H40.949V169.453H39.4246V166.527H44.9275V165.03H46.4656V166.527ZM56.565 166.049C56.9296 166.792 57.3443 167.699 57.8092 168.77C58.2604 168.605 58.8391 168.41 59.5455 168.182C59.9283 168.059 60.2177 167.965 60.4137 167.901C60.0947 167.145 59.7551 166.459 59.3951 165.844L60.6529 165.365C61.0676 166.044 61.4459 166.778 61.7877 167.566C62.3847 167.443 62.8906 167.382 63.3053 167.382C64.1712 167.382 64.8775 167.601 65.4244 168.038C65.5064 168.106 65.5771 168.173 65.6363 168.236C66.2516 168.893 66.5592 169.672 66.5592 170.574C66.5592 171.973 66.0191 172.974 64.9391 173.575C64.301 173.935 63.2962 174.19 61.9244 174.341L61.3639 173.069C62.6217 172.965 63.5559 172.723 64.1666 172.345C64.718 172.007 64.9937 171.404 64.9937 170.533C64.9937 169.968 64.8456 169.526 64.5494 169.207C64.2486 168.879 63.8294 168.715 63.2916 168.715C63.0501 168.715 62.7219 168.751 62.3072 168.824C62.5214 169.389 62.7311 170.009 62.9361 170.684L61.6168 171.319C61.3798 170.49 61.152 169.774 60.9332 169.173C60.1266 169.405 59.263 169.69 58.3424 170.027C59.4361 172.707 60.3362 175.191 61.0426 177.479L59.6275 177.95C58.8893 175.521 57.9983 173.049 56.9547 170.533L56.7086 170.629C55.6604 171.03 54.9176 171.319 54.4801 171.497L53.9742 170.137L54.1656 170.068C55.2184 169.681 55.9703 169.405 56.4215 169.241C55.9885 168.234 55.5738 167.325 55.1773 166.514L56.565 166.049ZM72.4682 170.465V178.326H71.224V175.694C70.3126 176.004 69.3783 176.262 68.4213 176.467L68.059 175.127C68.3187 175.077 68.5945 175.02 68.8861 174.956V166.862H68.2436V165.618H73.0561V166.568H74.6557V165.03H75.9887V166.568H77.6771V167.689H77.2602L77.2465 167.765C77.128 168.28 76.9799 168.783 76.8021 169.275H78.1078L78.0805 168.154C78.0622 167.384 78.0531 166.473 78.0531 165.42V165.03H79.3041V165.536C79.3041 166.94 79.3155 167.999 79.3383 168.715L79.352 169.275H81.724V170.465H79.393C79.3975 170.542 79.3998 170.62 79.3998 170.697C79.418 171.335 79.4659 172.064 79.5434 172.885C79.8578 172.32 80.1837 171.647 80.5209 170.868L81.5531 171.565C80.9971 172.755 80.4206 173.801 79.8236 174.703C79.9421 175.223 80.0993 175.701 80.2953 176.139C80.3773 176.312 80.4366 176.398 80.473 176.398C80.5779 176.398 80.7146 175.774 80.8832 174.525L81.9359 175.209C81.7217 177.223 81.2865 178.23 80.6303 178.23C80.3295 178.23 80.0105 178.016 79.6732 177.588C79.3497 177.178 79.074 176.658 78.8461 176.029C78.1625 176.863 77.4014 177.62 76.5629 178.299L75.6674 177.376C76.0958 177.062 76.4649 176.763 76.7748 176.48H74.2729V177.191H73.1244V171.299H77.3422V175.927C77.3604 175.904 77.3855 175.877 77.4174 175.845C77.6726 175.58 78.0212 175.159 78.4633 174.58C78.3311 173.906 78.2217 172.534 78.1352 170.465H72.4682ZM74.9086 169.275H75.6674C75.8269 168.742 75.959 168.214 76.0639 167.689H74.5805C74.7217 168.195 74.8311 168.724 74.9086 169.275ZM73.7602 169.275C73.6736 168.747 73.5619 168.257 73.4252 167.806L73.391 167.689H72.8715V166.862H72.4682V169.275H73.7602ZM71.2514 166.862H70.0619V168.599H71.2514V166.862ZM71.2514 169.733H70.0619V171.463H71.2514V169.733ZM71.2514 172.604H70.0619V174.689C70.5131 174.58 70.9096 174.478 71.2514 174.382V172.604ZM74.2729 172.276V173.363H76.1801V172.276H74.2729ZM74.2729 174.341V175.476H76.1801V174.341H74.2729ZM80.391 168.961C80.2042 168.054 79.8738 167.09 79.3998 166.069L80.5209 165.591C80.9402 166.379 81.2934 167.298 81.5805 168.346L80.391 168.961ZM93.4982 173.835C93.1975 174.664 92.8169 175.389 92.3566 176.009C91.7687 176.806 90.9758 177.515 89.9777 178.135L89.0207 177.294C90.479 176.474 91.5523 175.321 92.2404 173.835H91.2902C90.4243 175.476 89.0845 176.717 87.2707 177.561L86.4025 176.665C87.9839 175.95 89.1711 175.006 89.9641 173.835H89.048C88.6379 174.254 88.2141 174.601 87.7766 174.874L87.0109 174.129C85.8944 174.808 84.6708 175.414 83.34 175.947L82.8342 174.56C83.4084 174.386 84.0236 174.168 84.6799 173.903V169.303H83.0734V167.942H84.6799V165.03H86.0949V167.942H87.4416V169.303H86.0949V173.288C86.4413 173.124 86.8674 172.914 87.3732 172.659L87.551 173.534C88.1024 173.097 88.5604 172.577 88.925 171.976H86.9904V170.827H96.3762V171.976H90.4016C90.2785 172.203 90.1213 172.459 89.9299 172.741H95.8566C95.7609 175.088 95.5878 176.647 95.3371 177.417C95.2141 177.795 95.0044 178.048 94.7082 178.176C94.4986 178.271 94.1909 178.319 93.7854 178.319C93.3114 178.319 92.8488 178.285 92.3977 178.217L92.1447 176.918C92.5731 177.018 92.9992 177.068 93.423 177.068C93.7284 177.068 93.9243 176.968 94.0109 176.768C94.1796 176.367 94.3163 175.389 94.4211 173.835H93.4982ZM95.1115 165.434V170.144H88.0705V165.434H95.1115ZM89.4445 166.473V167.286H93.7375V166.473H89.4445ZM89.4445 168.277V169.118H93.7375V168.277H89.4445ZM105.054 176.255C107.729 175.58 109.066 174.047 109.066 171.654C109.066 170.611 108.798 169.713 108.26 168.961C107.658 168.113 106.742 167.569 105.512 167.327C105.243 169.442 104.876 171.174 104.411 172.522C104.092 173.466 103.696 174.357 103.222 175.195C102.538 176.389 101.761 176.986 100.891 176.986C100.243 176.986 99.667 176.695 99.1611 176.111C98.8376 175.742 98.5755 175.289 98.375 174.751C98.1107 174.054 97.9785 173.304 97.9785 172.502C97.9785 171.203 98.3363 170.007 99.0518 168.913C99.7764 167.797 100.717 166.985 101.875 166.479C102.718 166.11 103.643 165.926 104.65 165.926C106.223 165.926 107.558 166.347 108.656 167.19C110.005 168.225 110.68 169.69 110.68 171.586C110.68 174.762 109.073 176.777 105.86 177.629L105.054 176.255ZM104.028 167.272C103.222 167.364 102.547 167.58 102.005 167.922C101.659 168.145 101.314 168.441 100.973 168.811C100.025 169.859 99.5508 171.073 99.5508 172.454C99.5508 173.461 99.7513 174.25 100.152 174.819C100.398 175.17 100.642 175.346 100.884 175.346C101.212 175.346 101.581 174.983 101.991 174.259C102.994 172.495 103.673 170.166 104.028 167.272ZM115.926 175.223C116.29 175.646 116.7 175.961 117.156 176.166C117.903 176.503 118.883 176.672 120.096 176.672H125.92C125.756 176.982 125.603 177.426 125.462 178.005H120.027C118.459 178.005 117.259 177.759 116.425 177.267C116.083 177.062 115.707 176.727 115.297 176.262C115.265 176.298 115.226 176.344 115.18 176.398C114.511 177.191 113.845 177.839 113.184 178.34L112.357 176.938C113.082 176.506 113.781 176.016 114.456 175.469V172.092H112.467V170.745H115.926V175.223ZM117.703 166.151L118.065 166.124C120.175 165.978 122.071 165.666 123.753 165.188L124.819 166.391C123.051 166.855 121.164 167.17 119.159 167.334V169.104H125.489V170.438H123.192V176.009H121.681V170.438H119.159C119.136 171.9 119.027 173.065 118.831 173.931C118.653 174.728 118.361 175.444 117.956 176.077L116.698 175.127C117.149 174.425 117.439 173.555 117.566 172.516C117.657 171.8 117.703 170.827 117.703 169.597V166.151ZM115.174 168.824C114.476 167.84 113.724 166.958 112.918 166.179L114.039 165.283C114.823 165.939 115.611 166.773 116.404 167.785L115.174 168.824ZM136.833 177.991C134.773 176.387 132.075 174.596 128.739 172.618C128.124 172.258 127.816 171.88 127.816 171.483C127.816 171.201 127.95 170.934 128.219 170.684C128.333 170.574 128.62 170.392 129.081 170.137C130.762 169.202 132.576 168.088 134.522 166.794C135.256 166.311 135.923 165.844 136.525 165.393L137.421 166.568C135.074 168.232 132.665 169.749 130.195 171.121C129.953 171.258 129.833 171.372 129.833 171.463C129.833 171.536 129.899 171.618 130.031 171.709C130.067 171.736 130.279 171.864 130.667 172.092C133.793 173.938 136.147 175.448 137.728 176.624L136.833 177.991ZM141.21 177.745C141.037 176.196 140.951 174.655 140.951 173.124C140.951 170.499 141.144 168.006 141.532 165.646L143.036 165.803C142.666 167.844 142.482 170.148 142.482 172.714C142.482 174.437 142.578 176.048 142.769 177.547L141.21 177.745ZM145.312 166.917H151.881V168.373H145.312V166.917ZM152.346 176.904C151.435 177.046 150.352 177.116 149.099 177.116C145.95 177.116 144.375 176.191 144.375 174.341C144.375 173.607 144.571 172.967 144.963 172.42L146.255 172.994C146.009 173.34 145.886 173.73 145.886 174.163C145.886 174.696 146.153 175.063 146.686 175.264C147.278 175.492 148.087 175.605 149.113 175.605C150.22 175.605 151.246 175.533 152.189 175.387L152.346 176.904ZM162.329 166.391H167.702V167.648H157.161V170.841C157.161 172.55 157.043 173.988 156.806 175.154C156.587 176.253 156.202 177.312 155.651 178.333L154.447 177.294C155.24 175.653 155.637 173.502 155.637 170.841V166.391H160.791V165.03H162.329V166.391ZM162.733 169.624H167.128V170.854H162.733V172.762H166.684V178.333H165.173V177.52H159.458V178.333H157.961V172.762H161.249V167.942H162.733V169.624ZM159.458 173.979V176.289H165.173V173.979H159.458ZM179.189 167.997H181.985V175.476H176.161V167.997H177.911C177.975 167.765 178.073 167.359 178.205 166.78H175.799V165.563H182.56V166.78H179.613C179.495 167.195 179.367 167.566 179.23 167.895L179.189 167.997ZM180.598 169.077H177.494V170.157H180.598V169.077ZM177.494 171.183V172.229H180.598V171.183H177.494ZM177.494 173.254V174.382H180.598V173.254H177.494ZM175.033 168.154V172.324H169.708V168.154H175.033ZM171.068 169.316V171.176H173.687V169.316H171.068ZM172.675 175.646C173.012 174.717 173.301 173.694 173.543 172.577L174.903 172.926C174.675 173.751 174.407 174.544 174.097 175.305L174.794 175.134C175.072 175.065 175.323 175.002 175.546 174.942L175.614 176.118C173.873 176.706 171.873 177.253 169.612 177.759L169.161 176.398C170.241 176.189 171.157 175.995 171.909 175.817L172.675 175.646ZM169.257 165.563H175.348V166.794H169.257V165.563ZM170.576 175.77C170.385 174.876 170.123 173.999 169.79 173.138L171.082 172.7C171.378 173.42 171.643 174.293 171.875 175.318L170.576 175.77ZM181.596 178.374C180.935 177.549 180.219 176.859 179.449 176.303L180.488 175.517C181.29 176.045 182.026 176.67 182.696 177.39L181.596 178.374ZM174.746 177.492C175.689 177.023 176.521 176.373 177.241 175.544L178.376 176.2C177.551 177.185 176.658 177.941 175.696 178.47L174.746 177.492ZM184.251 168.052H187.272C187.409 167.35 187.562 166.477 187.73 165.434L187.764 165.235L189.262 165.461C189.107 166.427 188.947 167.291 188.783 168.052H189.61C190.704 168.052 191.488 168.298 191.962 168.79C192.386 169.232 192.597 169.92 192.597 170.854C192.597 172.427 192.431 173.896 192.098 175.264C191.907 176.038 191.675 176.61 191.401 176.979C191.055 177.44 190.574 177.67 189.959 177.67C189.221 177.67 188.414 177.433 187.539 176.959L187.71 175.517C188.576 175.931 189.248 176.139 189.726 176.139C189.977 176.139 190.171 176.004 190.307 175.735C190.453 175.444 190.592 175.022 190.724 174.471C190.984 173.354 191.114 172.181 191.114 170.95C191.114 170.303 190.984 169.884 190.724 169.692C190.501 169.533 190.102 169.453 189.528 169.453H188.475C187.751 172.68 186.712 175.432 185.358 177.711L183.984 176.959C185.383 174.612 186.381 172.11 186.978 169.453H184.251V168.052ZM195.605 174.799C195.09 172.903 194.277 171.041 193.165 169.214L194.498 168.612C195.646 170.444 196.505 172.288 197.075 174.143L195.605 174.799ZM194.594 168.25C194.311 167.512 193.855 166.691 193.226 165.789L194.286 165.393C194.837 166.172 195.3 166.981 195.674 167.819L194.594 168.25ZM196.432 167.662C196.077 166.783 195.623 165.955 195.072 165.181L196.077 164.846C196.601 165.47 197.059 166.249 197.451 167.184L196.432 167.662ZM206.805 169.973H208.357V173.726C209.423 174.195 210.515 174.815 211.631 175.585L210.845 176.863C210.061 176.289 209.232 175.756 208.357 175.264C208.307 176.07 208.045 176.69 207.571 177.123C207.042 177.602 206.302 177.841 205.349 177.841C204.429 177.841 203.67 177.631 203.073 177.212C202.49 176.797 202.198 176.218 202.198 175.476C202.198 174.696 202.565 174.072 203.298 173.603C203.868 173.238 204.597 173.056 205.486 173.056C205.901 173.056 206.34 173.106 206.805 173.206V169.973ZM206.805 174.607C206.263 174.421 205.75 174.327 205.267 174.327C204.793 174.327 204.413 174.411 204.126 174.58C203.756 174.799 203.572 175.09 203.572 175.455C203.572 175.902 203.836 176.228 204.365 176.433C204.629 176.533 204.946 176.583 205.315 176.583C205.907 176.583 206.334 176.332 206.593 175.831C206.735 175.562 206.805 175.248 206.805 174.888V174.607ZM199.47 167.354H202.082C202.314 166.566 202.501 165.871 202.642 165.27L204.139 165.454C203.957 166.124 203.77 166.757 203.579 167.354H206.074V168.729H203.134C202.319 171.066 201.362 173.044 200.263 174.662L198.992 173.938C200.031 172.397 200.908 170.661 201.624 168.729H199.47V167.354ZM210.886 170.684C209.875 169.558 208.712 168.533 207.4 167.607L208.302 166.623C209.606 167.466 210.795 168.448 211.871 169.569L210.886 170.684ZM220.063 173.958C219.22 176.437 218.274 177.677 217.226 177.677C216.479 177.677 215.838 177.153 215.305 176.104C214.895 175.293 214.612 174.4 214.457 173.425C214.271 172.24 214.177 170.718 214.177 168.858C214.177 168.052 214.207 167.186 214.266 166.261L215.872 166.384C215.813 167.309 215.784 168.188 215.784 169.022C215.784 171.948 216.057 173.988 216.604 175.141C216.827 175.615 217.037 175.852 217.233 175.852C217.36 175.852 217.52 175.706 217.711 175.414C218.103 174.822 218.482 174.006 218.846 172.967L220.063 173.958ZM224.39 175.585C224.158 173.662 223.873 172.108 223.536 170.923C223.125 169.487 222.649 168.173 222.107 166.979L223.563 166.623C224.315 168.113 224.873 169.549 225.238 170.93C225.538 172.051 225.787 173.477 225.983 175.209L224.39 175.585ZM228.686 175.052H230.983V177.349H228.686V175.052ZM234.007 175.052H236.304V177.349H234.007V175.052ZM239.328 175.052H241.625V177.349H239.328V175.052Z" fill="black"/>
<path d="M149.79 243.5L189.294 200L195 190L149.79 190L149.79 243.5Z" fill="white"/>
</svg>
